<svg xmlns="http://www.w3.org/2000/svg" xmlns:xlink="http://www.w3.org/1999/xlink" width="500" zoomAndPan="magnify" viewBox="0 0 375 374.999991" height="500" preserveAspectRatio="xMidYMid meet" version="1.0"><defs><g/><linearGradient x1="0" gradientTransform="matrix(0.75, 0, 0, 0.75, 0.0000045, 0)" y1="250" x2="499.999979" gradientUnits="userSpaceOnUse" y2="250" id="b2eeccb556"><stop stop-opacity="1" stop-color="rgb(93.699646%, 62.399292%, 24.299622%)" offset="0"/><stop stop-opacity="1" stop-color="rgb(93.714905%, 62.493896%, 24.485779%)" offset="0.015625"/><stop stop-opacity="1" stop-color="rgb(93.745422%, 62.683105%, 24.858093%)" offset="0.03125"/><stop stop-opacity="1" stop-color="rgb(93.777466%, 62.872314%, 25.231934%)" offset="0.046875"/><stop stop-opacity="1" stop-color="rgb(93.807983%, 63.061523%, 25.605774%)" offset="0.0625"/><stop stop-opacity="1" stop-color="rgb(93.840027%, 63.249207%, 25.979614%)" offset="0.078125"/><stop stop-opacity="1" stop-color="rgb(93.870544%, 63.438416%, 26.351929%)" offset="0.09375"/><stop stop-opacity="1" stop-color="rgb(93.902588%, 63.627625%, 26.725769%)" offset="0.109375"/><stop stop-opacity="1" stop-color="rgb(93.933105%, 63.816833%, 27.099609%)" offset="0.125"/><stop stop-opacity="1" stop-color="rgb(93.965149%, 64.006042%, 27.47345%)" offset="0.140625"/><stop stop-opacity="1" stop-color="rgb(93.995667%, 64.195251%, 27.845764%)" offset="0.15625"/><stop stop-opacity="1" stop-color="rgb(94.02771%, 64.38446%, 28.219604%)" offset="0.171875"/><stop stop-opacity="1" stop-color="rgb(94.058228%, 64.573669%, 28.593445%)" offset="0.1875"/><stop stop-opacity="1" stop-color="rgb(94.088745%, 64.762878%, 28.967285%)" offset="0.203125"/><stop stop-opacity="1" stop-color="rgb(94.120789%, 64.952087%, 29.3396%)" offset="0.21875"/><stop stop-opacity="1" stop-color="rgb(94.151306%, 65.141296%, 29.71344%)" offset="0.234375"/><stop stop-opacity="1" stop-color="rgb(94.18335%, 65.328979%, 30.08728%)" offset="0.25"/><stop stop-opacity="1" stop-color="rgb(94.213867%, 65.518188%, 30.461121%)" offset="0.265625"/><stop stop-opacity="1" stop-color="rgb(94.245911%, 65.707397%, 30.833435%)" offset="0.28125"/><stop stop-opacity="1" stop-color="rgb(94.276428%, 65.896606%, 31.207275%)" offset="0.296875"/><stop stop-opacity="1" stop-color="rgb(94.308472%, 66.085815%, 31.581116%)" offset="0.3125"/><stop stop-opacity="1" stop-color="rgb(94.338989%, 66.275024%, 31.95343%)" offset="0.328125"/><stop stop-opacity="1" stop-color="rgb(94.371033%, 66.464233%, 32.327271%)" offset="0.34375"/><stop stop-opacity="1" stop-color="rgb(94.40155%, 66.653442%, 32.701111%)" offset="0.359375"/><stop stop-opacity="1" stop-color="rgb(94.433594%, 66.842651%, 33.074951%)" offset="0.375"/><stop stop-opacity="1" stop-color="rgb(94.464111%, 67.03186%, 33.447266%)" offset="0.390625"/><stop stop-opacity="1" stop-color="rgb(94.496155%, 67.219543%, 33.821106%)" offset="0.40625"/><stop stop-opacity="1" stop-color="rgb(94.526672%, 67.408752%, 34.194946%)" offset="0.421875"/><stop stop-opacity="1" stop-color="rgb(94.558716%, 67.597961%, 34.568787%)" offset="0.4375"/><stop stop-opacity="1" stop-color="rgb(94.589233%, 67.78717%, 34.941101%)" offset="0.453125"/><stop stop-opacity="1" stop-color="rgb(94.621277%, 67.976379%, 35.314941%)" offset="0.46875"/><stop stop-opacity="1" stop-color="rgb(94.651794%, 68.165588%, 35.688782%)" offset="0.484375"/><stop stop-opacity="1" stop-color="rgb(94.683838%, 68.354797%, 36.062622%)" offset="0.5"/><stop stop-opacity="1" stop-color="rgb(94.714355%, 68.544006%, 36.434937%)" offset="0.515625"/><stop stop-opacity="1" stop-color="rgb(94.746399%, 68.733215%, 36.808777%)" offset="0.53125"/><stop stop-opacity="1" stop-color="rgb(94.776917%, 68.922424%, 37.182617%)" offset="0.546875"/><stop stop-opacity="1" stop-color="rgb(94.80896%, 69.111633%, 37.556458%)" offset="0.5625"/><stop stop-opacity="1" stop-color="rgb(94.839478%, 69.299316%, 37.928772%)" offset="0.578125"/><stop stop-opacity="1" stop-color="rgb(94.869995%, 69.488525%, 38.302612%)" offset="0.59375"/><stop stop-opacity="1" stop-color="rgb(94.902039%, 69.677734%, 38.676453%)" offset="0.609375"/><stop stop-opacity="1" stop-color="rgb(94.932556%, 69.866943%, 39.048767%)" offset="0.625"/><stop stop-opacity="1" stop-color="rgb(94.9646%, 70.056152%, 39.422607%)" offset="0.640625"/><stop stop-opacity="1" stop-color="rgb(94.995117%, 70.245361%, 39.796448%)" offset="0.65625"/><stop stop-opacity="1" stop-color="rgb(95.027161%, 70.43457%, 40.170288%)" offset="0.671875"/><stop stop-opacity="1" stop-color="rgb(95.057678%, 70.623779%, 40.542603%)" offset="0.6875"/><stop stop-opacity="1" stop-color="rgb(95.089722%, 70.812988%, 40.916443%)" offset="0.703125"/><stop stop-opacity="1" stop-color="rgb(95.120239%, 71.002197%, 41.290283%)" offset="0.71875"/><stop stop-opacity="1" stop-color="rgb(95.152283%, 71.18988%, 41.664124%)" offset="0.734375"/><stop stop-opacity="1" stop-color="rgb(95.1828%, 71.379089%, 42.036438%)" offset="0.75"/><stop stop-opacity="1" stop-color="rgb(95.214844%, 71.568298%, 42.410278%)" offset="0.765625"/><stop stop-opacity="1" stop-color="rgb(95.245361%, 71.757507%, 42.784119%)" offset="0.78125"/><stop stop-opacity="1" stop-color="rgb(95.277405%, 71.946716%, 43.157959%)" offset="0.796875"/><stop stop-opacity="1" stop-color="rgb(95.307922%, 72.135925%, 43.530273%)" offset="0.8125"/><stop stop-opacity="1" stop-color="rgb(95.339966%, 72.325134%, 43.904114%)" offset="0.828125"/><stop stop-opacity="1" stop-color="rgb(95.370483%, 72.514343%, 44.277954%)" offset="0.84375"/><stop stop-opacity="1" stop-color="rgb(95.402527%, 72.703552%, 44.650269%)" offset="0.859375"/><stop stop-opacity="1" stop-color="rgb(95.433044%, 72.892761%, 45.024109%)" offset="0.875"/><stop stop-opacity="1" stop-color="rgb(95.465088%, 73.080444%, 45.397949%)" offset="0.890625"/><stop stop-opacity="1" stop-color="rgb(95.495605%, 73.269653%, 45.77179%)" offset="0.90625"/><stop stop-opacity="1" stop-color="rgb(95.527649%, 73.458862%, 46.144104%)" offset="0.921875"/><stop stop-opacity="1" stop-color="rgb(95.558167%, 73.648071%, 46.517944%)" offset="0.9375"/><stop stop-opacity="1" stop-color="rgb(95.59021%, 73.83728%, 46.891785%)" offset="0.953125"/><stop stop-opacity="1" stop-color="rgb(95.620728%, 74.026489%, 47.265625%)" offset="0.96875"/><stop stop-opacity="1" stop-color="rgb(95.651245%, 74.215698%, 47.637939%)" offset="0.984375"/><stop stop-opacity="1" stop-color="rgb(95.683289%, 74.404907%, 48.01178%)" offset="1"/></linearGradient></defs><rect x="-37.5" width="450" fill="#ffffff" y="-37.499999" height="449.999989" fill-opacity="1"/><rect x="-37.5" fill="url(#b2eeccb556)" width="450" y="-37.499999" height="449.999989"/><path stroke-linecap="butt" transform="matrix(0.796004, -0.0323475, 0.0323475, 0.796004, 89.756372, 23.125813)" fill="none" stroke-linejoin="miter" d="M 197.5021 124.259861 C 195.705904 126.557107 193.509365 128.803733 190.912481 130.999738 C 188.715379 132.897921 185.999079 134.892781 182.753584 136.988818 C 179.508089 139.084856 175.740643 140.983019 171.446548 142.67821 C 172.844399 140.884953 172.971634 138.961544 171.823156 136.912684 C 170.674478 134.868723 168.154655 132.99478 164.258388 131.300453 C 160.36722 129.601426 155.099531 128.204695 148.465318 127.105761 C 141.826007 126.011526 133.716933 125.461165 124.132998 125.459378 C 118.54361 125.457978 112.528395 126.033059 106.087552 127.179723 C 99.651409 128.331485 93.285101 130.300701 86.998028 133.097568 C 80.706254 135.889336 74.641809 139.608013 68.804693 144.253597 C 62.962876 148.894084 57.800555 154.68596 53.308128 161.62393 C 48.815901 168.557001 45.247256 176.793693 42.602392 186.329109 C 39.952828 195.859426 38.632011 206.866864 38.630342 219.346126 C 38.633771 231.820688 40.155385 242.801323 43.200083 252.288229 C 46.244981 261.770236 50.285879 269.928482 55.327478 276.768064 C 60.369077 283.607646 66.134552 289.298886 72.624103 293.836885 C 79.108556 298.379584 85.747224 302.025602 92.535405 304.76984 C 99.323587 307.514079 105.988242 309.433774 112.52917 310.533826 C 119.065199 311.633678 124.980731 312.183231 130.270867 312.182285 C 136.360055 312.081314 142.698939 311.632254 149.287521 310.835107 C 154.979066 310.134004 161.24306 309.112651 168.079703 307.766149 C 174.916545 306.414748 181.631296 304.44497 188.219257 301.851716 C 178.534929 309.633776 169.553558 315.574711 161.265543 319.669223 C 152.982627 323.759036 145.694162 326.804741 139.405246 328.801639 C 132.117846 331.096566 125.43037 332.395149 119.337919 332.697189 C 104.566932 332.695629 90.639818 330.524973 77.561678 326.18052 C 64.488237 321.841165 53.030084 315.55054 43.196818 307.313943 C 33.368451 299.077545 25.603513 288.971883 19.916901 276.992656 C 14.22539 265.013229 11.378319 251.387664 11.38059 236.116157 C 11.378395 226.630207 12.276074 217.823685 14.074026 209.686793 C 15.871978 201.5499 18.241158 194.088895 21.186663 187.299078 C 24.13197 180.514159 27.452534 174.397165 31.143059 168.957694 C 34.838483 163.518422 38.605811 158.724931 42.449743 154.582321 C 46.293675 150.43971 50.036644 146.970208 53.67845 144.178713 C 57.325355 141.382518 60.494453 139.234302 63.190445 137.739165 C 65.783554 136.239846 69.101109 134.54423 73.148209 132.647617 C 77.19041 130.750804 81.631042 128.830924 86.470303 126.883077 C 91.314464 124.935429 96.432385 123.013629 101.819166 121.117476 C 107.210846 119.221522 112.702346 117.525917 118.293865 116.025763 C 123.880285 114.530308 129.346778 113.329328 134.688045 112.432419 C 140.029313 111.535511 145.092405 111.08368 149.886723 111.087123 C 160.565178 111.084315 169.201457 111.58249 175.790659 112.581449 C 182.379861 113.580408 187.394461 114.804912 190.839557 116.25026 C 194.284454 117.700508 196.428066 119.171484 197.279995 120.668488 C 198.127024 122.165292 198.200926 123.365682 197.5021 124.259861 Z M 197.5021 124.259861 " stroke="#f6c17f" stroke-width="23.000025" stroke-opacity="1" stroke-miterlimit="4"/><g fill="#141414" fill-opacity="1"><g transform="translate(100.431038, 285.807057)"><g><path d="M 150.5625 -170.140625 C 149.195312 -168.253906 147.519531 -166.394531 145.53125 -164.5625 C 143.84375 -162.988281 141.738281 -161.3125 139.21875 -159.53125 C 136.707031 -157.757812 133.769531 -156.128906 130.40625 -154.640625 C 131.46875 -156.117188 131.507812 -157.65625 130.53125 -159.25 C 129.550781 -160.84375 127.476562 -162.25 124.3125 -163.46875 C 121.15625 -164.6875 116.921875 -165.625 111.609375 -166.28125 C 106.296875 -166.945312 99.828125 -167.125 92.203125 -166.8125 C 87.742188 -166.632812 82.96875 -165.984375 77.875 -164.859375 C 72.789062 -163.742188 67.789062 -161.972656 62.875 -159.546875 C 57.96875 -157.117188 53.257812 -153.957031 48.75 -150.0625 C 44.25 -146.175781 40.320312 -141.398438 36.96875 -135.734375 C 33.625 -130.066406 31.050781 -123.394531 29.25 -115.71875 C 27.457031 -108.050781 26.765625 -99.253906 27.171875 -89.328125 C 27.578125 -79.390625 29.144531 -70.695312 31.875 -63.25 C 34.601562 -55.800781 38.082031 -49.4375 42.3125 -44.15625 C 46.539062 -38.875 51.3125 -34.53125 56.625 -31.125 C 61.9375 -27.71875 67.335938 -25.03125 72.828125 -23.0625 C 78.328125 -21.101562 83.695312 -19.789062 88.9375 -19.125 C 94.175781 -18.457031 98.898438 -18.210938 103.109375 -18.390625 C 107.960938 -18.671875 112.992188 -19.234375 118.203125 -20.078125 C 122.710938 -20.828125 127.664062 -21.847656 133.0625 -23.140625 C 138.457031 -24.429688 143.738281 -26.21875 148.90625 -28.5 C 141.457031 -21.988281 134.5 -16.96875 128.03125 -13.4375 C 121.5625 -9.914062 115.863281 -7.257812 110.9375 -5.46875 C 105.207031 -3.394531 99.925781 -2.144531 95.09375 -1.71875 C 83.332031 -1.238281 72.175781 -2.515625 61.625 -5.546875 C 51.070312 -8.585938 41.75 -13.222656 33.65625 -19.453125 C 25.5625 -25.691406 19.054688 -33.488281 14.140625 -42.84375 C 9.222656 -52.195312 6.519531 -62.953125 6.03125 -75.109375 C 5.71875 -82.648438 6.144531 -89.6875 7.3125 -96.21875 C 8.476562 -102.75 10.117188 -108.765625 12.234375 -114.265625 C 14.359375 -119.765625 16.800781 -124.738281 19.5625 -129.1875 C 22.332031 -133.644531 25.179688 -137.582031 28.109375 -141 C 31.035156 -144.414062 33.90625 -147.296875 36.71875 -149.640625 C 39.53125 -151.984375 41.984375 -153.796875 44.078125 -155.078125 C 46.085938 -156.359375 48.675781 -157.816406 51.84375 -159.453125 C 55.007812 -161.085938 58.484375 -162.757812 62.265625 -164.46875 C 66.046875 -166.175781 70.050781 -167.875 74.28125 -169.5625 C 78.519531 -171.25 82.835938 -172.773438 87.234375 -174.140625 C 91.640625 -175.515625 95.953125 -176.644531 100.171875 -177.53125 C 104.390625 -178.414062 108.410156 -178.9375 112.234375 -179.09375 C 120.734375 -179.4375 127.617188 -179.316406 132.890625 -178.734375 C 138.171875 -178.160156 142.203125 -177.351562 144.984375 -176.3125 C 147.773438 -175.269531 149.53125 -174.164062 150.25 -173 C 150.976562 -171.832031 151.082031 -170.878906 150.5625 -170.140625 Z M 150.5625 -170.140625 "/></g></g></g><path stroke-linecap="butt" transform="matrix(-0.637994, -0.0329198, 0.0329198, -0.637994, 292.645416, 347.03157)" fill="none" stroke-linejoin="miter" d="M 197.503037 124.264265 C 195.705149 126.561209 193.50656 128.805357 190.913693 131.002499 C 188.715464 132.897633 185.995861 134.893142 182.754884 136.989027 C 179.507801 139.085226 175.742224 140.981638 171.445941 142.678895 C 172.847061 140.879995 172.968586 138.963439 171.8221 136.916384 C 170.675613 134.869329 168.154426 132.997294 164.258536 131.300278 C 160.368754 129.602946 155.104465 128.203078 148.465984 127.106779 C 141.827504 126.010481 133.717205 125.461575 124.12898 125.460377 C 118.538981 125.461047 112.525463 126.034614 106.088425 127.181078 C 99.651386 128.327543 93.287732 130.302909 86.996831 133.094964 C 80.706246 135.893125 74.640641 139.61033 68.806437 144.252369 C 62.966127 148.894724 57.797273 154.684114 53.305983 161.620226 C 48.814693 168.556338 45.247625 176.791758 42.598672 186.326799 C 39.955826 195.861526 38.631676 206.865009 38.632644 219.343041 C 38.633612 231.821073 40.155578 242.806276 43.197914 252.28644 C 46.246671 261.772394 50.286306 269.933697 55.329032 276.769719 C 60.365652 283.606055 66.132973 289.296477 72.62489 293.841301 C 79.110385 298.380333 85.751706 302.023532 92.536639 304.771529 C 99.327363 307.513103 105.99006 309.434718 112.524731 310.536373 C 119.065193 311.631607 124.977605 312.183712 130.273549 312.179847 C 136.360496 312.080062 142.698797 311.630559 149.288452 310.831337 C 154.977188 310.133706 161.243126 309.112401 168.079844 307.761633 C 174.916877 306.416971 181.629859 304.448071 188.218476 301.848826 C 178.536103 309.634449 169.554618 315.577708 161.267286 319.666706 C 152.980268 323.761809 145.692201 326.807366 139.403084 328.803377 C 132.119007 331.095635 125.426638 332.396097 119.337876 332.698024 C 104.563623 332.69502 90.638749 330.523609 77.563252 326.183791 C 64.487441 321.837867 53.032071 315.553148 43.196513 307.317423 C 33.367061 299.081383 25.602127 288.969353 19.914553 276.992916 C 14.226979 265.016479 11.380778 251.387243 11.382686 236.117108 C 11.377027 226.633323 12.275665 217.825358 14.078284 209.687105 C 15.874796 201.549167 18.245226 194.09185 21.188944 187.30294 C 24.132662 180.514031 27.453945 174.397506 31.147003 168.959786 C 34.839746 163.51596 38.609264 158.729426 42.448504 154.582178 C 46.294166 150.440721 50.03983 146.9718 53.67939 144.175728 C 57.325057 141.379342 60.496342 139.238072 63.186509 137.740021 C 65.784764 136.24059 69.101494 134.544896 73.148598 132.646202 C 77.189595 130.747824 81.633619 128.828649 86.474246 126.882888 C 91.314873 124.937127 96.432181 123.013825 101.820379 121.119405 C 107.208261 119.218878 112.698769 117.527351 118.290955 116.026504 C 123.883457 114.531764 129.344213 113.331589 134.685752 112.431455 C 140.027605 111.537428 145.092298 111.086292 149.886253 111.083837 C 160.564262 111.083908 169.204877 111.587082 175.789149 112.582092 C 182.379843 113.582893 187.396212 114.805749 190.838258 116.250662 C 194.280619 117.70168 196.431998 119.170331 197.274707 120.669771 C 198.123521 122.168895 198.203597 123.364815 197.503037 124.264265 Z M 197.503037 124.264265 " stroke="#f6c376" stroke-width="23.000025" stroke-opacity="1" stroke-miterlimit="4"/><g fill="#000000" fill-opacity="1"><g transform="translate(303.508933, 136.493646)"><g><path d="M -132.765625 124.765625 C -131.546875 123.359375 -130.078125 121.992188 -128.359375 120.671875 C -126.890625 119.535156 -125.082031 118.351562 -122.9375 117.125 C -120.800781 115.894531 -118.34375 114.8125 -115.5625 113.875 C -116.488281 114.96875 -116.625 116.1875 -115.96875 117.53125 C -115.3125 118.875 -113.765625 120.148438 -111.328125 121.359375 C -108.898438 122.566406 -105.585938 123.628906 -101.390625 124.546875 C -97.191406 125.472656 -92.035156 126.09375 -85.921875 126.40625 C -82.359375 126.59375 -78.503906 126.425781 -74.359375 125.90625 C -70.222656 125.382812 -66.097656 124.332031 -61.984375 122.75 C -57.878906 121.175781 -53.890625 119.003906 -50.015625 116.234375 C -46.140625 113.460938 -42.648438 109.9375 -39.546875 105.65625 C -36.453125 101.382812 -33.90625 96.25 -31.90625 90.25 C -29.90625 84.257812 -28.695312 77.285156 -28.28125 69.328125 C -27.875 61.367188 -28.484375 54.3125 -30.109375 48.15625 C -31.742188 42.007812 -34.054688 36.671875 -37.046875 32.140625 C -40.046875 27.617188 -43.535156 23.800781 -47.515625 20.6875 C -51.503906 17.570312 -55.617188 15.023438 -59.859375 13.046875 C -64.097656 11.078125 -68.285156 9.632812 -72.421875 8.71875 C -76.566406 7.800781 -80.328125 7.257812 -83.703125 7.09375 C -87.585938 6.945312 -91.644531 7.019531 -95.875 7.3125 C -99.53125 7.5625 -103.554688 8.003906 -107.953125 8.640625 C -112.359375 9.285156 -116.707031 10.320312 -121 11.75 C -114.570312 7.101562 -108.644531 3.609375 -103.21875 1.265625 C -97.800781 -1.066406 -93.054688 -2.765625 -88.984375 -3.828125 C -84.253906 -5.054688 -79.9375 -5.660156 -76.03125 -5.640625 C -66.613281 -5.160156 -57.804688 -3.320312 -49.609375 -0.125 C -41.410156 3.070312 -34.304688 7.460938 -28.296875 13.046875 C -22.296875 18.628906 -17.675781 25.332031 -14.4375 33.15625 C -11.207031 40.988281 -9.84375 49.78125 -10.34375 59.53125 C -10.65625 65.570312 -11.519531 71.160156 -12.9375 76.296875 C -14.351562 81.429688 -16.113281 86.113281 -18.21875 90.34375 C -20.320312 94.582031 -22.640625 98.375 -25.171875 101.71875 C -27.703125 105.070312 -30.257812 108.003906 -32.84375 110.515625 C -35.4375 113.023438 -37.941406 115.113281 -40.359375 116.78125 C -42.773438 118.445312 -44.875 119.710938 -46.65625 120.578125 C -48.351562 121.453125 -50.523438 122.425781 -53.171875 123.5 C -55.816406 124.570312 -58.710938 125.648438 -61.859375 126.734375 C -65.003906 127.828125 -68.328125 128.882812 -71.828125 129.90625 C -75.335938 130.9375 -78.898438 131.835938 -82.515625 132.609375 C -86.128906 133.378906 -89.648438 133.960938 -93.078125 134.359375 C -96.515625 134.753906 -99.765625 134.875 -102.828125 134.71875 C -109.640625 134.363281 -115.128906 133.757812 -119.296875 132.90625 C -123.472656 132.0625 -126.632812 131.117188 -128.78125 130.078125 C -130.9375 129.035156 -132.257812 128.023438 -132.75 127.046875 C -133.238281 126.078125 -133.242188 125.316406 -132.765625 124.765625 Z M -132.765625 124.765625 "/></g></g></g></svg>