<svg xmlns="http://www.w3.org/2000/svg" xmlns:xlink="http://www.w3.org/1999/xlink" width="500" zoomAndPan="magnify" viewBox="0 0 375 374.999991" height="500" preserveAspectRatio="xMidYMid meet" version="1.0"><defs><g/><clipPath id="d10a991e10"><path d="M 63.976562 206.894531 L 305.714844 206.894531 L 305.714844 234.582031 L 63.976562 234.582031 Z M 63.976562 206.894531 " clip-rule="nonzero"/></clipPath><clipPath id="1ede4f7dd5"><path d="M 77.824219 206.894531 L 291.792969 206.894531 C 295.464844 206.894531 298.984375 208.351562 301.582031 210.949219 C 304.179688 213.546875 305.636719 217.066406 305.636719 220.738281 C 305.636719 224.410156 304.179688 227.929688 301.582031 230.527344 C 298.984375 233.125 295.464844 234.582031 291.792969 234.582031 L 77.824219 234.582031 C 74.152344 234.582031 70.628906 233.125 68.03125 230.527344 C 65.4375 227.929688 63.976562 224.410156 63.976562 220.738281 C 63.976562 217.066406 65.4375 213.546875 68.03125 210.949219 C 70.628906 208.351562 74.152344 206.894531 77.824219 206.894531 Z M 77.824219 206.894531 " clip-rule="nonzero"/></clipPath></defs><path stroke-linecap="butt" transform="matrix(0.796004, -0.0323475, 0.0323475, 0.796004, 89.756372, 23.125813)" fill="none" stroke-linejoin="miter" d="M 197.5021 124.259861 C 195.705904 126.557107 193.509365 128.803733 190.912481 130.999738 C 188.715379 132.897921 185.999079 134.892781 182.753584 136.988818 C 179.508089 139.084856 175.740643 140.983019 171.446548 142.67821 C 172.844399 140.884953 172.971634 138.961544 171.823156 136.912684 C 170.674478 134.868723 168.154655 132.99478 164.258388 131.300453 C 160.36722 129.601426 155.099531 128.204695 148.465318 127.105761 C 141.826007 126.011526 133.716933 125.461165 124.132998 125.459378 C 118.54361 125.457978 112.528395 126.033059 106.087552 127.179723 C 99.651409 128.331485 93.285101 130.300701 86.998028 133.097568 C 80.706254 135.889336 74.641809 139.608013 68.804693 144.253597 C 62.962876 148.894084 57.800555 154.68596 53.308128 161.62393 C 48.815901 168.557001 45.247256 176.793693 42.602392 186.329109 C 39.952828 195.859426 38.632011 206.866864 38.630342 219.346126 C 38.633771 231.820688 40.155385 242.801323 43.200083 252.288229 C 46.244981 261.770236 50.285879 269.928482 55.327478 276.768064 C 60.369077 283.607646 66.134552 289.298886 72.624103 293.836885 C 79.108556 298.379584 85.747224 302.025602 92.535405 304.76984 C 99.323587 307.514079 105.988242 309.433774 112.52917 310.533826 C 119.065199 311.633678 124.980731 312.183231 130.270867 312.182285 C 136.360055 312.081314 142.698939 311.632254 149.287521 310.835107 C 154.979066 310.134004 161.24306 309.112651 168.079703 307.766149 C 174.916545 306.414748 181.631296 304.44497 188.219257 301.851716 C 178.534929 309.633776 169.553558 315.574711 161.265543 319.669223 C 152.982627 323.759036 145.694162 326.804741 139.405246 328.801639 C 132.117846 331.096566 125.43037 332.395149 119.337919 332.697189 C 104.566932 332.695629 90.639818 330.524973 77.561678 326.18052 C 64.488237 321.841165 53.030084 315.55054 43.196818 307.313943 C 33.368451 299.077545 25.603513 288.971883 19.916901 276.992656 C 14.22539 265.013229 11.378319 251.387664 11.38059 236.116157 C 11.378395 226.630207 12.276074 217.823685 14.074026 209.686793 C 15.871978 201.5499 18.241158 194.088895 21.186663 187.299078 C 24.13197 180.514159 27.452534 174.397165 31.143059 168.957694 C 34.838483 163.518422 38.605811 158.724931 42.449743 154.582321 C 46.293675 150.43971 50.036644 146.970208 53.67845 144.178713 C 57.325355 141.382518 60.494453 139.234302 63.190445 137.739165 C 65.783554 136.239846 69.101109 134.54423 73.148209 132.647617 C 77.19041 130.750804 81.631042 128.830924 86.470303 126.883077 C 91.314464 124.935429 96.432385 123.013629 101.819166 121.117476 C 107.210846 119.221522 112.702346 117.525917 118.293865 116.025763 C 123.880285 114.530308 129.346778 113.329328 134.688045 112.432419 C 140.029313 111.535511 145.092405 111.08368 149.886723 111.087123 C 160.565178 111.084315 169.201457 111.58249 175.790659 112.581449 C 182.379861 113.580408 187.394461 114.804912 190.839557 116.25026 C 194.284454 117.700508 196.428066 119.171484 197.279995 120.668488 C 198.127024 122.165292 198.200926 123.365682 197.5021 124.259861 Z M 197.5021 124.259861 " stroke="#ffffff" stroke-width="23.000025" stroke-opacity="1" stroke-miterlimit="4"/><g fill="#000000" fill-opacity="1"><g transform="translate(100.431038, 285.807057)"><g><path d="M 150.5625 -170.140625 C 149.195312 -168.253906 147.519531 -166.394531 145.53125 -164.5625 C 143.84375 -162.988281 141.738281 -161.3125 139.21875 -159.53125 C 136.707031 -157.757812 133.769531 -156.128906 130.40625 -154.640625 C 131.46875 -156.117188 131.507812 -157.65625 130.53125 -159.25 C 129.550781 -160.84375 127.476562 -162.25 124.3125 -163.46875 C 121.15625 -164.6875 116.921875 -165.625 111.609375 -166.28125 C 106.296875 -166.945312 99.828125 -167.125 92.203125 -166.8125 C 87.742188 -166.632812 82.96875 -165.984375 77.875 -164.859375 C 72.789062 -163.742188 67.789062 -161.972656 62.875 -159.546875 C 57.96875 -157.117188 53.257812 -153.957031 48.75 -150.0625 C 44.25 -146.175781 40.320312 -141.398438 36.96875 -135.734375 C 33.625 -130.066406 31.050781 -123.394531 29.25 -115.71875 C 27.457031 -108.050781 26.765625 -99.253906 27.171875 -89.328125 C 27.578125 -79.390625 29.144531 -70.695312 31.875 -63.25 C 34.601562 -55.800781 38.082031 -49.4375 42.3125 -44.15625 C 46.539062 -38.875 51.3125 -34.53125 56.625 -31.125 C 61.9375 -27.71875 67.335938 -25.03125 72.828125 -23.0625 C 78.328125 -21.101562 83.695312 -19.789062 88.9375 -19.125 C 94.175781 -18.457031 98.898438 -18.210938 103.109375 -18.390625 C 107.960938 -18.671875 112.992188 -19.234375 118.203125 -20.078125 C 122.710938 -20.828125 127.664062 -21.847656 133.0625 -23.140625 C 138.457031 -24.429688 143.738281 -26.21875 148.90625 -28.5 C 141.457031 -21.988281 134.5 -16.96875 128.03125 -13.4375 C 121.5625 -9.914062 115.863281 -7.257812 110.9375 -5.46875 C 105.207031 -3.394531 99.925781 -2.144531 95.09375 -1.71875 C 83.332031 -1.238281 72.175781 -2.515625 61.625 -5.546875 C 51.070312 -8.585938 41.75 -13.222656 33.65625 -19.453125 C 25.5625 -25.691406 19.054688 -33.488281 14.140625 -42.84375 C 9.222656 -52.195312 6.519531 -62.953125 6.03125 -75.109375 C 5.71875 -82.648438 6.144531 -89.6875 7.3125 -96.21875 C 8.476562 -102.75 10.117188 -108.765625 12.234375 -114.265625 C 14.359375 -119.765625 16.800781 -124.738281 19.5625 -129.1875 C 22.332031 -133.644531 25.179688 -137.582031 28.109375 -141 C 31.035156 -144.414062 33.90625 -147.296875 36.71875 -149.640625 C 39.53125 -151.984375 41.984375 -153.796875 44.078125 -155.078125 C 46.085938 -156.359375 48.675781 -157.816406 51.84375 -159.453125 C 55.007812 -161.085938 58.484375 -162.757812 62.265625 -164.46875 C 66.046875 -166.175781 70.050781 -167.875 74.28125 -169.5625 C 78.519531 -171.25 82.835938 -172.773438 87.234375 -174.140625 C 91.640625 -175.515625 95.953125 -176.644531 100.171875 -177.53125 C 104.390625 -178.414062 108.410156 -178.9375 112.234375 -179.09375 C 120.734375 -179.4375 127.617188 -179.316406 132.890625 -178.734375 C 138.171875 -178.160156 142.203125 -177.351562 144.984375 -176.3125 C 147.773438 -175.269531 149.53125 -174.164062 150.25 -173 C 150.976562 -171.832031 151.082031 -170.878906 150.5625 -170.140625 Z M 150.5625 -170.140625 "/></g></g></g><path stroke-linecap="butt" transform="matrix(-0.637994, -0.0329198, 0.0329198, -0.637994, 292.645416, 347.03157)" fill="none" stroke-linejoin="miter" d="M 197.503037 124.264265 C 195.705149 126.561209 193.50656 128.805357 190.913693 131.002499 C 188.715464 132.897633 185.995861 134.893142 182.754884 136.989027 C 179.507801 139.085226 175.742224 140.981638 171.445941 142.678895 C 172.847061 140.879995 172.968586 138.963439 171.8221 136.916384 C 170.675613 134.869329 168.154426 132.997294 164.258536 131.300278 C 160.368754 129.602946 155.104465 128.203078 148.465984 127.106779 C 141.827504 126.010481 133.717205 125.461575 124.12898 125.460377 C 118.538981 125.461047 112.525463 126.034614 106.088425 127.181078 C 99.651386 128.327543 93.287732 130.302909 86.996831 133.094964 C 80.706246 135.893125 74.640641 139.61033 68.806437 144.252369 C 62.966127 148.894724 57.797273 154.684114 53.305983 161.620226 C 48.814693 168.556338 45.247625 176.791758 42.598672 186.326799 C 39.955826 195.861526 38.631676 206.865009 38.632644 219.343041 C 38.633612 231.821073 40.155578 242.806276 43.197914 252.28644 C 46.246671 261.772394 50.286306 269.933697 55.329032 276.769719 C 60.365652 283.606055 66.132973 289.296477 72.62489 293.841301 C 79.110385 298.380333 85.751706 302.023532 92.536639 304.771529 C 99.327363 307.513103 105.99006 309.434718 112.524731 310.536373 C 119.065193 311.631607 124.977605 312.183712 130.273549 312.179847 C 136.360496 312.080062 142.698797 311.630559 149.288452 310.831337 C 154.977188 310.133706 161.243126 309.112401 168.079844 307.761633 C 174.916877 306.416971 181.629859 304.448071 188.218476 301.848826 C 178.536103 309.634449 169.554618 315.577708 161.267286 319.666706 C 152.980268 323.761809 145.692201 326.807366 139.403084 328.803377 C 132.119007 331.095635 125.426638 332.396097 119.337876 332.698024 C 104.563623 332.69502 90.638749 330.523609 77.563252 326.183791 C 64.487441 321.837867 53.032071 315.553148 43.196513 307.317423 C 33.367061 299.081383 25.602127 288.969353 19.914553 276.992916 C 14.226979 265.016479 11.380778 251.387243 11.382686 236.117108 C 11.377027 226.633323 12.275665 217.825358 14.078284 209.687105 C 15.874796 201.549167 18.245226 194.09185 21.188944 187.30294 C 24.132662 180.514031 27.453945 174.397506 31.147003 168.959786 C 34.839746 163.51596 38.609264 158.729426 42.448504 154.582178 C 46.294166 150.440721 50.03983 146.9718 53.67939 144.175728 C 57.325057 141.379342 60.496342 139.238072 63.186509 137.740021 C 65.784764 136.24059 69.101494 134.544896 73.148598 132.646202 C 77.189595 130.747824 81.633619 128.828649 86.474246 126.882888 C 91.314873 124.937127 96.432181 123.013825 101.820379 121.119405 C 107.208261 119.218878 112.698769 117.527351 118.290955 116.026504 C 123.883457 114.531764 129.344213 113.331589 134.685752 112.431455 C 140.027605 111.537428 145.092298 111.086292 149.886253 111.083837 C 160.564262 111.083908 169.204877 111.587082 175.789149 112.582092 C 182.379843 113.582893 187.396212 114.805749 190.838258 116.250662 C 194.280619 117.70168 196.431998 119.170331 197.274707 120.669771 C 198.123521 122.168895 198.203597 123.364815 197.503037 124.264265 Z M 197.503037 124.264265 " stroke="#ffffff" stroke-width="23.000025" stroke-opacity="1" stroke-miterlimit="4"/><g fill="#000000" fill-opacity="1"><g transform="translate(303.508933, 136.493646)"><g><path d="M -132.765625 124.765625 C -131.546875 123.359375 -130.078125 121.992188 -128.359375 120.671875 C -126.890625 119.535156 -125.082031 118.351562 -122.9375 117.125 C -120.800781 115.894531 -118.34375 114.8125 -115.5625 113.875 C -116.488281 114.96875 -116.625 116.1875 -115.96875 117.53125 C -115.3125 118.875 -113.765625 120.148438 -111.328125 121.359375 C -108.898438 122.566406 -105.585938 123.628906 -101.390625 124.546875 C -97.191406 125.472656 -92.035156 126.09375 -85.921875 126.40625 C -82.359375 126.59375 -78.503906 126.425781 -74.359375 125.90625 C -70.222656 125.382812 -66.097656 124.332031 -61.984375 122.75 C -57.878906 121.175781 -53.890625 119.003906 -50.015625 116.234375 C -46.140625 113.460938 -42.648438 109.9375 -39.546875 105.65625 C -36.453125 101.382812 -33.90625 96.25 -31.90625 90.25 C -29.90625 84.257812 -28.695312 77.285156 -28.28125 69.328125 C -27.875 61.367188 -28.484375 54.3125 -30.109375 48.15625 C -31.742188 42.007812 -34.054688 36.671875 -37.046875 32.140625 C -40.046875 27.617188 -43.535156 23.800781 -47.515625 20.6875 C -51.503906 17.570312 -55.617188 15.023438 -59.859375 13.046875 C -64.097656 11.078125 -68.285156 9.632812 -72.421875 8.71875 C -76.566406 7.800781 -80.328125 7.257812 -83.703125 7.09375 C -87.585938 6.945312 -91.644531 7.019531 -95.875 7.3125 C -99.53125 7.5625 -103.554688 8.003906 -107.953125 8.640625 C -112.359375 9.285156 -116.707031 10.320312 -121 11.75 C -114.570312 7.101562 -108.644531 3.609375 -103.21875 1.265625 C -97.800781 -1.066406 -93.054688 -2.765625 -88.984375 -3.828125 C -84.253906 -5.054688 -79.9375 -5.660156 -76.03125 -5.640625 C -66.613281 -5.160156 -57.804688 -3.320312 -49.609375 -0.125 C -41.410156 3.070312 -34.304688 7.460938 -28.296875 13.046875 C -22.296875 18.628906 -17.675781 25.332031 -14.4375 33.15625 C -11.207031 40.988281 -9.84375 49.78125 -10.34375 59.53125 C -10.65625 65.570312 -11.519531 71.160156 -12.9375 76.296875 C -14.351562 81.429688 -16.113281 86.113281 -18.21875 90.34375 C -20.320312 94.582031 -22.640625 98.375 -25.171875 101.71875 C -27.703125 105.070312 -30.257812 108.003906 -32.84375 110.515625 C -35.4375 113.023438 -37.941406 115.113281 -40.359375 116.78125 C -42.773438 118.445312 -44.875 119.710938 -46.65625 120.578125 C -48.351562 121.453125 -50.523438 122.425781 -53.171875 123.5 C -55.816406 124.570312 -58.710938 125.648438 -61.859375 126.734375 C -65.003906 127.828125 -68.328125 128.882812 -71.828125 129.90625 C -75.335938 130.9375 -78.898438 131.835938 -82.515625 132.609375 C -86.128906 133.378906 -89.648438 133.960938 -93.078125 134.359375 C -96.515625 134.753906 -99.765625 134.875 -102.828125 134.71875 C -109.640625 134.363281 -115.128906 133.757812 -119.296875 132.90625 C -123.472656 132.0625 -126.632812 131.117188 -128.78125 130.078125 C -130.9375 129.035156 -132.257812 128.023438 -132.75 127.046875 C -133.238281 126.078125 -133.242188 125.316406 -132.765625 124.765625 Z M -132.765625 124.765625 "/></g></g></g><g clip-path="url(#d10a991e10)"><g clip-path="url(#1ede4f7dd5)"><path fill="#ffffff" d="M 63.976562 206.894531 L 305.605469 206.894531 L 305.605469 234.582031 L 63.976562 234.582031 Z M 63.976562 206.894531 " fill-opacity="1" fill-rule="nonzero"/></g></g><g fill="#000000" fill-opacity="1"><g transform="translate(104.447161, 226.85103)"><g><path d="M 14.078125 -14.671875 C 13.953125 -14.503906 13.796875 -14.34375 13.609375 -14.1875 C 13.453125 -14.050781 13.257812 -13.90625 13.03125 -13.75 C 12.800781 -13.601562 12.53125 -13.472656 12.21875 -13.359375 C 12.320312 -13.484375 12.332031 -13.617188 12.25 -13.765625 C 12.164062 -13.910156 11.984375 -14.039062 11.703125 -14.15625 C 11.429688 -14.28125 11.054688 -14.378906 10.578125 -14.453125 C 10.109375 -14.535156 9.53125 -14.578125 8.84375 -14.578125 C 8.445312 -14.578125 8.019531 -14.535156 7.5625 -14.453125 C 7.101562 -14.367188 6.648438 -14.226562 6.203125 -14.03125 C 5.753906 -13.832031 5.320312 -13.566406 4.90625 -13.234375 C 4.488281 -12.910156 4.117188 -12.5 3.796875 -12 C 3.472656 -11.507812 3.21875 -10.921875 3.03125 -10.234375 C 2.84375 -9.554688 2.75 -8.773438 2.75 -7.890625 C 2.75 -6.992188 2.859375 -6.207031 3.078125 -5.53125 C 3.296875 -4.863281 3.582031 -4.285156 3.9375 -3.796875 C 4.300781 -3.304688 4.710938 -2.898438 5.171875 -2.578125 C 5.640625 -2.253906 6.113281 -1.992188 6.59375 -1.796875 C 7.082031 -1.597656 7.554688 -1.457031 8.015625 -1.375 C 8.484375 -1.300781 8.90625 -1.265625 9.28125 -1.265625 C 9.71875 -1.273438 10.171875 -1.304688 10.640625 -1.359375 C 11.046875 -1.410156 11.492188 -1.484375 11.984375 -1.578125 C 12.472656 -1.679688 12.953125 -1.820312 13.421875 -2 C 12.722656 -1.445312 12.078125 -1.023438 11.484375 -0.734375 C 10.898438 -0.441406 10.382812 -0.222656 9.9375 -0.078125 C 9.414062 0.078125 8.9375 0.164062 8.5 0.1875 C 7.445312 0.1875 6.453125 0.0351562 5.515625 -0.265625 C 4.585938 -0.578125 3.773438 -1.023438 3.078125 -1.609375 C 2.378906 -2.203125 1.828125 -2.925781 1.421875 -3.78125 C 1.015625 -4.632812 0.8125 -5.601562 0.8125 -6.6875 C 0.8125 -7.363281 0.875 -7.992188 1 -8.578125 C 1.132812 -9.160156 1.304688 -9.691406 1.515625 -10.171875 C 1.722656 -10.648438 1.957031 -11.082031 2.21875 -11.46875 C 2.476562 -11.863281 2.742188 -12.207031 3.015625 -12.5 C 3.296875 -12.800781 3.566406 -13.050781 3.828125 -13.25 C 4.085938 -13.445312 4.3125 -13.597656 4.5 -13.703125 C 4.6875 -13.804688 4.921875 -13.925781 5.203125 -14.0625 C 5.492188 -14.195312 5.8125 -14.332031 6.15625 -14.46875 C 6.507812 -14.613281 6.875 -14.753906 7.25 -14.890625 C 7.632812 -15.023438 8.023438 -15.144531 8.421875 -15.25 C 8.828125 -15.351562 9.21875 -15.4375 9.59375 -15.5 C 9.976562 -15.570312 10.34375 -15.609375 10.6875 -15.609375 C 11.445312 -15.609375 12.0625 -15.570312 12.53125 -15.5 C 13 -15.425781 13.351562 -15.335938 13.59375 -15.234375 C 13.84375 -15.128906 14 -15.023438 14.0625 -14.921875 C 14.125 -14.816406 14.128906 -14.734375 14.078125 -14.671875 Z M 14.078125 -14.671875 "/></g></g></g><g fill="#000000" fill-opacity="1"><g transform="translate(120.316663, 226.85103)"><g><path d="M 4.265625 -1.109375 C 3.878906 -0.898438 3.515625 -0.722656 3.171875 -0.578125 C 2.828125 -0.429688 2.503906 -0.316406 2.203125 -0.234375 C 1.910156 -0.148438 1.644531 -0.0859375 1.40625 -0.046875 C 1.164062 -0.015625 0.960938 0 0.796875 0 L -0.8125 0 L 0.359375 -0.65625 C 0.472656 -0.8125 0.585938 -0.96875 0.703125 -1.125 C 0.816406 -1.28125 0.914062 -1.425781 1 -1.5625 C 1.082031 -1.707031 1.164062 -1.851562 1.25 -2 C 1.46875 -2.445312 1.796875 -3.175781 2.234375 -4.1875 C 2.410156 -4.613281 2.617188 -5.117188 2.859375 -5.703125 C 3.109375 -6.296875 3.390625 -6.984375 3.703125 -7.765625 C 4.023438 -8.546875 4.382812 -9.4375 4.78125 -10.4375 C 5.175781 -11.4375 5.613281 -12.554688 6.09375 -13.796875 L 7.953125 -15.5 L 12.140625 -1.3125 C 12.429688 -1.238281 12.710938 -1.1875 12.984375 -1.15625 C 13.265625 -1.132812 13.523438 -1.125 13.765625 -1.125 C 13.898438 -1.125 14.019531 -1.125 14.125 -1.125 C 14.226562 -1.132812 14.320312 -1.144531 14.40625 -1.15625 C 14.488281 -1.15625 14.566406 -1.164062 14.640625 -1.1875 C 14.234375 -0.988281 13.875 -0.816406 13.5625 -0.671875 C 13.257812 -0.523438 12.988281 -0.398438 12.75 -0.296875 C 12.507812 -0.203125 12.285156 -0.128906 12.078125 -0.078125 C 11.878906 -0.0234375 11.675781 0 11.46875 0 L 9.765625 0 L 10.328125 -0.359375 L 8.609375 -6.015625 C 8.398438 -5.953125 8.160156 -5.894531 7.890625 -5.84375 C 7.628906 -5.789062 7.3125 -5.742188 6.9375 -5.703125 C 6.5625 -5.660156 6.125 -5.617188 5.625 -5.578125 C 5.132812 -5.546875 4.566406 -5.515625 3.921875 -5.484375 C 3.617188 -4.847656 3.34375 -4.285156 3.09375 -3.796875 C 2.84375 -3.304688 2.617188 -2.878906 2.421875 -2.515625 C 2.222656 -2.148438 2.046875 -1.84375 1.890625 -1.59375 C 1.742188 -1.351562 1.613281 -1.15625 1.5 -1 C 1.625 -0.976562 1.757812 -0.960938 1.90625 -0.953125 C 2.0625 -0.941406 2.210938 -0.9375 2.359375 -0.9375 C 2.585938 -0.9375 2.8125 -0.945312 3.03125 -0.96875 C 3.257812 -0.988281 3.46875 -1.007812 3.65625 -1.03125 C 3.863281 -1.050781 4.066406 -1.078125 4.265625 -1.109375 Z M 5.75 -6.75 C 6.707031 -6.75 7.582031 -6.773438 8.375 -6.828125 L 6.734375 -12.25 C 6.296875 -11.113281 5.890625 -10.097656 5.515625 -9.203125 C 5.148438 -8.316406 4.804688 -7.5 4.484375 -6.75 Z M 5.75 -6.75 "/></g></g></g><g fill="#000000" fill-opacity="1"><g transform="translate(135.929967, 226.85103)"><g><path d="M 11.390625 -11.453125 C 11.328125 -10.921875 11.179688 -10.453125 10.953125 -10.046875 C 10.734375 -9.648438 10.460938 -9.296875 10.140625 -8.984375 C 9.816406 -8.679688 9.472656 -8.421875 9.109375 -8.203125 C 8.742188 -7.992188 8.394531 -7.816406 8.0625 -7.671875 C 8.695312 -6.992188 9.265625 -6.390625 9.765625 -5.859375 C 10.265625 -5.335938 10.707031 -4.875 11.09375 -4.46875 C 11.488281 -4.0625 11.828125 -3.710938 12.109375 -3.421875 C 12.398438 -3.128906 12.648438 -2.878906 12.859375 -2.671875 C 13.347656 -2.203125 13.6875 -1.890625 13.875 -1.734375 C 14.070312 -1.578125 14.285156 -1.46875 14.515625 -1.40625 C 14.753906 -1.34375 14.984375 -1.3125 15.203125 -1.3125 C 15.390625 -1.3125 15.566406 -1.328125 15.734375 -1.359375 C 15.910156 -1.398438 16.050781 -1.441406 16.15625 -1.484375 C 15.8125 -1.253906 15.507812 -1.046875 15.25 -0.859375 C 14.988281 -0.679688 14.75 -0.523438 14.53125 -0.390625 C 14.3125 -0.253906 14.101562 -0.148438 13.90625 -0.078125 C 13.71875 -0.015625 13.519531 0.015625 13.3125 0.015625 C 13.164062 0.015625 13.023438 -0.00390625 12.890625 -0.046875 C 12.753906 -0.0859375 12.609375 -0.15625 12.453125 -0.25 C 12.296875 -0.34375 12.128906 -0.457031 11.953125 -0.59375 C 11.785156 -0.738281 11.597656 -0.910156 11.390625 -1.109375 C 11.253906 -1.242188 11.050781 -1.460938 10.78125 -1.765625 C 10.507812 -2.066406 10.207031 -2.40625 9.875 -2.78125 C 9.539062 -3.15625 9.191406 -3.546875 8.828125 -3.953125 C 8.460938 -4.359375 8.117188 -4.734375 7.796875 -5.078125 C 7.484375 -5.421875 7.203125 -5.71875 6.953125 -5.96875 C 6.703125 -6.21875 6.535156 -6.367188 6.453125 -6.421875 C 6.335938 -6.484375 6.222656 -6.539062 6.109375 -6.59375 C 6.003906 -6.632812 5.882812 -6.671875 5.75 -6.703125 C 5.625 -6.734375 5.5 -6.742188 5.375 -6.734375 L 6.921875 -7.796875 C 7.273438 -7.796875 7.613281 -7.878906 7.9375 -8.046875 C 8.269531 -8.210938 8.550781 -8.453125 8.78125 -8.765625 C 9.019531 -9.085938 9.207031 -9.472656 9.34375 -9.921875 C 9.476562 -10.378906 9.535156 -10.894531 9.515625 -11.46875 C 9.492188 -11.8125 9.414062 -12.125 9.28125 -12.40625 C 9.144531 -12.6875 8.96875 -12.9375 8.75 -13.15625 C 8.53125 -13.375 8.28125 -13.566406 8 -13.734375 C 7.726562 -13.898438 7.445312 -14.035156 7.15625 -14.140625 C 6.863281 -14.253906 6.570312 -14.335938 6.28125 -14.390625 C 5.988281 -14.441406 5.722656 -14.46875 5.484375 -14.46875 C 5.316406 -14.46875 5.140625 -14.460938 4.953125 -14.453125 C 4.765625 -14.453125 4.570312 -14.453125 4.375 -14.453125 C 4.351562 -13.117188 4.328125 -11.925781 4.296875 -10.875 C 4.273438 -9.832031 4.253906 -8.90625 4.234375 -8.09375 C 4.210938 -7.289062 4.191406 -6.59375 4.171875 -6 C 4.160156 -5.414062 4.144531 -4.914062 4.125 -4.5 C 4.082031 -3.53125 4.039062 -2.878906 4 -2.546875 C 3.976562 -2.398438 3.941406 -2.253906 3.890625 -2.109375 C 3.847656 -1.972656 3.789062 -1.832031 3.71875 -1.6875 C 3.644531 -1.539062 3.550781 -1.394531 3.4375 -1.25 C 3.738281 -1.21875 4.007812 -1.195312 4.25 -1.1875 C 4.5 -1.1875 4.726562 -1.1875 4.9375 -1.1875 C 5.425781 -1.1875 5.785156 -1.195312 6.015625 -1.21875 C 6.253906 -1.25 6.390625 -1.273438 6.421875 -1.296875 C 6.054688 -1.109375 5.707031 -0.9375 5.375 -0.78125 C 5.050781 -0.625 4.738281 -0.484375 4.4375 -0.359375 C 4.132812 -0.242188 3.847656 -0.148438 3.578125 -0.078125 C 3.304688 -0.015625 3.039062 0.015625 2.78125 0.015625 L 0.921875 0.015625 L 1.859375 -0.609375 C 1.910156 -0.796875 1.957031 -1.015625 2 -1.265625 C 2.050781 -1.523438 2.09375 -1.800781 2.125 -2.09375 C 2.15625 -2.394531 2.179688 -2.703125 2.203125 -3.015625 C 2.234375 -3.328125 2.257812 -3.640625 2.28125 -3.953125 C 2.320312 -4.648438 2.351562 -5.394531 2.375 -6.1875 C 2.394531 -7.28125 2.410156 -8.332031 2.421875 -9.34375 C 2.429688 -9.78125 2.4375 -10.226562 2.4375 -10.6875 C 2.445312 -11.144531 2.453125 -11.59375 2.453125 -12.03125 C 2.460938 -12.46875 2.46875 -12.882812 2.46875 -13.28125 C 2.476562 -13.675781 2.484375 -14.023438 2.484375 -14.328125 L 0.5625 -14.1875 L 2.640625 -15.4375 C 2.765625 -15.414062 2.898438 -15.398438 3.046875 -15.390625 C 3.191406 -15.390625 3.34375 -15.390625 3.5 -15.390625 C 3.800781 -15.390625 4.101562 -15.398438 4.40625 -15.421875 C 4.707031 -15.453125 5.003906 -15.484375 5.296875 -15.515625 C 5.597656 -15.546875 5.890625 -15.570312 6.171875 -15.59375 C 6.453125 -15.625 6.738281 -15.640625 7.03125 -15.640625 C 7.601562 -15.640625 8.160156 -15.546875 8.703125 -15.359375 C 9.253906 -15.171875 9.738281 -14.894531 10.15625 -14.53125 C 10.570312 -14.164062 10.894531 -13.722656 11.125 -13.203125 C 11.363281 -12.679688 11.453125 -12.097656 11.390625 -11.453125 Z M 16.1875 -1.5 C 16.164062 -1.5 16.15625 -1.5 16.15625 -1.5 L 16.15625 -1.484375 L 16.15625 -1.5 C 16.164062 -1.5 16.175781 -1.5 16.1875 -1.5 Z M 16.1875 -1.5 "/></g></g></g><g fill="#000000" fill-opacity="1"><g transform="translate(152.301191, 226.85103)"><g><path d="M 9.375 -8.375 C 9.3125 -8.34375 9.21875 -8.285156 9.09375 -8.203125 C 8.976562 -8.128906 8.816406 -8.023438 8.609375 -7.890625 C 8.398438 -7.753906 8.125 -7.566406 7.78125 -7.328125 C 7.832031 -7.429688 7.828125 -7.507812 7.765625 -7.5625 C 7.710938 -7.625 7.632812 -7.664062 7.53125 -7.6875 C 7.414062 -7.71875 7.273438 -7.726562 7.109375 -7.71875 C 6.847656 -7.695312 6.476562 -7.671875 6 -7.640625 C 5.519531 -7.609375 4.976562 -7.582031 4.375 -7.5625 C 4.375 -6.425781 4.363281 -5.5 4.34375 -4.78125 C 4.332031 -4.070312 4.328125 -3.515625 4.328125 -3.109375 C 4.304688 -2.640625 4.289062 -2.296875 4.28125 -2.078125 C 4.269531 -1.941406 4.226562 -1.804688 4.15625 -1.671875 C 4.09375 -1.546875 4 -1.414062 3.875 -1.28125 C 3.75 -1.144531 3.578125 -1.023438 3.359375 -0.921875 L 8.203125 -0.921875 C 8.421875 -0.921875 8.648438 -0.929688 8.890625 -0.953125 C 9.085938 -0.984375 9.300781 -1.019531 9.53125 -1.0625 C 9.757812 -1.113281 9.976562 -1.191406 10.1875 -1.296875 C 9.832031 -0.960938 9.476562 -0.703125 9.125 -0.515625 C 8.78125 -0.335938 8.460938 -0.210938 8.171875 -0.140625 C 7.828125 -0.046875 7.5 0.00390625 7.1875 0.015625 C 6.488281 0.015625 5.832031 0.0195312 5.21875 0.03125 C 4.601562 0.0390625 4.046875 0.0546875 3.546875 0.078125 C 3.046875 0.0976562 2.617188 0.125 2.265625 0.15625 C 1.910156 0.1875 1.65625 0.222656 1.5 0.265625 C 1.71875 0.046875 1.890625 -0.164062 2.015625 -0.375 C 2.140625 -0.59375 2.234375 -0.832031 2.296875 -1.09375 C 2.367188 -1.363281 2.410156 -1.660156 2.421875 -1.984375 C 2.441406 -2.316406 2.445312 -2.710938 2.4375 -3.171875 L 2.4375 -7.546875 C 2.238281 -7.546875 2.039062 -7.546875 1.84375 -7.546875 C 1.644531 -7.554688 1.453125 -7.570312 1.265625 -7.59375 L 2.4375 -8.203125 C 2.4375 -8.585938 2.4375 -8.988281 2.4375 -9.40625 C 2.4375 -9.832031 2.4375 -10.285156 2.4375 -10.765625 C 2.4375 -11.253906 2.429688 -11.773438 2.421875 -12.328125 C 2.421875 -12.890625 2.421875 -13.5 2.421875 -14.15625 C 2.097656 -14.15625 1.796875 -14.160156 1.515625 -14.171875 C 1.234375 -14.179688 0.96875 -14.191406 0.71875 -14.203125 L 2.71875 -15.265625 C 4.0625 -15.265625 5.210938 -15.269531 6.171875 -15.28125 C 7.128906 -15.300781 7.921875 -15.320312 8.546875 -15.34375 C 9.273438 -15.375 9.878906 -15.40625 10.359375 -15.4375 C 10.609375 -15.4375 10.769531 -15.414062 10.84375 -15.375 C 10.925781 -15.332031 10.957031 -15.285156 10.9375 -15.234375 C 10.925781 -15.191406 10.882812 -15.144531 10.8125 -15.09375 C 10.738281 -15.050781 10.675781 -15.019531 10.625 -15 C 10.5625 -14.96875 10.453125 -14.90625 10.296875 -14.8125 C 10.160156 -14.738281 9.96875 -14.617188 9.71875 -14.453125 C 9.476562 -14.285156 9.144531 -14.054688 8.71875 -13.765625 C 8.863281 -13.921875 8.925781 -14.035156 8.90625 -14.109375 C 8.882812 -14.191406 8.832031 -14.25 8.75 -14.28125 C 8.65625 -14.3125 8.53125 -14.328125 8.375 -14.328125 C 8.238281 -14.316406 8.035156 -14.304688 7.765625 -14.296875 C 7.492188 -14.285156 7.175781 -14.269531 6.8125 -14.25 C 6.457031 -14.238281 6.066406 -14.226562 5.640625 -14.21875 C 5.222656 -14.207031 4.796875 -14.195312 4.359375 -14.1875 C 4.359375 -13.050781 4.359375 -12.03125 4.359375 -11.125 C 4.367188 -10.21875 4.375 -9.390625 4.375 -8.640625 C 5.101562 -8.640625 5.753906 -8.648438 6.328125 -8.671875 C 6.910156 -8.691406 7.410156 -8.710938 7.828125 -8.734375 C 8.304688 -8.765625 8.734375 -8.789062 9.109375 -8.8125 C 9.347656 -8.8125 9.503906 -8.789062 9.578125 -8.75 C 9.660156 -8.71875 9.691406 -8.675781 9.671875 -8.625 C 9.660156 -8.582031 9.617188 -8.535156 9.546875 -8.484375 C 9.484375 -8.429688 9.425781 -8.394531 9.375 -8.375 Z M 9.375 -8.375 "/></g></g></g><g fill="#000000" fill-opacity="1"><g transform="translate(165.117658, 226.85103)"><g><path d="M 9.375 -8.375 C 9.3125 -8.34375 9.21875 -8.285156 9.09375 -8.203125 C 8.976562 -8.128906 8.816406 -8.023438 8.609375 -7.890625 C 8.398438 -7.753906 8.125 -7.566406 7.78125 -7.328125 C 7.832031 -7.429688 7.828125 -7.507812 7.765625 -7.5625 C 7.710938 -7.625 7.632812 -7.664062 7.53125 -7.6875 C 7.414062 -7.71875 7.273438 -7.726562 7.109375 -7.71875 C 6.847656 -7.695312 6.476562 -7.671875 6 -7.640625 C 5.519531 -7.609375 4.976562 -7.582031 4.375 -7.5625 C 4.375 -6.425781 4.363281 -5.5 4.34375 -4.78125 C 4.332031 -4.070312 4.328125 -3.515625 4.328125 -3.109375 C 4.304688 -2.640625 4.289062 -2.296875 4.28125 -2.078125 C 4.269531 -1.941406 4.226562 -1.804688 4.15625 -1.671875 C 4.09375 -1.546875 4 -1.414062 3.875 -1.28125 C 3.75 -1.144531 3.578125 -1.023438 3.359375 -0.921875 L 8.203125 -0.921875 C 8.421875 -0.921875 8.648438 -0.929688 8.890625 -0.953125 C 9.085938 -0.984375 9.300781 -1.019531 9.53125 -1.0625 C 9.757812 -1.113281 9.976562 -1.191406 10.1875 -1.296875 C 9.832031 -0.960938 9.476562 -0.703125 9.125 -0.515625 C 8.78125 -0.335938 8.460938 -0.210938 8.171875 -0.140625 C 7.828125 -0.046875 7.5 0.00390625 7.1875 0.015625 C 6.488281 0.015625 5.832031 0.0195312 5.21875 0.03125 C 4.601562 0.0390625 4.046875 0.0546875 3.546875 0.078125 C 3.046875 0.0976562 2.617188 0.125 2.265625 0.15625 C 1.910156 0.1875 1.65625 0.222656 1.5 0.265625 C 1.71875 0.046875 1.890625 -0.164062 2.015625 -0.375 C 2.140625 -0.59375 2.234375 -0.832031 2.296875 -1.09375 C 2.367188 -1.363281 2.410156 -1.660156 2.421875 -1.984375 C 2.441406 -2.316406 2.445312 -2.710938 2.4375 -3.171875 L 2.4375 -7.546875 C 2.238281 -7.546875 2.039062 -7.546875 1.84375 -7.546875 C 1.644531 -7.554688 1.453125 -7.570312 1.265625 -7.59375 L 2.4375 -8.203125 C 2.4375 -8.585938 2.4375 -8.988281 2.4375 -9.40625 C 2.4375 -9.832031 2.4375 -10.285156 2.4375 -10.765625 C 2.4375 -11.253906 2.429688 -11.773438 2.421875 -12.328125 C 2.421875 -12.890625 2.421875 -13.5 2.421875 -14.15625 C 2.097656 -14.15625 1.796875 -14.160156 1.515625 -14.171875 C 1.234375 -14.179688 0.96875 -14.191406 0.71875 -14.203125 L 2.71875 -15.265625 C 4.0625 -15.265625 5.210938 -15.269531 6.171875 -15.28125 C 7.128906 -15.300781 7.921875 -15.320312 8.546875 -15.34375 C 9.273438 -15.375 9.878906 -15.40625 10.359375 -15.4375 C 10.609375 -15.4375 10.769531 -15.414062 10.84375 -15.375 C 10.925781 -15.332031 10.957031 -15.285156 10.9375 -15.234375 C 10.925781 -15.191406 10.882812 -15.144531 10.8125 -15.09375 C 10.738281 -15.050781 10.675781 -15.019531 10.625 -15 C 10.5625 -14.96875 10.453125 -14.90625 10.296875 -14.8125 C 10.160156 -14.738281 9.96875 -14.617188 9.71875 -14.453125 C 9.476562 -14.285156 9.144531 -14.054688 8.71875 -13.765625 C 8.863281 -13.921875 8.925781 -14.035156 8.90625 -14.109375 C 8.882812 -14.191406 8.832031 -14.25 8.75 -14.28125 C 8.65625 -14.3125 8.53125 -14.328125 8.375 -14.328125 C 8.238281 -14.316406 8.035156 -14.304688 7.765625 -14.296875 C 7.492188 -14.285156 7.175781 -14.269531 6.8125 -14.25 C 6.457031 -14.238281 6.066406 -14.226562 5.640625 -14.21875 C 5.222656 -14.207031 4.796875 -14.195312 4.359375 -14.1875 C 4.359375 -13.050781 4.359375 -12.03125 4.359375 -11.125 C 4.367188 -10.21875 4.375 -9.390625 4.375 -8.640625 C 5.101562 -8.640625 5.753906 -8.648438 6.328125 -8.671875 C 6.910156 -8.691406 7.410156 -8.710938 7.828125 -8.734375 C 8.304688 -8.765625 8.734375 -8.789062 9.109375 -8.8125 C 9.347656 -8.8125 9.503906 -8.789062 9.578125 -8.75 C 9.660156 -8.71875 9.691406 -8.675781 9.671875 -8.625 C 9.660156 -8.582031 9.617188 -8.535156 9.546875 -8.484375 C 9.484375 -8.429688 9.425781 -8.394531 9.375 -8.375 Z M 9.375 -8.375 "/></g></g></g><g fill="#000000" fill-opacity="1"><g transform="translate(177.934124, 226.85103)"><g><path d="M 11.390625 -11.453125 C 11.328125 -10.921875 11.179688 -10.453125 10.953125 -10.046875 C 10.734375 -9.648438 10.460938 -9.296875 10.140625 -8.984375 C 9.816406 -8.679688 9.472656 -8.421875 9.109375 -8.203125 C 8.742188 -7.992188 8.394531 -7.816406 8.0625 -7.671875 C 8.695312 -6.992188 9.265625 -6.390625 9.765625 -5.859375 C 10.265625 -5.335938 10.707031 -4.875 11.09375 -4.46875 C 11.488281 -4.0625 11.828125 -3.710938 12.109375 -3.421875 C 12.398438 -3.128906 12.648438 -2.878906 12.859375 -2.671875 C 13.347656 -2.203125 13.6875 -1.890625 13.875 -1.734375 C 14.070312 -1.578125 14.285156 -1.46875 14.515625 -1.40625 C 14.753906 -1.34375 14.984375 -1.3125 15.203125 -1.3125 C 15.390625 -1.3125 15.566406 -1.328125 15.734375 -1.359375 C 15.910156 -1.398438 16.050781 -1.441406 16.15625 -1.484375 C 15.8125 -1.253906 15.507812 -1.046875 15.25 -0.859375 C 14.988281 -0.679688 14.75 -0.523438 14.53125 -0.390625 C 14.3125 -0.253906 14.101562 -0.148438 13.90625 -0.078125 C 13.71875 -0.015625 13.519531 0.015625 13.3125 0.015625 C 13.164062 0.015625 13.023438 -0.00390625 12.890625 -0.046875 C 12.753906 -0.0859375 12.609375 -0.15625 12.453125 -0.25 C 12.296875 -0.34375 12.128906 -0.457031 11.953125 -0.59375 C 11.785156 -0.738281 11.597656 -0.910156 11.390625 -1.109375 C 11.253906 -1.242188 11.050781 -1.460938 10.78125 -1.765625 C 10.507812 -2.066406 10.207031 -2.40625 9.875 -2.78125 C 9.539062 -3.15625 9.191406 -3.546875 8.828125 -3.953125 C 8.460938 -4.359375 8.117188 -4.734375 7.796875 -5.078125 C 7.484375 -5.421875 7.203125 -5.71875 6.953125 -5.96875 C 6.703125 -6.21875 6.535156 -6.367188 6.453125 -6.421875 C 6.335938 -6.484375 6.222656 -6.539062 6.109375 -6.59375 C 6.003906 -6.632812 5.882812 -6.671875 5.75 -6.703125 C 5.625 -6.734375 5.5 -6.742188 5.375 -6.734375 L 6.921875 -7.796875 C 7.273438 -7.796875 7.613281 -7.878906 7.9375 -8.046875 C 8.269531 -8.210938 8.550781 -8.453125 8.78125 -8.765625 C 9.019531 -9.085938 9.207031 -9.472656 9.34375 -9.921875 C 9.476562 -10.378906 9.535156 -10.894531 9.515625 -11.46875 C 9.492188 -11.8125 9.414062 -12.125 9.28125 -12.40625 C 9.144531 -12.6875 8.96875 -12.9375 8.75 -13.15625 C 8.53125 -13.375 8.28125 -13.566406 8 -13.734375 C 7.726562 -13.898438 7.445312 -14.035156 7.15625 -14.140625 C 6.863281 -14.253906 6.570312 -14.335938 6.28125 -14.390625 C 5.988281 -14.441406 5.722656 -14.46875 5.484375 -14.46875 C 5.316406 -14.46875 5.140625 -14.460938 4.953125 -14.453125 C 4.765625 -14.453125 4.570312 -14.453125 4.375 -14.453125 C 4.351562 -13.117188 4.328125 -11.925781 4.296875 -10.875 C 4.273438 -9.832031 4.253906 -8.90625 4.234375 -8.09375 C 4.210938 -7.289062 4.191406 -6.59375 4.171875 -6 C 4.160156 -5.414062 4.144531 -4.914062 4.125 -4.5 C 4.082031 -3.53125 4.039062 -2.878906 4 -2.546875 C 3.976562 -2.398438 3.941406 -2.253906 3.890625 -2.109375 C 3.847656 -1.972656 3.789062 -1.832031 3.71875 -1.6875 C 3.644531 -1.539062 3.550781 -1.394531 3.4375 -1.25 C 3.738281 -1.21875 4.007812 -1.195312 4.25 -1.1875 C 4.5 -1.1875 4.726562 -1.1875 4.9375 -1.1875 C 5.425781 -1.1875 5.785156 -1.195312 6.015625 -1.21875 C 6.253906 -1.25 6.390625 -1.273438 6.421875 -1.296875 C 6.054688 -1.109375 5.707031 -0.9375 5.375 -0.78125 C 5.050781 -0.625 4.738281 -0.484375 4.4375 -0.359375 C 4.132812 -0.242188 3.847656 -0.148438 3.578125 -0.078125 C 3.304688 -0.015625 3.039062 0.015625 2.78125 0.015625 L 0.921875 0.015625 L 1.859375 -0.609375 C 1.910156 -0.796875 1.957031 -1.015625 2 -1.265625 C 2.050781 -1.523438 2.09375 -1.800781 2.125 -2.09375 C 2.15625 -2.394531 2.179688 -2.703125 2.203125 -3.015625 C 2.234375 -3.328125 2.257812 -3.640625 2.28125 -3.953125 C 2.320312 -4.648438 2.351562 -5.394531 2.375 -6.1875 C 2.394531 -7.28125 2.410156 -8.332031 2.421875 -9.34375 C 2.429688 -9.78125 2.4375 -10.226562 2.4375 -10.6875 C 2.445312 -11.144531 2.453125 -11.59375 2.453125 -12.03125 C 2.460938 -12.46875 2.46875 -12.882812 2.46875 -13.28125 C 2.476562 -13.675781 2.484375 -14.023438 2.484375 -14.328125 L 0.5625 -14.1875 L 2.640625 -15.4375 C 2.765625 -15.414062 2.898438 -15.398438 3.046875 -15.390625 C 3.191406 -15.390625 3.34375 -15.390625 3.5 -15.390625 C 3.800781 -15.390625 4.101562 -15.398438 4.40625 -15.421875 C 4.707031 -15.453125 5.003906 -15.484375 5.296875 -15.515625 C 5.597656 -15.546875 5.890625 -15.570312 6.171875 -15.59375 C 6.453125 -15.625 6.738281 -15.640625 7.03125 -15.640625 C 7.601562 -15.640625 8.160156 -15.546875 8.703125 -15.359375 C 9.253906 -15.171875 9.738281 -14.894531 10.15625 -14.53125 C 10.570312 -14.164062 10.894531 -13.722656 11.125 -13.203125 C 11.363281 -12.679688 11.453125 -12.097656 11.390625 -11.453125 Z M 16.1875 -1.5 C 16.164062 -1.5 16.15625 -1.5 16.15625 -1.5 L 16.15625 -1.484375 L 16.15625 -1.5 C 16.164062 -1.5 16.175781 -1.5 16.1875 -1.5 Z M 16.1875 -1.5 "/></g></g></g><g fill="#000000" fill-opacity="1"><g transform="translate(194.305349, 226.85103)"><g/></g></g><g fill="#000000" fill-opacity="1"><g transform="translate(201.389367, 226.85103)"><g><path d="M 14.078125 -14.671875 C 13.953125 -14.503906 13.796875 -14.34375 13.609375 -14.1875 C 13.453125 -14.050781 13.257812 -13.90625 13.03125 -13.75 C 12.800781 -13.601562 12.53125 -13.472656 12.21875 -13.359375 C 12.320312 -13.484375 12.332031 -13.617188 12.25 -13.765625 C 12.164062 -13.910156 11.984375 -14.039062 11.703125 -14.15625 C 11.429688 -14.28125 11.054688 -14.378906 10.578125 -14.453125 C 10.109375 -14.535156 9.53125 -14.578125 8.84375 -14.578125 C 8.445312 -14.578125 8.019531 -14.535156 7.5625 -14.453125 C 7.101562 -14.367188 6.648438 -14.226562 6.203125 -14.03125 C 5.753906 -13.832031 5.320312 -13.566406 4.90625 -13.234375 C 4.488281 -12.910156 4.117188 -12.5 3.796875 -12 C 3.472656 -11.507812 3.21875 -10.921875 3.03125 -10.234375 C 2.84375 -9.554688 2.75 -8.773438 2.75 -7.890625 C 2.75 -6.992188 2.859375 -6.207031 3.078125 -5.53125 C 3.296875 -4.863281 3.582031 -4.285156 3.9375 -3.796875 C 4.300781 -3.304688 4.710938 -2.898438 5.171875 -2.578125 C 5.640625 -2.253906 6.113281 -1.992188 6.59375 -1.796875 C 7.082031 -1.597656 7.554688 -1.457031 8.015625 -1.375 C 8.484375 -1.300781 8.90625 -1.265625 9.28125 -1.265625 C 9.71875 -1.273438 10.171875 -1.304688 10.640625 -1.359375 C 11.046875 -1.410156 11.492188 -1.484375 11.984375 -1.578125 C 12.472656 -1.679688 12.953125 -1.820312 13.421875 -2 C 12.722656 -1.445312 12.078125 -1.023438 11.484375 -0.734375 C 10.898438 -0.441406 10.382812 -0.222656 9.9375 -0.078125 C 9.414062 0.078125 8.9375 0.164062 8.5 0.1875 C 7.445312 0.1875 6.453125 0.0351562 5.515625 -0.265625 C 4.585938 -0.578125 3.773438 -1.023438 3.078125 -1.609375 C 2.378906 -2.203125 1.828125 -2.925781 1.421875 -3.78125 C 1.015625 -4.632812 0.8125 -5.601562 0.8125 -6.6875 C 0.8125 -7.363281 0.875 -7.992188 1 -8.578125 C 1.132812 -9.160156 1.304688 -9.691406 1.515625 -10.171875 C 1.722656 -10.648438 1.957031 -11.082031 2.21875 -11.46875 C 2.476562 -11.863281 2.742188 -12.207031 3.015625 -12.5 C 3.296875 -12.800781 3.566406 -13.050781 3.828125 -13.25 C 4.085938 -13.445312 4.3125 -13.597656 4.5 -13.703125 C 4.6875 -13.804688 4.921875 -13.925781 5.203125 -14.0625 C 5.492188 -14.195312 5.8125 -14.332031 6.15625 -14.46875 C 6.507812 -14.613281 6.875 -14.753906 7.25 -14.890625 C 7.632812 -15.023438 8.023438 -15.144531 8.421875 -15.25 C 8.828125 -15.351562 9.21875 -15.4375 9.59375 -15.5 C 9.976562 -15.570312 10.34375 -15.609375 10.6875 -15.609375 C 11.445312 -15.609375 12.0625 -15.570312 12.53125 -15.5 C 13 -15.425781 13.351562 -15.335938 13.59375 -15.234375 C 13.84375 -15.128906 14 -15.023438 14.0625 -14.921875 C 14.125 -14.816406 14.128906 -14.734375 14.078125 -14.671875 Z M 14.078125 -14.671875 "/></g></g></g><g fill="#000000" fill-opacity="1"><g transform="translate(217.258869, 226.85103)"><g><path d="M 6.171875 -15.890625 C 5.835938 -15.671875 5.535156 -15.488281 5.265625 -15.34375 C 4.992188 -15.195312 4.738281 -15.070312 4.5 -14.96875 C 4.488281 -14.363281 4.472656 -13.796875 4.453125 -13.265625 C 4.441406 -12.742188 4.429688 -12.25 4.421875 -11.78125 C 4.410156 -11.320312 4.398438 -10.882812 4.390625 -10.46875 C 4.390625 -10.0625 4.382812 -9.664062 4.375 -9.28125 C 4.75 -9.363281 5.140625 -9.40625 5.546875 -9.40625 C 5.941406 -9.40625 6.394531 -9.398438 6.90625 -9.390625 C 7.425781 -9.378906 7.960938 -9.363281 8.515625 -9.34375 C 9.066406 -9.320312 9.625 -9.304688 10.1875 -9.296875 C 10.75 -9.285156 11.273438 -9.28125 11.765625 -9.28125 L 12.265625 -9.28125 L 12.265625 -14.59375 C 12.046875 -14.570312 11.773438 -14.546875 11.453125 -14.515625 C 11.140625 -14.484375 10.785156 -14.441406 10.390625 -14.390625 C 10.773438 -14.703125 11.117188 -14.9375 11.421875 -15.09375 C 11.722656 -15.257812 11.984375 -15.378906 12.203125 -15.453125 C 12.460938 -15.535156 12.691406 -15.585938 12.890625 -15.609375 C 13.148438 -15.609375 13.425781 -15.613281 13.71875 -15.625 C 14.019531 -15.632812 14.3125 -15.648438 14.59375 -15.671875 C 14.882812 -15.703125 15.144531 -15.734375 15.375 -15.765625 C 15.601562 -15.804688 15.773438 -15.847656 15.890625 -15.890625 C 15.554688 -15.671875 15.253906 -15.488281 14.984375 -15.34375 C 14.722656 -15.195312 14.472656 -15.070312 14.234375 -14.96875 C 14.191406 -13.675781 14.160156 -12.519531 14.140625 -11.5 C 14.117188 -10.488281 14.097656 -9.585938 14.078125 -8.796875 C 14.066406 -8.015625 14.054688 -7.332031 14.046875 -6.75 C 14.035156 -6.175781 14.023438 -5.6875 14.015625 -5.28125 C 13.992188 -4.332031 13.988281 -3.6875 14 -3.34375 C 13.988281 -3.082031 13.953125 -2.820312 13.890625 -2.5625 C 13.828125 -2.34375 13.738281 -2.101562 13.625 -1.84375 C 13.507812 -1.59375 13.347656 -1.363281 13.140625 -1.15625 C 13.265625 -1.144531 13.382812 -1.132812 13.5 -1.125 C 13.625 -1.125 13.75 -1.125 13.875 -1.125 C 14.207031 -1.125 14.503906 -1.140625 14.765625 -1.171875 C 15.035156 -1.210938 15.269531 -1.25 15.46875 -1.28125 C 15.664062 -1.3125 15.820312 -1.34375 15.9375 -1.375 C 16.050781 -1.414062 16.125 -1.445312 16.15625 -1.46875 C 15.769531 -1.207031 15.453125 -0.984375 15.203125 -0.796875 C 14.960938 -0.609375 14.738281 -0.457031 14.53125 -0.34375 C 14.332031 -0.226562 14.140625 -0.140625 13.953125 -0.078125 C 13.765625 -0.0234375 13.539062 0 13.28125 0 C 12.945312 0 12.660156 -0.0078125 12.421875 -0.03125 C 12.179688 -0.0625 11.941406 -0.078125 11.703125 -0.078125 C 11.578125 -0.078125 11.453125 -0.0703125 11.328125 -0.0625 C 11.203125 -0.0507812 11.0625 -0.03125 10.90625 0 C 11.132812 -0.101562 11.332031 -0.210938 11.5 -0.328125 C 11.675781 -0.453125 11.816406 -0.617188 11.921875 -0.828125 C 12.035156 -1.035156 12.117188 -1.3125 12.171875 -1.65625 C 12.234375 -2 12.265625 -2.460938 12.265625 -3.046875 L 12.265625 -8.59375 C 12.054688 -8.550781 11.820312 -8.515625 11.5625 -8.484375 C 11.3125 -8.453125 11.019531 -8.4375 10.6875 -8.4375 C 10.21875 -8.4375 9.675781 -8.453125 9.0625 -8.484375 C 8.445312 -8.515625 7.769531 -8.53125 7.03125 -8.53125 C 6.59375 -8.53125 6.148438 -8.519531 5.703125 -8.5 C 5.265625 -8.476562 4.816406 -8.441406 4.359375 -8.390625 C 4.328125 -7.347656 4.304688 -6.5 4.296875 -5.84375 C 4.285156 -5.1875 4.273438 -4.671875 4.265625 -4.296875 C 4.265625 -3.867188 4.265625 -3.550781 4.265625 -3.34375 C 4.253906 -3.082031 4.21875 -2.820312 4.15625 -2.5625 C 4.09375 -2.34375 4.003906 -2.101562 3.890625 -1.84375 C 3.773438 -1.59375 3.613281 -1.363281 3.40625 -1.15625 C 3.539062 -1.144531 3.664062 -1.132812 3.78125 -1.125 C 3.90625 -1.125 4.03125 -1.125 4.15625 -1.125 C 4.488281 -1.125 4.785156 -1.140625 5.046875 -1.171875 C 5.316406 -1.210938 5.550781 -1.25 5.75 -1.28125 C 5.945312 -1.3125 6.097656 -1.34375 6.203125 -1.375 C 6.316406 -1.414062 6.390625 -1.445312 6.421875 -1.46875 C 6.046875 -1.207031 5.734375 -0.984375 5.484375 -0.796875 C 5.234375 -0.609375 5.007812 -0.457031 4.8125 -0.34375 C 4.613281 -0.226562 4.421875 -0.140625 4.234375 -0.078125 C 4.046875 -0.0234375 3.820312 0 3.5625 0 C 3.21875 0 2.925781 -0.0078125 2.6875 -0.03125 C 2.445312 -0.0625 2.207031 -0.078125 1.96875 -0.078125 C 1.84375 -0.078125 1.71875 -0.0703125 1.59375 -0.0625 C 1.46875 -0.0507812 1.332031 -0.03125 1.1875 0 C 1.382812 -0.164062 1.5625 -0.347656 1.71875 -0.546875 C 1.882812 -0.753906 2.023438 -1.003906 2.140625 -1.296875 C 2.265625 -1.585938 2.359375 -1.9375 2.421875 -2.34375 C 2.484375 -2.75 2.515625 -3.242188 2.515625 -3.828125 L 2.515625 -8.0625 C 2.359375 -8.03125 2.195312 -7.992188 2.03125 -7.953125 C 1.875 -7.910156 1.71875 -7.859375 1.5625 -7.796875 C 1.71875 -7.941406 1.875 -8.070312 2.03125 -8.1875 C 2.195312 -8.3125 2.359375 -8.429688 2.515625 -8.546875 L 2.515625 -14.59375 C 2.296875 -14.570312 2.03125 -14.546875 1.71875 -14.515625 C 1.40625 -14.484375 1.050781 -14.441406 0.65625 -14.390625 C 1.039062 -14.703125 1.382812 -14.9375 1.6875 -15.09375 C 2 -15.257812 2.265625 -15.378906 2.484375 -15.453125 C 2.742188 -15.535156 2.972656 -15.585938 3.171875 -15.609375 C 3.421875 -15.609375 3.695312 -15.613281 4 -15.625 C 4.300781 -15.632812 4.59375 -15.648438 4.875 -15.671875 C 5.15625 -15.703125 5.410156 -15.734375 5.640625 -15.765625 C 5.878906 -15.804688 6.054688 -15.847656 6.171875 -15.890625 Z M 6.421875 -1.46875 C 6.429688 -1.476562 6.441406 -1.484375 6.453125 -1.484375 Z M 16.15625 -1.46875 C 16.164062 -1.476562 16.175781 -1.484375 16.1875 -1.484375 Z M 16.15625 -1.46875 "/></g></g></g><g fill="#000000" fill-opacity="1"><g transform="translate(235.444841, 226.85103)"><g><path d="M 4.265625 -1.109375 C 3.878906 -0.898438 3.515625 -0.722656 3.171875 -0.578125 C 2.828125 -0.429688 2.503906 -0.316406 2.203125 -0.234375 C 1.910156 -0.148438 1.644531 -0.0859375 1.40625 -0.046875 C 1.164062 -0.015625 0.960938 0 0.796875 0 L -0.8125 0 L 0.359375 -0.65625 C 0.472656 -0.8125 0.585938 -0.96875 0.703125 -1.125 C 0.816406 -1.28125 0.914062 -1.425781 1 -1.5625 C 1.082031 -1.707031 1.164062 -1.851562 1.25 -2 C 1.46875 -2.445312 1.796875 -3.175781 2.234375 -4.1875 C 2.410156 -4.613281 2.617188 -5.117188 2.859375 -5.703125 C 3.109375 -6.296875 3.390625 -6.984375 3.703125 -7.765625 C 4.023438 -8.546875 4.382812 -9.4375 4.78125 -10.4375 C 5.175781 -11.4375 5.613281 -12.554688 6.09375 -13.796875 L 7.953125 -15.5 L 12.140625 -1.3125 C 12.429688 -1.238281 12.710938 -1.1875 12.984375 -1.15625 C 13.265625 -1.132812 13.523438 -1.125 13.765625 -1.125 C 13.898438 -1.125 14.019531 -1.125 14.125 -1.125 C 14.226562 -1.132812 14.320312 -1.144531 14.40625 -1.15625 C 14.488281 -1.15625 14.566406 -1.164062 14.640625 -1.1875 C 14.234375 -0.988281 13.875 -0.816406 13.5625 -0.671875 C 13.257812 -0.523438 12.988281 -0.398438 12.75 -0.296875 C 12.507812 -0.203125 12.285156 -0.128906 12.078125 -0.078125 C 11.878906 -0.0234375 11.675781 0 11.46875 0 L 9.765625 0 L 10.328125 -0.359375 L 8.609375 -6.015625 C 8.398438 -5.953125 8.160156 -5.894531 7.890625 -5.84375 C 7.628906 -5.789062 7.3125 -5.742188 6.9375 -5.703125 C 6.5625 -5.660156 6.125 -5.617188 5.625 -5.578125 C 5.132812 -5.546875 4.566406 -5.515625 3.921875 -5.484375 C 3.617188 -4.847656 3.34375 -4.285156 3.09375 -3.796875 C 2.84375 -3.304688 2.617188 -2.878906 2.421875 -2.515625 C 2.222656 -2.148438 2.046875 -1.84375 1.890625 -1.59375 C 1.742188 -1.351562 1.613281 -1.15625 1.5 -1 C 1.625 -0.976562 1.757812 -0.960938 1.90625 -0.953125 C 2.0625 -0.941406 2.210938 -0.9375 2.359375 -0.9375 C 2.585938 -0.9375 2.8125 -0.945312 3.03125 -0.96875 C 3.257812 -0.988281 3.46875 -1.007812 3.65625 -1.03125 C 3.863281 -1.050781 4.066406 -1.078125 4.265625 -1.109375 Z M 5.75 -6.75 C 6.707031 -6.75 7.582031 -6.773438 8.375 -6.828125 L 6.734375 -12.25 C 6.296875 -11.113281 5.890625 -10.097656 5.515625 -9.203125 C 5.148438 -8.316406 4.804688 -7.5 4.484375 -6.75 Z M 5.75 -6.75 "/></g></g></g><g fill="#000000" fill-opacity="1"><g transform="translate(251.058151, 226.85103)"><g><path d="M 13.8125 -15.8125 C 13.382812 -15.507812 13.003906 -15.269531 12.671875 -15.09375 C 12.347656 -14.925781 12.03125 -14.796875 11.71875 -14.703125 C 11.351562 -14.128906 10.957031 -13.582031 10.53125 -13.0625 C 10.101562 -12.550781 9.65625 -12.050781 9.1875 -11.5625 C 8.71875 -11.082031 8.242188 -10.613281 7.765625 -10.15625 C 7.285156 -9.695312 6.816406 -9.238281 6.359375 -8.78125 C 6.660156 -8.351562 7.003906 -7.875 7.390625 -7.34375 C 7.773438 -6.820312 8.1875 -6.296875 8.625 -5.765625 C 9.070312 -5.234375 9.539062 -4.710938 10.03125 -4.203125 C 10.53125 -3.691406 11.035156 -3.238281 11.546875 -2.84375 C 12.066406 -2.457031 12.59375 -2.144531 13.125 -1.90625 C 13.664062 -1.664062 14.203125 -1.546875 14.734375 -1.546875 C 14.910156 -1.546875 15.101562 -1.566406 15.3125 -1.609375 C 15.519531 -1.648438 15.734375 -1.722656 15.953125 -1.828125 C 15.523438 -1.367188 15.148438 -1.007812 14.828125 -0.75 C 14.503906 -0.488281 14.234375 -0.300781 14.015625 -0.1875 C 13.753906 -0.03125 13.535156 0.0546875 13.359375 0.078125 C 13.128906 0.109375 12.847656 0.0625 12.515625 -0.0625 C 12.191406 -0.195312 11.835938 -0.378906 11.453125 -0.609375 C 11.066406 -0.835938 10.664062 -1.109375 10.25 -1.421875 C 9.84375 -1.742188 9.441406 -2.078125 9.046875 -2.421875 C 8.617188 -2.828125 8.15625 -3.296875 7.65625 -3.828125 C 7.238281 -4.285156 6.765625 -4.835938 6.234375 -5.484375 C 5.703125 -6.140625 5.160156 -6.882812 4.609375 -7.71875 L 5.53125 -8.875 C 5.738281 -9.050781 5.988281 -9.269531 6.28125 -9.53125 C 6.570312 -9.800781 6.878906 -10.09375 7.203125 -10.40625 C 7.523438 -10.726562 7.847656 -11.066406 8.171875 -11.421875 C 8.503906 -11.773438 8.816406 -12.128906 9.109375 -12.484375 C 9.398438 -12.847656 9.660156 -13.203125 9.890625 -13.546875 C 10.117188 -13.898438 10.296875 -14.226562 10.421875 -14.53125 C 10.222656 -14.507812 9.9375 -14.484375 9.5625 -14.453125 C 9.195312 -14.421875 8.773438 -14.367188 8.296875 -14.296875 C 8.679688 -14.609375 9.023438 -14.84375 9.328125 -15 C 9.640625 -15.164062 9.90625 -15.289062 10.125 -15.375 C 10.382812 -15.457031 10.617188 -15.503906 10.828125 -15.515625 C 11.078125 -15.515625 11.347656 -15.519531 11.640625 -15.53125 C 11.941406 -15.539062 12.234375 -15.554688 12.515625 -15.578125 C 12.796875 -15.609375 13.050781 -15.644531 13.28125 -15.6875 C 13.507812 -15.726562 13.6875 -15.769531 13.8125 -15.8125 Z M 6.453125 -1.375 C 6.066406 -1.125 5.75 -0.90625 5.5 -0.71875 C 5.25 -0.53125 5.019531 -0.375 4.8125 -0.25 C 4.613281 -0.132812 4.421875 -0.0507812 4.234375 0 C 4.046875 0.0507812 3.820312 0.078125 3.5625 0.078125 C 3.21875 0.078125 2.925781 0.0625 2.6875 0.03125 C 2.445312 0.0078125 2.207031 0 1.96875 0 C 1.84375 0 1.71875 0.00390625 1.59375 0.015625 C 1.46875 0.0234375 1.332031 0.046875 1.1875 0.078125 C 1.382812 -0.0859375 1.5625 -0.269531 1.71875 -0.46875 C 1.882812 -0.664062 2.023438 -0.910156 2.140625 -1.203125 C 2.265625 -1.492188 2.359375 -1.84375 2.421875 -2.25 C 2.484375 -2.664062 2.515625 -3.160156 2.515625 -3.734375 L 2.515625 -14.515625 C 2.296875 -14.492188 2.03125 -14.460938 1.71875 -14.421875 C 1.40625 -14.390625 1.050781 -14.347656 0.65625 -14.296875 C 1.039062 -14.609375 1.382812 -14.84375 1.6875 -15 C 2 -15.164062 2.265625 -15.289062 2.484375 -15.375 C 2.742188 -15.457031 2.972656 -15.503906 3.171875 -15.515625 C 3.421875 -15.515625 3.695312 -15.519531 4 -15.53125 C 4.300781 -15.539062 4.59375 -15.554688 4.875 -15.578125 C 5.15625 -15.609375 5.410156 -15.644531 5.640625 -15.6875 C 5.878906 -15.726562 6.054688 -15.769531 6.171875 -15.8125 C 5.835938 -15.59375 5.535156 -15.40625 5.265625 -15.25 C 4.992188 -15.09375 4.738281 -14.96875 4.5 -14.875 C 4.46875 -13.582031 4.4375 -12.425781 4.40625 -11.40625 C 4.382812 -10.394531 4.363281 -9.492188 4.34375 -8.703125 C 4.332031 -7.921875 4.320312 -7.242188 4.3125 -6.671875 C 4.300781 -6.097656 4.289062 -5.609375 4.28125 -5.203125 C 4.257812 -4.253906 4.253906 -3.601562 4.265625 -3.25 C 4.253906 -2.988281 4.21875 -2.726562 4.15625 -2.46875 C 4.09375 -2.25 4.003906 -2.007812 3.890625 -1.75 C 3.773438 -1.5 3.613281 -1.269531 3.40625 -1.0625 C 3.539062 -1.050781 3.671875 -1.046875 3.796875 -1.046875 C 3.921875 -1.046875 4.046875 -1.046875 4.171875 -1.046875 C 4.535156 -1.046875 4.859375 -1.0625 5.140625 -1.09375 C 5.421875 -1.125 5.65625 -1.160156 5.84375 -1.203125 C 6.070312 -1.253906 6.273438 -1.3125 6.453125 -1.375 Z M 6.453125 -1.375 "/></g></g></g><g fill="#000000" fill-opacity="1"><g transform="translate(267.653555, 226.85103)"><g><path d="M 11.390625 -11.453125 C 11.328125 -10.921875 11.179688 -10.453125 10.953125 -10.046875 C 10.734375 -9.648438 10.460938 -9.296875 10.140625 -8.984375 C 9.816406 -8.679688 9.472656 -8.421875 9.109375 -8.203125 C 8.742188 -7.992188 8.394531 -7.816406 8.0625 -7.671875 C 8.695312 -6.992188 9.265625 -6.390625 9.765625 -5.859375 C 10.265625 -5.335938 10.707031 -4.875 11.09375 -4.46875 C 11.488281 -4.0625 11.828125 -3.710938 12.109375 -3.421875 C 12.398438 -3.128906 12.648438 -2.878906 12.859375 -2.671875 C 13.347656 -2.203125 13.6875 -1.890625 13.875 -1.734375 C 14.070312 -1.578125 14.285156 -1.46875 14.515625 -1.40625 C 14.753906 -1.34375 14.984375 -1.3125 15.203125 -1.3125 C 15.390625 -1.3125 15.566406 -1.328125 15.734375 -1.359375 C 15.910156 -1.398438 16.050781 -1.441406 16.15625 -1.484375 C 15.8125 -1.253906 15.507812 -1.046875 15.25 -0.859375 C 14.988281 -0.679688 14.75 -0.523438 14.53125 -0.390625 C 14.3125 -0.253906 14.101562 -0.148438 13.90625 -0.078125 C 13.71875 -0.015625 13.519531 0.015625 13.3125 0.015625 C 13.164062 0.015625 13.023438 -0.00390625 12.890625 -0.046875 C 12.753906 -0.0859375 12.609375 -0.15625 12.453125 -0.25 C 12.296875 -0.34375 12.128906 -0.457031 11.953125 -0.59375 C 11.785156 -0.738281 11.597656 -0.910156 11.390625 -1.109375 C 11.253906 -1.242188 11.050781 -1.460938 10.78125 -1.765625 C 10.507812 -2.066406 10.207031 -2.40625 9.875 -2.78125 C 9.539062 -3.15625 9.191406 -3.546875 8.828125 -3.953125 C 8.460938 -4.359375 8.117188 -4.734375 7.796875 -5.078125 C 7.484375 -5.421875 7.203125 -5.71875 6.953125 -5.96875 C 6.703125 -6.21875 6.535156 -6.367188 6.453125 -6.421875 C 6.335938 -6.484375 6.222656 -6.539062 6.109375 -6.59375 C 6.003906 -6.632812 5.882812 -6.671875 5.75 -6.703125 C 5.625 -6.734375 5.5 -6.742188 5.375 -6.734375 L 6.921875 -7.796875 C 7.273438 -7.796875 7.613281 -7.878906 7.9375 -8.046875 C 8.269531 -8.210938 8.550781 -8.453125 8.78125 -8.765625 C 9.019531 -9.085938 9.207031 -9.472656 9.34375 -9.921875 C 9.476562 -10.378906 9.535156 -10.894531 9.515625 -11.46875 C 9.492188 -11.8125 9.414062 -12.125 9.28125 -12.40625 C 9.144531 -12.6875 8.96875 -12.9375 8.75 -13.15625 C 8.53125 -13.375 8.28125 -13.566406 8 -13.734375 C 7.726562 -13.898438 7.445312 -14.035156 7.15625 -14.140625 C 6.863281 -14.253906 6.570312 -14.335938 6.28125 -14.390625 C 5.988281 -14.441406 5.722656 -14.46875 5.484375 -14.46875 C 5.316406 -14.46875 5.140625 -14.460938 4.953125 -14.453125 C 4.765625 -14.453125 4.570312 -14.453125 4.375 -14.453125 C 4.351562 -13.117188 4.328125 -11.925781 4.296875 -10.875 C 4.273438 -9.832031 4.253906 -8.90625 4.234375 -8.09375 C 4.210938 -7.289062 4.191406 -6.59375 4.171875 -6 C 4.160156 -5.414062 4.144531 -4.914062 4.125 -4.5 C 4.082031 -3.53125 4.039062 -2.878906 4 -2.546875 C 3.976562 -2.398438 3.941406 -2.253906 3.890625 -2.109375 C 3.847656 -1.972656 3.789062 -1.832031 3.71875 -1.6875 C 3.644531 -1.539062 3.550781 -1.394531 3.4375 -1.25 C 3.738281 -1.21875 4.007812 -1.195312 4.25 -1.1875 C 4.5 -1.1875 4.726562 -1.1875 4.9375 -1.1875 C 5.425781 -1.1875 5.785156 -1.195312 6.015625 -1.21875 C 6.253906 -1.25 6.390625 -1.273438 6.421875 -1.296875 C 6.054688 -1.109375 5.707031 -0.9375 5.375 -0.78125 C 5.050781 -0.625 4.738281 -0.484375 4.4375 -0.359375 C 4.132812 -0.242188 3.847656 -0.148438 3.578125 -0.078125 C 3.304688 -0.015625 3.039062 0.015625 2.78125 0.015625 L 0.921875 0.015625 L 1.859375 -0.609375 C 1.910156 -0.796875 1.957031 -1.015625 2 -1.265625 C 2.050781 -1.523438 2.09375 -1.800781 2.125 -2.09375 C 2.15625 -2.394531 2.179688 -2.703125 2.203125 -3.015625 C 2.234375 -3.328125 2.257812 -3.640625 2.28125 -3.953125 C 2.320312 -4.648438 2.351562 -5.394531 2.375 -6.1875 C 2.394531 -7.28125 2.410156 -8.332031 2.421875 -9.34375 C 2.429688 -9.78125 2.4375 -10.226562 2.4375 -10.6875 C 2.445312 -11.144531 2.453125 -11.59375 2.453125 -12.03125 C 2.460938 -12.46875 2.46875 -12.882812 2.46875 -13.28125 C 2.476562 -13.675781 2.484375 -14.023438 2.484375 -14.328125 L 0.5625 -14.1875 L 2.640625 -15.4375 C 2.765625 -15.414062 2.898438 -15.398438 3.046875 -15.390625 C 3.191406 -15.390625 3.34375 -15.390625 3.5 -15.390625 C 3.800781 -15.390625 4.101562 -15.398438 4.40625 -15.421875 C 4.707031 -15.453125 5.003906 -15.484375 5.296875 -15.515625 C 5.597656 -15.546875 5.890625 -15.570312 6.171875 -15.59375 C 6.453125 -15.625 6.738281 -15.640625 7.03125 -15.640625 C 7.601562 -15.640625 8.160156 -15.546875 8.703125 -15.359375 C 9.253906 -15.171875 9.738281 -14.894531 10.15625 -14.53125 C 10.570312 -14.164062 10.894531 -13.722656 11.125 -13.203125 C 11.363281 -12.679688 11.453125 -12.097656 11.390625 -11.453125 Z M 16.1875 -1.5 C 16.164062 -1.5 16.15625 -1.5 16.15625 -1.5 L 16.15625 -1.484375 L 16.15625 -1.5 C 16.164062 -1.5 16.175781 -1.5 16.1875 -1.5 Z M 16.1875 -1.5 "/></g></g></g><g fill="#000000" fill-opacity="1"><g transform="translate(284.024774, 226.85103)"><g><path d="M 4.265625 -1.109375 C 3.878906 -0.898438 3.515625 -0.722656 3.171875 -0.578125 C 2.828125 -0.429688 2.503906 -0.316406 2.203125 -0.234375 C 1.910156 -0.148438 1.644531 -0.0859375 1.40625 -0.046875 C 1.164062 -0.015625 0.960938 0 0.796875 0 L -0.8125 0 L 0.359375 -0.65625 C 0.472656 -0.8125 0.585938 -0.96875 0.703125 -1.125 C 0.816406 -1.28125 0.914062 -1.425781 1 -1.5625 C 1.082031 -1.707031 1.164062 -1.851562 1.25 -2 C 1.46875 -2.445312 1.796875 -3.175781 2.234375 -4.1875 C 2.410156 -4.613281 2.617188 -5.117188 2.859375 -5.703125 C 3.109375 -6.296875 3.390625 -6.984375 3.703125 -7.765625 C 4.023438 -8.546875 4.382812 -9.4375 4.78125 -10.4375 C 5.175781 -11.4375 5.613281 -12.554688 6.09375 -13.796875 L 7.953125 -15.5 L 12.140625 -1.3125 C 12.429688 -1.238281 12.710938 -1.1875 12.984375 -1.15625 C 13.265625 -1.132812 13.523438 -1.125 13.765625 -1.125 C 13.898438 -1.125 14.019531 -1.125 14.125 -1.125 C 14.226562 -1.132812 14.320312 -1.144531 14.40625 -1.15625 C 14.488281 -1.15625 14.566406 -1.164062 14.640625 -1.1875 C 14.234375 -0.988281 13.875 -0.816406 13.5625 -0.671875 C 13.257812 -0.523438 12.988281 -0.398438 12.75 -0.296875 C 12.507812 -0.203125 12.285156 -0.128906 12.078125 -0.078125 C 11.878906 -0.0234375 11.675781 0 11.46875 0 L 9.765625 0 L 10.328125 -0.359375 L 8.609375 -6.015625 C 8.398438 -5.953125 8.160156 -5.894531 7.890625 -5.84375 C 7.628906 -5.789062 7.3125 -5.742188 6.9375 -5.703125 C 6.5625 -5.660156 6.125 -5.617188 5.625 -5.578125 C 5.132812 -5.546875 4.566406 -5.515625 3.921875 -5.484375 C 3.617188 -4.847656 3.34375 -4.285156 3.09375 -3.796875 C 2.84375 -3.304688 2.617188 -2.878906 2.421875 -2.515625 C 2.222656 -2.148438 2.046875 -1.84375 1.890625 -1.59375 C 1.742188 -1.351562 1.613281 -1.15625 1.5 -1 C 1.625 -0.976562 1.757812 -0.960938 1.90625 -0.953125 C 2.0625 -0.941406 2.210938 -0.9375 2.359375 -0.9375 C 2.585938 -0.9375 2.8125 -0.945312 3.03125 -0.96875 C 3.257812 -0.988281 3.46875 -1.007812 3.65625 -1.03125 C 3.863281 -1.050781 4.066406 -1.078125 4.265625 -1.109375 Z M 5.75 -6.75 C 6.707031 -6.75 7.582031 -6.773438 8.375 -6.828125 L 6.734375 -12.25 C 6.296875 -11.113281 5.890625 -10.097656 5.515625 -9.203125 C 5.148438 -8.316406 4.804688 -7.5 4.484375 -6.75 Z M 5.75 -6.75 "/></g></g></g></svg>