<svg xmlns="http://www.w3.org/2000/svg" xmlns:xlink="http://www.w3.org/1999/xlink" width="500" zoomAndPan="magnify" viewBox="0 0 375 374.999991" height="500" preserveAspectRatio="xMidYMid meet" version="1.0"><defs><g/><clipPath id="fbf2e10bf3"><path d="M 75.785156 210.941406 L 317.523438 210.941406 L 317.523438 238.628906 L 75.785156 238.628906 Z M 75.785156 210.941406 " clip-rule="nonzero"/></clipPath><clipPath id="d9c79acdd4"><path d="M 89.628906 210.941406 L 303.601562 210.941406 C 307.273438 210.941406 310.792969 212.398438 313.390625 214.996094 C 315.984375 217.589844 317.445312 221.113281 317.445312 224.785156 C 317.445312 228.457031 315.984375 231.976562 313.390625 234.574219 C 310.792969 237.167969 307.273438 238.628906 303.601562 238.628906 L 89.628906 238.628906 C 85.957031 238.628906 82.4375 237.167969 79.839844 234.574219 C 77.246094 231.976562 75.785156 228.457031 75.785156 224.785156 C 75.785156 221.113281 77.246094 217.589844 79.839844 214.996094 C 82.4375 212.398438 85.957031 210.941406 89.628906 210.941406 Z M 89.628906 210.941406 " clip-rule="nonzero"/></clipPath></defs><path stroke-linecap="butt" transform="matrix(0.796004, -0.0323475, 0.0323475, 0.796004, 89.756372, 23.125813)" fill="none" stroke-linejoin="miter" d="M 197.5021 124.259861 C 195.705904 126.557107 193.509365 128.803733 190.912481 130.999738 C 188.715379 132.897921 185.999079 134.892781 182.753584 136.988818 C 179.508089 139.084856 175.740643 140.983019 171.446548 142.67821 C 172.844399 140.884953 172.971634 138.961544 171.823156 136.912684 C 170.674478 134.868723 168.154655 132.99478 164.258388 131.300453 C 160.36722 129.601426 155.099531 128.204695 148.465318 127.105761 C 141.826007 126.011526 133.716933 125.461165 124.132998 125.459378 C 118.54361 125.457978 112.528395 126.033059 106.087552 127.179723 C 99.651409 128.331485 93.285101 130.300701 86.998028 133.097568 C 80.706254 135.889336 74.641809 139.608013 68.804693 144.253597 C 62.962876 148.894084 57.800555 154.68596 53.308128 161.62393 C 48.815901 168.557001 45.247256 176.793693 42.602392 186.329109 C 39.952828 195.859426 38.632011 206.866864 38.630342 219.346126 C 38.633771 231.820688 40.155385 242.801323 43.200083 252.288229 C 46.244981 261.770236 50.285879 269.928482 55.327478 276.768064 C 60.369077 283.607646 66.134552 289.298886 72.624103 293.836885 C 79.108556 298.379584 85.747224 302.025602 92.535405 304.76984 C 99.323587 307.514079 105.988242 309.433774 112.52917 310.533826 C 119.065199 311.633678 124.980731 312.183231 130.270867 312.182285 C 136.360055 312.081314 142.698939 311.632254 149.287521 310.835107 C 154.979066 310.134004 161.24306 309.112651 168.079703 307.766149 C 174.916545 306.414748 181.631296 304.44497 188.219257 301.851716 C 178.534929 309.633776 169.553558 315.574711 161.265543 319.669223 C 152.982627 323.759036 145.694162 326.804741 139.405246 328.801639 C 132.117846 331.096566 125.43037 332.395149 119.337919 332.697189 C 104.566932 332.695629 90.639818 330.524973 77.561678 326.18052 C 64.488237 321.841165 53.030084 315.55054 43.196818 307.313943 C 33.368451 299.077545 25.603513 288.971883 19.916901 276.992656 C 14.22539 265.013229 11.378319 251.387664 11.38059 236.116157 C 11.378395 226.630207 12.276074 217.823685 14.074026 209.686793 C 15.871978 201.5499 18.241158 194.088895 21.186663 187.299078 C 24.13197 180.514159 27.452534 174.397165 31.143059 168.957694 C 34.838483 163.518422 38.605811 158.724931 42.449743 154.582321 C 46.293675 150.43971 50.036644 146.970208 53.67845 144.178713 C 57.325355 141.382518 60.494453 139.234302 63.190445 137.739165 C 65.783554 136.239846 69.101109 134.54423 73.148209 132.647617 C 77.19041 130.750804 81.631042 128.830924 86.470303 126.883077 C 91.314464 124.935429 96.432385 123.013629 101.819166 121.117476 C 107.210846 119.221522 112.702346 117.525917 118.293865 116.025763 C 123.880285 114.530308 129.346778 113.329328 134.688045 112.432419 C 140.029313 111.535511 145.092405 111.08368 149.886723 111.087123 C 160.565178 111.084315 169.201457 111.58249 175.790659 112.581449 C 182.379861 113.580408 187.394461 114.804912 190.839557 116.25026 C 194.284454 117.700508 196.428066 119.171484 197.279995 120.668488 C 198.127024 122.165292 198.200926 123.365682 197.5021 124.259861 Z M 197.5021 124.259861 " stroke="#ffffff" stroke-width="23.000025" stroke-opacity="1" stroke-miterlimit="4"/><g fill="#ef9f3e" fill-opacity="1"><g transform="translate(100.431038, 285.807057)"><g><path d="M 150.5625 -170.140625 C 149.195312 -168.253906 147.519531 -166.394531 145.53125 -164.5625 C 143.84375 -162.988281 141.738281 -161.3125 139.21875 -159.53125 C 136.707031 -157.757812 133.769531 -156.128906 130.40625 -154.640625 C 131.46875 -156.117188 131.507812 -157.65625 130.53125 -159.25 C 129.550781 -160.84375 127.476562 -162.25 124.3125 -163.46875 C 121.15625 -164.6875 116.921875 -165.625 111.609375 -166.28125 C 106.296875 -166.945312 99.828125 -167.125 92.203125 -166.8125 C 87.742188 -166.632812 82.96875 -165.984375 77.875 -164.859375 C 72.789062 -163.742188 67.789062 -161.972656 62.875 -159.546875 C 57.96875 -157.117188 53.257812 -153.957031 48.75 -150.0625 C 44.25 -146.175781 40.320312 -141.398438 36.96875 -135.734375 C 33.625 -130.066406 31.050781 -123.394531 29.25 -115.71875 C 27.457031 -108.050781 26.765625 -99.253906 27.171875 -89.328125 C 27.578125 -79.390625 29.144531 -70.695312 31.875 -63.25 C 34.601562 -55.800781 38.082031 -49.4375 42.3125 -44.15625 C 46.539062 -38.875 51.3125 -34.53125 56.625 -31.125 C 61.9375 -27.71875 67.335938 -25.03125 72.828125 -23.0625 C 78.328125 -21.101562 83.695312 -19.789062 88.9375 -19.125 C 94.175781 -18.457031 98.898438 -18.210938 103.109375 -18.390625 C 107.960938 -18.671875 112.992188 -19.234375 118.203125 -20.078125 C 122.710938 -20.828125 127.664062 -21.847656 133.0625 -23.140625 C 138.457031 -24.429688 143.738281 -26.21875 148.90625 -28.5 C 141.457031 -21.988281 134.5 -16.96875 128.03125 -13.4375 C 121.5625 -9.914062 115.863281 -7.257812 110.9375 -5.46875 C 105.207031 -3.394531 99.925781 -2.144531 95.09375 -1.71875 C 83.332031 -1.238281 72.175781 -2.515625 61.625 -5.546875 C 51.070312 -8.585938 41.75 -13.222656 33.65625 -19.453125 C 25.5625 -25.691406 19.054688 -33.488281 14.140625 -42.84375 C 9.222656 -52.195312 6.519531 -62.953125 6.03125 -75.109375 C 5.71875 -82.648438 6.144531 -89.6875 7.3125 -96.21875 C 8.476562 -102.75 10.117188 -108.765625 12.234375 -114.265625 C 14.359375 -119.765625 16.800781 -124.738281 19.5625 -129.1875 C 22.332031 -133.644531 25.179688 -137.582031 28.109375 -141 C 31.035156 -144.414062 33.90625 -147.296875 36.71875 -149.640625 C 39.53125 -151.984375 41.984375 -153.796875 44.078125 -155.078125 C 46.085938 -156.359375 48.675781 -157.816406 51.84375 -159.453125 C 55.007812 -161.085938 58.484375 -162.757812 62.265625 -164.46875 C 66.046875 -166.175781 70.050781 -167.875 74.28125 -169.5625 C 78.519531 -171.25 82.835938 -172.773438 87.234375 -174.140625 C 91.640625 -175.515625 95.953125 -176.644531 100.171875 -177.53125 C 104.390625 -178.414062 108.410156 -178.9375 112.234375 -179.09375 C 120.734375 -179.4375 127.617188 -179.316406 132.890625 -178.734375 C 138.171875 -178.160156 142.203125 -177.351562 144.984375 -176.3125 C 147.773438 -175.269531 149.53125 -174.164062 150.25 -173 C 150.976562 -171.832031 151.082031 -170.878906 150.5625 -170.140625 Z M 150.5625 -170.140625 "/></g></g></g><path stroke-linecap="butt" transform="matrix(-0.749004, -0.0386477, 0.0386477, -0.749004, 292.645502, 347.02864)" fill="none" stroke-linejoin="miter" d="M 168.231665 105.754458 C 166.700242 107.710973 164.827506 109.622515 162.618928 111.494019 C 160.746498 113.108275 158.429967 114.80803 155.669336 116.593283 C 152.903771 118.384006 149.69629 119.999352 146.036759 121.445058 C 147.230219 119.912772 147.333465 118.275068 146.356899 116.531407 C 145.380334 114.787747 143.232811 113.193165 139.914332 111.747664 C 136.601054 110.301894 132.112052 109.11497 126.457192 108.175952 C 120.807803 107.241868 113.894329 106.774583 105.732377 106.773295 C 100.970872 106.773865 95.848617 107.262424 90.36588 108.244172 C 84.882875 109.220719 79.46211 110.898115 74.103852 113.281561 C 68.745326 115.659806 63.578704 118.826083 58.603986 122.780394 C 53.63447 126.734437 49.231692 131.665782 45.406324 137.579094 C 41.580688 143.487205 38.537094 150.502322 36.285944 158.623906 C 34.034526 166.74029 32.906896 176.118148 32.907721 186.746811 C 32.908545 197.375473 34.204672 206.727359 36.796103 214.802467 C 39.387803 222.882777 42.833925 229.834225 47.129269 235.657079 C 51.419411 241.480202 56.331958 246.327247 61.856506 250.198751 C 67.385987 254.064785 73.037796 257.168294 78.822336 259.508741 C 84.601674 261.849457 90.282094 263.486001 95.847993 264.419178 C 101.419093 265.352087 106.455226 265.822365 110.961325 265.824542 C 116.151327 265.739278 121.550229 265.356396 127.163231 264.675627 C 132.00884 264.081391 137.345835 263.206253 143.169551 262.060884 C 148.992999 260.910313 154.71105 259.233223 160.323168 257.019212 C 152.076088 263.65613 144.42028 268.713606 137.366682 272.201506 C 130.307615 275.684472 124.099712 278.278648 118.742706 279.97883 C 112.538469 281.936554 106.837708 283.039072 101.651362 283.296251 C 89.066801 283.293692 77.205732 281.444106 66.068155 277.747492 C 54.930578 274.050879 45.17274 268.692417 36.79491 261.677309 C 28.422281 254.661932 21.808456 246.053807 16.963569 235.847196 C 12.118951 225.645787 9.694853 214.041742 9.691009 201.02986 C 9.69139 192.951399 10.456841 185.448862 11.987092 178.517048 C 13.517612 171.590435 15.541654 165.232897 18.049083 159.450172 C 20.556512 153.667447 23.380615 148.462922 26.531258 143.825657 C 29.676968 139.193862 32.887537 135.111538 36.158032 131.584155 C 39.43346 128.051302 42.618778 125.096778 45.724389 122.720045 C 48.829731 120.338111 51.52553 118.509266 53.822189 117.232973 C 56.035357 115.955772 58.860515 114.511397 62.302864 112.899579 C 65.750147 111.28229 69.530051 109.642624 73.658451 107.984975 C 77.781649 106.327595 82.14052 104.689346 86.730133 103.075698 C 91.319746 101.46205 95.996237 100.016023 100.759606 98.737616 C 105.523243 97.464411 110.17466 96.442114 114.724798 95.680591 C 119.274667 94.913866 123.588722 94.529593 127.672433 94.532703 C 136.767854 94.532764 144.122374 94.956429 149.735992 95.8037 C 155.349879 96.656173 159.622773 97.69779 162.554673 98.928551 C 165.486842 100.164515 167.314164 101.415765 168.037175 102.692704 C 168.760187 103.969644 168.823194 104.988584 168.231665 105.754458 Z M 168.231665 105.754458 " stroke="#ffffff" stroke-width="19.5912" stroke-opacity="1" stroke-miterlimit="4"/><g fill="#ef9f3e" fill-opacity="1"><g transform="translate(303.505514, 136.558651)"><g><path d="M -132.765625 124.765625 C -131.546875 123.359375 -130.078125 121.992188 -128.359375 120.671875 C -126.890625 119.535156 -125.082031 118.351562 -122.9375 117.125 C -120.800781 115.894531 -118.34375 114.8125 -115.5625 113.875 C -116.488281 114.96875 -116.625 116.1875 -115.96875 117.53125 C -115.3125 118.875 -113.765625 120.148438 -111.328125 121.359375 C -108.898438 122.566406 -105.585938 123.628906 -101.390625 124.546875 C -97.191406 125.472656 -92.035156 126.09375 -85.921875 126.40625 C -82.359375 126.59375 -78.503906 126.425781 -74.359375 125.90625 C -70.222656 125.382812 -66.097656 124.332031 -61.984375 122.75 C -57.878906 121.175781 -53.890625 119.003906 -50.015625 116.234375 C -46.140625 113.460938 -42.648438 109.9375 -39.546875 105.65625 C -36.453125 101.382812 -33.90625 96.25 -31.90625 90.25 C -29.90625 84.257812 -28.695312 77.285156 -28.28125 69.328125 C -27.875 61.367188 -28.484375 54.3125 -30.109375 48.15625 C -31.742188 42.007812 -34.054688 36.671875 -37.046875 32.140625 C -40.046875 27.617188 -43.535156 23.800781 -47.515625 20.6875 C -51.503906 17.570312 -55.617188 15.023438 -59.859375 13.046875 C -64.097656 11.078125 -68.285156 9.632812 -72.421875 8.71875 C -76.566406 7.800781 -80.328125 7.257812 -83.703125 7.09375 C -87.585938 6.945312 -91.644531 7.019531 -95.875 7.3125 C -99.53125 7.5625 -103.554688 8.003906 -107.953125 8.640625 C -112.359375 9.285156 -116.707031 10.320312 -121 11.75 C -114.570312 7.101562 -108.644531 3.609375 -103.21875 1.265625 C -97.800781 -1.066406 -93.054688 -2.765625 -88.984375 -3.828125 C -84.253906 -5.054688 -79.9375 -5.660156 -76.03125 -5.640625 C -66.613281 -5.160156 -57.804688 -3.320312 -49.609375 -0.125 C -41.410156 3.070312 -34.304688 7.460938 -28.296875 13.046875 C -22.296875 18.628906 -17.675781 25.332031 -14.4375 33.15625 C -11.207031 40.988281 -9.84375 49.78125 -10.34375 59.53125 C -10.65625 65.570312 -11.519531 71.160156 -12.9375 76.296875 C -14.351562 81.429688 -16.113281 86.113281 -18.21875 90.34375 C -20.320312 94.582031 -22.640625 98.375 -25.171875 101.71875 C -27.703125 105.070312 -30.257812 108.003906 -32.84375 110.515625 C -35.4375 113.023438 -37.941406 115.113281 -40.359375 116.78125 C -42.773438 118.445312 -44.875 119.710938 -46.65625 120.578125 C -48.351562 121.453125 -50.523438 122.425781 -53.171875 123.5 C -55.816406 124.570312 -58.710938 125.648438 -61.859375 126.734375 C -65.003906 127.828125 -68.328125 128.882812 -71.828125 129.90625 C -75.335938 130.9375 -78.898438 131.835938 -82.515625 132.609375 C -86.128906 133.378906 -89.648438 133.960938 -93.078125 134.359375 C -96.515625 134.753906 -99.765625 134.875 -102.828125 134.71875 C -109.640625 134.363281 -115.128906 133.757812 -119.296875 132.90625 C -123.472656 132.0625 -126.632812 131.117188 -128.78125 130.078125 C -130.9375 129.035156 -132.257812 128.023438 -132.75 127.046875 C -133.238281 126.078125 -133.242188 125.316406 -132.765625 124.765625 Z M -132.765625 124.765625 "/></g></g></g><g clip-path="url(#fbf2e10bf3)"><g clip-path="url(#d9c79acdd4)"><path fill="#ffffff" d="M 75.785156 210.941406 L 317.414062 210.941406 L 317.414062 238.628906 L 75.785156 238.628906 Z M 75.785156 210.941406 " fill-opacity="1" fill-rule="nonzero"/></g></g><g fill="#ef9f3e" fill-opacity="1"><g transform="translate(102.27542, 232.283963)"><g><path d="M 14.09375 -14.671875 C 13.957031 -14.515625 13.800781 -14.351562 13.625 -14.1875 C 13.46875 -14.0625 13.269531 -13.921875 13.03125 -13.765625 C 12.800781 -13.617188 12.535156 -13.484375 12.234375 -13.359375 C 12.328125 -13.484375 12.332031 -13.617188 12.25 -13.765625 C 12.175781 -13.921875 12 -14.054688 11.71875 -14.171875 C 11.4375 -14.296875 11.054688 -14.394531 10.578125 -14.46875 C 10.109375 -14.550781 9.535156 -14.59375 8.859375 -14.59375 C 8.453125 -14.59375 8.019531 -14.550781 7.5625 -14.46875 C 7.101562 -14.382812 6.648438 -14.242188 6.203125 -14.046875 C 5.753906 -13.847656 5.320312 -13.582031 4.90625 -13.25 C 4.488281 -12.914062 4.117188 -12.5 3.796875 -12 C 3.484375 -11.507812 3.226562 -10.925781 3.03125 -10.25 C 2.84375 -9.570312 2.75 -8.785156 2.75 -7.890625 C 2.75 -7.003906 2.859375 -6.222656 3.078125 -5.546875 C 3.296875 -4.867188 3.582031 -4.285156 3.9375 -3.796875 C 4.300781 -3.304688 4.710938 -2.898438 5.171875 -2.578125 C 5.640625 -2.253906 6.113281 -1.992188 6.59375 -1.796875 C 7.082031 -1.597656 7.554688 -1.457031 8.015625 -1.375 C 8.484375 -1.300781 8.910156 -1.265625 9.296875 -1.265625 C 9.722656 -1.273438 10.175781 -1.3125 10.65625 -1.375 C 11.0625 -1.414062 11.503906 -1.484375 11.984375 -1.578125 C 12.472656 -1.679688 12.953125 -1.828125 13.421875 -2.015625 C 12.734375 -1.453125 12.09375 -1.023438 11.5 -0.734375 C 10.90625 -0.441406 10.382812 -0.222656 9.9375 -0.078125 C 9.425781 0.078125 8.953125 0.164062 8.515625 0.1875 C 7.460938 0.1875 6.46875 0.0351562 5.53125 -0.265625 C 4.601562 -0.578125 3.785156 -1.023438 3.078125 -1.609375 C 2.378906 -2.203125 1.828125 -2.925781 1.421875 -3.78125 C 1.015625 -4.632812 0.8125 -5.609375 0.8125 -6.703125 C 0.8125 -7.378906 0.875 -8.003906 1 -8.578125 C 1.132812 -9.160156 1.304688 -9.691406 1.515625 -10.171875 C 1.722656 -10.660156 1.957031 -11.097656 2.21875 -11.484375 C 2.476562 -11.867188 2.742188 -12.207031 3.015625 -12.5 C 3.296875 -12.800781 3.566406 -13.050781 3.828125 -13.25 C 4.085938 -13.445312 4.3125 -13.601562 4.5 -13.71875 C 4.6875 -13.820312 4.925781 -13.941406 5.21875 -14.078125 C 5.507812 -14.210938 5.828125 -14.347656 6.171875 -14.484375 C 6.515625 -14.628906 6.878906 -14.769531 7.265625 -14.90625 C 7.648438 -15.039062 8.039062 -15.160156 8.4375 -15.265625 C 8.832031 -15.367188 9.21875 -15.453125 9.59375 -15.515625 C 9.976562 -15.578125 10.34375 -15.609375 10.6875 -15.609375 C 11.445312 -15.609375 12.0625 -15.570312 12.53125 -15.5 C 13.007812 -15.4375 13.367188 -15.351562 13.609375 -15.25 C 13.859375 -15.144531 14.007812 -15.035156 14.0625 -14.921875 C 14.125 -14.816406 14.132812 -14.734375 14.09375 -14.671875 Z M 14.09375 -14.671875 "/></g></g></g><g fill="#ef9f3e" fill-opacity="1"><g transform="translate(118.14811, 232.283963)"><g><path d="M 4.265625 -1.109375 C 3.890625 -0.898438 3.523438 -0.722656 3.171875 -0.578125 C 2.828125 -0.429688 2.503906 -0.316406 2.203125 -0.234375 C 1.910156 -0.148438 1.644531 -0.0859375 1.40625 -0.046875 C 1.164062 -0.015625 0.960938 0 0.796875 0 L -0.8125 0 L 0.359375 -0.65625 C 0.472656 -0.8125 0.585938 -0.96875 0.703125 -1.125 C 0.816406 -1.28125 0.914062 -1.425781 1 -1.5625 C 1.082031 -1.707031 1.164062 -1.859375 1.25 -2.015625 C 1.46875 -2.460938 1.796875 -3.1875 2.234375 -4.1875 C 2.410156 -4.613281 2.617188 -5.117188 2.859375 -5.703125 C 3.109375 -6.296875 3.394531 -6.984375 3.71875 -7.765625 C 4.039062 -8.554688 4.394531 -9.445312 4.78125 -10.4375 C 5.175781 -11.4375 5.613281 -12.554688 6.09375 -13.796875 L 7.953125 -15.515625 L 12.140625 -1.3125 C 12.441406 -1.238281 12.726562 -1.1875 13 -1.15625 C 13.28125 -1.132812 13.539062 -1.125 13.78125 -1.125 C 13.90625 -1.125 14.019531 -1.125 14.125 -1.125 C 14.238281 -1.132812 14.332031 -1.144531 14.40625 -1.15625 C 14.488281 -1.164062 14.570312 -1.175781 14.65625 -1.1875 C 14.238281 -0.988281 13.875 -0.816406 13.5625 -0.671875 C 13.257812 -0.523438 12.988281 -0.398438 12.75 -0.296875 C 12.519531 -0.203125 12.300781 -0.128906 12.09375 -0.078125 C 11.894531 -0.0234375 11.691406 0 11.484375 0 L 9.765625 0 L 10.328125 -0.359375 L 8.625 -6.015625 C 8.414062 -5.953125 8.175781 -5.894531 7.90625 -5.84375 C 7.632812 -5.789062 7.3125 -5.742188 6.9375 -5.703125 C 6.5625 -5.660156 6.125 -5.617188 5.625 -5.578125 C 5.132812 -5.546875 4.566406 -5.515625 3.921875 -5.484375 C 3.617188 -4.859375 3.34375 -4.296875 3.09375 -3.796875 C 2.84375 -3.304688 2.617188 -2.878906 2.421875 -2.515625 C 2.222656 -2.148438 2.046875 -1.84375 1.890625 -1.59375 C 1.742188 -1.351562 1.613281 -1.15625 1.5 -1 C 1.625 -0.976562 1.757812 -0.960938 1.90625 -0.953125 C 2.0625 -0.941406 2.210938 -0.9375 2.359375 -0.9375 C 2.585938 -0.9375 2.8125 -0.945312 3.03125 -0.96875 C 3.257812 -0.988281 3.46875 -1.007812 3.65625 -1.03125 C 3.863281 -1.050781 4.066406 -1.078125 4.265625 -1.109375 Z M 5.75 -6.765625 C 6.71875 -6.765625 7.59375 -6.785156 8.375 -6.828125 L 6.734375 -12.25 C 6.296875 -11.113281 5.894531 -10.097656 5.53125 -9.203125 C 5.164062 -8.316406 4.816406 -7.503906 4.484375 -6.765625 Z M 5.75 -6.765625 "/></g></g></g><g fill="#ef9f3e" fill-opacity="1"><g transform="translate(133.764546, 232.283963)"><g><path d="M 11.390625 -11.453125 C 11.335938 -10.921875 11.195312 -10.453125 10.96875 -10.046875 C 10.738281 -9.648438 10.460938 -9.296875 10.140625 -8.984375 C 9.828125 -8.679688 9.484375 -8.425781 9.109375 -8.21875 C 8.742188 -8.007812 8.398438 -7.832031 8.078125 -7.6875 C 8.703125 -7.007812 9.265625 -6.40625 9.765625 -5.875 C 10.265625 -5.34375 10.710938 -4.875 11.109375 -4.46875 C 11.503906 -4.0625 11.84375 -3.710938 12.125 -3.421875 C 12.414062 -3.128906 12.664062 -2.882812 12.875 -2.6875 C 13.351562 -2.207031 13.691406 -1.890625 13.890625 -1.734375 C 14.085938 -1.578125 14.300781 -1.46875 14.53125 -1.40625 C 14.769531 -1.34375 15 -1.3125 15.21875 -1.3125 C 15.40625 -1.3125 15.582031 -1.328125 15.75 -1.359375 C 15.925781 -1.398438 16.0625 -1.441406 16.15625 -1.484375 C 15.8125 -1.253906 15.507812 -1.046875 15.25 -0.859375 C 15 -0.679688 14.765625 -0.523438 14.546875 -0.390625 C 14.328125 -0.253906 14.117188 -0.148438 13.921875 -0.078125 C 13.722656 -0.015625 13.519531 0.015625 13.3125 0.015625 C 13.175781 0.015625 13.035156 -0.00390625 12.890625 -0.046875 C 12.753906 -0.0859375 12.609375 -0.15625 12.453125 -0.25 C 12.304688 -0.34375 12.144531 -0.457031 11.96875 -0.59375 C 11.789062 -0.738281 11.597656 -0.910156 11.390625 -1.109375 C 11.253906 -1.242188 11.050781 -1.460938 10.78125 -1.765625 C 10.507812 -2.066406 10.207031 -2.40625 9.875 -2.78125 C 9.539062 -3.15625 9.191406 -3.546875 8.828125 -3.953125 C 8.460938 -4.359375 8.117188 -4.734375 7.796875 -5.078125 C 7.484375 -5.421875 7.203125 -5.71875 6.953125 -5.96875 C 6.710938 -6.21875 6.546875 -6.375 6.453125 -6.4375 C 6.347656 -6.5 6.234375 -6.550781 6.109375 -6.59375 C 6.003906 -6.644531 5.882812 -6.6875 5.75 -6.71875 C 5.625 -6.75 5.503906 -6.753906 5.390625 -6.734375 L 6.9375 -7.8125 C 7.289062 -7.8125 7.628906 -7.890625 7.953125 -8.046875 C 8.273438 -8.210938 8.554688 -8.453125 8.796875 -8.765625 C 9.035156 -9.085938 9.222656 -9.472656 9.359375 -9.921875 C 9.492188 -10.378906 9.546875 -10.898438 9.515625 -11.484375 C 9.503906 -11.828125 9.425781 -12.140625 9.28125 -12.421875 C 9.144531 -12.703125 8.96875 -12.953125 8.75 -13.171875 C 8.53125 -13.390625 8.28125 -13.582031 8 -13.75 C 7.726562 -13.914062 7.445312 -14.050781 7.15625 -14.15625 C 6.863281 -14.269531 6.570312 -14.351562 6.28125 -14.40625 C 6 -14.457031 5.734375 -14.484375 5.484375 -14.484375 C 5.328125 -14.484375 5.148438 -14.476562 4.953125 -14.46875 C 4.765625 -14.46875 4.570312 -14.46875 4.375 -14.46875 C 4.351562 -13.132812 4.328125 -11.941406 4.296875 -10.890625 C 4.273438 -9.847656 4.253906 -8.921875 4.234375 -8.109375 C 4.210938 -7.296875 4.191406 -6.59375 4.171875 -6 C 4.160156 -5.414062 4.144531 -4.914062 4.125 -4.5 C 4.082031 -3.539062 4.039062 -2.890625 4 -2.546875 C 3.976562 -2.398438 3.945312 -2.253906 3.90625 -2.109375 C 3.851562 -1.972656 3.789062 -1.832031 3.71875 -1.6875 C 3.644531 -1.539062 3.550781 -1.394531 3.4375 -1.25 C 3.75 -1.21875 4.023438 -1.195312 4.265625 -1.1875 C 4.515625 -1.1875 4.742188 -1.1875 4.953125 -1.1875 C 5.441406 -1.1875 5.800781 -1.195312 6.03125 -1.21875 C 6.257812 -1.25 6.394531 -1.273438 6.4375 -1.296875 C 6.0625 -1.109375 5.707031 -0.9375 5.375 -0.78125 C 5.050781 -0.625 4.738281 -0.484375 4.4375 -0.359375 C 4.144531 -0.242188 3.859375 -0.148438 3.578125 -0.078125 C 3.304688 -0.015625 3.039062 0.015625 2.78125 0.015625 L 0.921875 0.015625 L 1.859375 -0.609375 C 1.910156 -0.796875 1.957031 -1.015625 2 -1.265625 C 2.050781 -1.523438 2.09375 -1.800781 2.125 -2.09375 C 2.15625 -2.394531 2.179688 -2.703125 2.203125 -3.015625 C 2.234375 -3.335938 2.257812 -3.648438 2.28125 -3.953125 C 2.320312 -4.660156 2.351562 -5.40625 2.375 -6.1875 C 2.394531 -7.28125 2.410156 -8.335938 2.421875 -9.359375 C 2.429688 -9.796875 2.4375 -10.242188 2.4375 -10.703125 C 2.445312 -11.160156 2.453125 -11.609375 2.453125 -12.046875 C 2.460938 -12.484375 2.46875 -12.898438 2.46875 -13.296875 C 2.476562 -13.691406 2.484375 -14.039062 2.484375 -14.34375 L 0.5625 -14.1875 L 2.65625 -15.4375 C 2.769531 -15.414062 2.898438 -15.40625 3.046875 -15.40625 C 3.191406 -15.40625 3.34375 -15.40625 3.5 -15.40625 C 3.8125 -15.40625 4.113281 -15.414062 4.40625 -15.4375 C 4.707031 -15.46875 5.003906 -15.5 5.296875 -15.53125 C 5.597656 -15.5625 5.890625 -15.585938 6.171875 -15.609375 C 6.453125 -15.640625 6.738281 -15.65625 7.03125 -15.65625 C 7.601562 -15.65625 8.160156 -15.554688 8.703125 -15.359375 C 9.253906 -15.171875 9.738281 -14.894531 10.15625 -14.53125 C 10.570312 -14.175781 10.898438 -13.738281 11.140625 -13.21875 C 11.378906 -12.695312 11.460938 -12.109375 11.390625 -11.453125 Z M 16.1875 -1.5 C 16.175781 -1.5 16.171875 -1.5 16.171875 -1.5 L 16.15625 -1.5 L 16.15625 -1.484375 L 16.15625 -1.5 L 16.171875 -1.5 C 16.179688 -1.5 16.1875 -1.5 16.1875 -1.5 Z M 16.1875 -1.5 "/></g></g></g><g fill="#ef9f3e" fill-opacity="1"><g transform="translate(150.139072, 232.283963)"><g><path d="M 9.390625 -8.375 C 9.328125 -8.34375 9.226562 -8.289062 9.09375 -8.21875 C 8.976562 -8.144531 8.816406 -8.035156 8.609375 -7.890625 C 8.398438 -7.753906 8.125 -7.566406 7.78125 -7.328125 C 7.84375 -7.429688 7.84375 -7.507812 7.78125 -7.5625 C 7.71875 -7.625 7.640625 -7.664062 7.546875 -7.6875 C 7.421875 -7.71875 7.273438 -7.726562 7.109375 -7.71875 C 6.859375 -7.695312 6.488281 -7.671875 6 -7.640625 C 5.519531 -7.617188 4.976562 -7.597656 4.375 -7.578125 C 4.375 -6.429688 4.367188 -5.5 4.359375 -4.78125 C 4.347656 -4.070312 4.335938 -3.519531 4.328125 -3.125 C 4.304688 -2.644531 4.289062 -2.296875 4.28125 -2.078125 C 4.269531 -1.941406 4.226562 -1.804688 4.15625 -1.671875 C 4.09375 -1.546875 4 -1.414062 3.875 -1.28125 C 3.757812 -1.144531 3.585938 -1.023438 3.359375 -0.921875 L 8.203125 -0.921875 C 8.429688 -0.921875 8.660156 -0.9375 8.890625 -0.96875 C 9.097656 -0.988281 9.3125 -1.019531 9.53125 -1.0625 C 9.757812 -1.113281 9.976562 -1.191406 10.1875 -1.296875 C 9.832031 -0.960938 9.476562 -0.703125 9.125 -0.515625 C 8.78125 -0.335938 8.460938 -0.210938 8.171875 -0.140625 C 7.828125 -0.046875 7.503906 0.00390625 7.203125 0.015625 C 6.503906 0.015625 5.84375 0.0195312 5.21875 0.03125 C 4.601562 0.0390625 4.046875 0.0546875 3.546875 0.078125 C 3.046875 0.0976562 2.617188 0.125 2.265625 0.15625 C 1.910156 0.1875 1.65625 0.222656 1.5 0.265625 C 1.726562 0.046875 1.90625 -0.164062 2.03125 -0.375 C 2.15625 -0.59375 2.25 -0.832031 2.3125 -1.09375 C 2.375 -1.363281 2.410156 -1.660156 2.421875 -1.984375 C 2.441406 -2.316406 2.453125 -2.710938 2.453125 -3.171875 L 2.453125 -7.546875 C 2.242188 -7.546875 2.039062 -7.550781 1.84375 -7.5625 C 1.644531 -7.570312 1.453125 -7.582031 1.265625 -7.59375 L 2.453125 -8.203125 C 2.453125 -8.585938 2.445312 -8.988281 2.4375 -9.40625 C 2.4375 -9.832031 2.4375 -10.285156 2.4375 -10.765625 C 2.4375 -11.253906 2.429688 -11.78125 2.421875 -12.34375 C 2.421875 -12.90625 2.421875 -13.515625 2.421875 -14.171875 C 2.097656 -14.171875 1.796875 -14.171875 1.515625 -14.171875 C 1.234375 -14.179688 0.96875 -14.195312 0.71875 -14.21875 L 2.71875 -15.28125 C 4.070312 -15.28125 5.222656 -15.285156 6.171875 -15.296875 C 7.128906 -15.316406 7.925781 -15.335938 8.5625 -15.359375 C 9.28125 -15.390625 9.882812 -15.414062 10.375 -15.4375 C 10.613281 -15.4375 10.769531 -15.414062 10.84375 -15.375 C 10.925781 -15.34375 10.957031 -15.300781 10.9375 -15.25 C 10.925781 -15.207031 10.882812 -15.160156 10.8125 -15.109375 C 10.75 -15.066406 10.6875 -15.03125 10.625 -15 C 10.570312 -14.976562 10.46875 -14.921875 10.3125 -14.828125 C 10.175781 -14.742188 9.984375 -14.617188 9.734375 -14.453125 C 9.492188 -14.285156 9.15625 -14.0625 8.71875 -13.78125 C 8.863281 -13.9375 8.925781 -14.050781 8.90625 -14.125 C 8.882812 -14.195312 8.835938 -14.253906 8.765625 -14.296875 C 8.671875 -14.328125 8.539062 -14.34375 8.375 -14.34375 C 8.238281 -14.332031 8.035156 -14.320312 7.765625 -14.3125 C 7.492188 -14.300781 7.175781 -14.285156 6.8125 -14.265625 C 6.457031 -14.253906 6.066406 -14.238281 5.640625 -14.21875 C 5.222656 -14.207031 4.796875 -14.195312 4.359375 -14.1875 C 4.367188 -13.050781 4.375 -12.03125 4.375 -11.125 C 4.375 -10.21875 4.375 -9.390625 4.375 -8.640625 C 5.101562 -8.648438 5.753906 -8.660156 6.328125 -8.671875 C 6.910156 -8.691406 7.410156 -8.710938 7.828125 -8.734375 C 8.316406 -8.765625 8.75 -8.789062 9.125 -8.8125 C 9.351562 -8.820312 9.503906 -8.804688 9.578125 -8.765625 C 9.660156 -8.734375 9.695312 -8.691406 9.6875 -8.640625 C 9.675781 -8.585938 9.632812 -8.535156 9.5625 -8.484375 C 9.5 -8.429688 9.441406 -8.394531 9.390625 -8.375 Z M 9.390625 -8.375 "/></g></g></g><g fill="#ef9f3e" fill-opacity="1"><g transform="translate(162.958045, 232.283963)"><g><path d="M 9.390625 -8.375 C 9.328125 -8.34375 9.226562 -8.289062 9.09375 -8.21875 C 8.976562 -8.144531 8.816406 -8.035156 8.609375 -7.890625 C 8.398438 -7.753906 8.125 -7.566406 7.78125 -7.328125 C 7.84375 -7.429688 7.84375 -7.507812 7.78125 -7.5625 C 7.71875 -7.625 7.640625 -7.664062 7.546875 -7.6875 C 7.421875 -7.71875 7.273438 -7.726562 7.109375 -7.71875 C 6.859375 -7.695312 6.488281 -7.671875 6 -7.640625 C 5.519531 -7.617188 4.976562 -7.597656 4.375 -7.578125 C 4.375 -6.429688 4.367188 -5.5 4.359375 -4.78125 C 4.347656 -4.070312 4.335938 -3.519531 4.328125 -3.125 C 4.304688 -2.644531 4.289062 -2.296875 4.28125 -2.078125 C 4.269531 -1.941406 4.226562 -1.804688 4.15625 -1.671875 C 4.09375 -1.546875 4 -1.414062 3.875 -1.28125 C 3.757812 -1.144531 3.585938 -1.023438 3.359375 -0.921875 L 8.203125 -0.921875 C 8.429688 -0.921875 8.660156 -0.9375 8.890625 -0.96875 C 9.097656 -0.988281 9.3125 -1.019531 9.53125 -1.0625 C 9.757812 -1.113281 9.976562 -1.191406 10.1875 -1.296875 C 9.832031 -0.960938 9.476562 -0.703125 9.125 -0.515625 C 8.78125 -0.335938 8.460938 -0.210938 8.171875 -0.140625 C 7.828125 -0.046875 7.503906 0.00390625 7.203125 0.015625 C 6.503906 0.015625 5.84375 0.0195312 5.21875 0.03125 C 4.601562 0.0390625 4.046875 0.0546875 3.546875 0.078125 C 3.046875 0.0976562 2.617188 0.125 2.265625 0.15625 C 1.910156 0.1875 1.65625 0.222656 1.5 0.265625 C 1.726562 0.046875 1.90625 -0.164062 2.03125 -0.375 C 2.15625 -0.59375 2.25 -0.832031 2.3125 -1.09375 C 2.375 -1.363281 2.410156 -1.660156 2.421875 -1.984375 C 2.441406 -2.316406 2.453125 -2.710938 2.453125 -3.171875 L 2.453125 -7.546875 C 2.242188 -7.546875 2.039062 -7.550781 1.84375 -7.5625 C 1.644531 -7.570312 1.453125 -7.582031 1.265625 -7.59375 L 2.453125 -8.203125 C 2.453125 -8.585938 2.445312 -8.988281 2.4375 -9.40625 C 2.4375 -9.832031 2.4375 -10.285156 2.4375 -10.765625 C 2.4375 -11.253906 2.429688 -11.78125 2.421875 -12.34375 C 2.421875 -12.90625 2.421875 -13.515625 2.421875 -14.171875 C 2.097656 -14.171875 1.796875 -14.171875 1.515625 -14.171875 C 1.234375 -14.179688 0.96875 -14.195312 0.71875 -14.21875 L 2.71875 -15.28125 C 4.070312 -15.28125 5.222656 -15.285156 6.171875 -15.296875 C 7.128906 -15.316406 7.925781 -15.335938 8.5625 -15.359375 C 9.28125 -15.390625 9.882812 -15.414062 10.375 -15.4375 C 10.613281 -15.4375 10.769531 -15.414062 10.84375 -15.375 C 10.925781 -15.34375 10.957031 -15.300781 10.9375 -15.25 C 10.925781 -15.207031 10.882812 -15.160156 10.8125 -15.109375 C 10.75 -15.066406 10.6875 -15.03125 10.625 -15 C 10.570312 -14.976562 10.46875 -14.921875 10.3125 -14.828125 C 10.175781 -14.742188 9.984375 -14.617188 9.734375 -14.453125 C 9.492188 -14.285156 9.15625 -14.0625 8.71875 -13.78125 C 8.863281 -13.9375 8.925781 -14.050781 8.90625 -14.125 C 8.882812 -14.195312 8.835938 -14.253906 8.765625 -14.296875 C 8.671875 -14.328125 8.539062 -14.34375 8.375 -14.34375 C 8.238281 -14.332031 8.035156 -14.320312 7.765625 -14.3125 C 7.492188 -14.300781 7.175781 -14.285156 6.8125 -14.265625 C 6.457031 -14.253906 6.066406 -14.238281 5.640625 -14.21875 C 5.222656 -14.207031 4.796875 -14.195312 4.359375 -14.1875 C 4.367188 -13.050781 4.375 -12.03125 4.375 -11.125 C 4.375 -10.21875 4.375 -9.390625 4.375 -8.640625 C 5.101562 -8.648438 5.753906 -8.660156 6.328125 -8.671875 C 6.910156 -8.691406 7.410156 -8.710938 7.828125 -8.734375 C 8.316406 -8.765625 8.75 -8.789062 9.125 -8.8125 C 9.351562 -8.820312 9.503906 -8.804688 9.578125 -8.765625 C 9.660156 -8.734375 9.695312 -8.691406 9.6875 -8.640625 C 9.675781 -8.585938 9.632812 -8.535156 9.5625 -8.484375 C 9.5 -8.429688 9.441406 -8.394531 9.390625 -8.375 Z M 9.390625 -8.375 "/></g></g></g><g fill="#ef9f3e" fill-opacity="1"><g transform="translate(175.777018, 232.283963)"><g><path d="M 11.390625 -11.453125 C 11.335938 -10.921875 11.195312 -10.453125 10.96875 -10.046875 C 10.738281 -9.648438 10.460938 -9.296875 10.140625 -8.984375 C 9.828125 -8.679688 9.484375 -8.425781 9.109375 -8.21875 C 8.742188 -8.007812 8.398438 -7.832031 8.078125 -7.6875 C 8.703125 -7.007812 9.265625 -6.40625 9.765625 -5.875 C 10.265625 -5.34375 10.710938 -4.875 11.109375 -4.46875 C 11.503906 -4.0625 11.84375 -3.710938 12.125 -3.421875 C 12.414062 -3.128906 12.664062 -2.882812 12.875 -2.6875 C 13.351562 -2.207031 13.691406 -1.890625 13.890625 -1.734375 C 14.085938 -1.578125 14.300781 -1.46875 14.53125 -1.40625 C 14.769531 -1.34375 15 -1.3125 15.21875 -1.3125 C 15.40625 -1.3125 15.582031 -1.328125 15.75 -1.359375 C 15.925781 -1.398438 16.0625 -1.441406 16.15625 -1.484375 C 15.8125 -1.253906 15.507812 -1.046875 15.25 -0.859375 C 15 -0.679688 14.765625 -0.523438 14.546875 -0.390625 C 14.328125 -0.253906 14.117188 -0.148438 13.921875 -0.078125 C 13.722656 -0.015625 13.519531 0.015625 13.3125 0.015625 C 13.175781 0.015625 13.035156 -0.00390625 12.890625 -0.046875 C 12.753906 -0.0859375 12.609375 -0.15625 12.453125 -0.25 C 12.304688 -0.34375 12.144531 -0.457031 11.96875 -0.59375 C 11.789062 -0.738281 11.597656 -0.910156 11.390625 -1.109375 C 11.253906 -1.242188 11.050781 -1.460938 10.78125 -1.765625 C 10.507812 -2.066406 10.207031 -2.40625 9.875 -2.78125 C 9.539062 -3.15625 9.191406 -3.546875 8.828125 -3.953125 C 8.460938 -4.359375 8.117188 -4.734375 7.796875 -5.078125 C 7.484375 -5.421875 7.203125 -5.71875 6.953125 -5.96875 C 6.710938 -6.21875 6.546875 -6.375 6.453125 -6.4375 C 6.347656 -6.5 6.234375 -6.550781 6.109375 -6.59375 C 6.003906 -6.644531 5.882812 -6.6875 5.75 -6.71875 C 5.625 -6.75 5.503906 -6.753906 5.390625 -6.734375 L 6.9375 -7.8125 C 7.289062 -7.8125 7.628906 -7.890625 7.953125 -8.046875 C 8.273438 -8.210938 8.554688 -8.453125 8.796875 -8.765625 C 9.035156 -9.085938 9.222656 -9.472656 9.359375 -9.921875 C 9.492188 -10.378906 9.546875 -10.898438 9.515625 -11.484375 C 9.503906 -11.828125 9.425781 -12.140625 9.28125 -12.421875 C 9.144531 -12.703125 8.96875 -12.953125 8.75 -13.171875 C 8.53125 -13.390625 8.28125 -13.582031 8 -13.75 C 7.726562 -13.914062 7.445312 -14.050781 7.15625 -14.15625 C 6.863281 -14.269531 6.570312 -14.351562 6.28125 -14.40625 C 6 -14.457031 5.734375 -14.484375 5.484375 -14.484375 C 5.328125 -14.484375 5.148438 -14.476562 4.953125 -14.46875 C 4.765625 -14.46875 4.570312 -14.46875 4.375 -14.46875 C 4.351562 -13.132812 4.328125 -11.941406 4.296875 -10.890625 C 4.273438 -9.847656 4.253906 -8.921875 4.234375 -8.109375 C 4.210938 -7.296875 4.191406 -6.59375 4.171875 -6 C 4.160156 -5.414062 4.144531 -4.914062 4.125 -4.5 C 4.082031 -3.539062 4.039062 -2.890625 4 -2.546875 C 3.976562 -2.398438 3.945312 -2.253906 3.90625 -2.109375 C 3.851562 -1.972656 3.789062 -1.832031 3.71875 -1.6875 C 3.644531 -1.539062 3.550781 -1.394531 3.4375 -1.25 C 3.75 -1.21875 4.023438 -1.195312 4.265625 -1.1875 C 4.515625 -1.1875 4.742188 -1.1875 4.953125 -1.1875 C 5.441406 -1.1875 5.800781 -1.195312 6.03125 -1.21875 C 6.257812 -1.25 6.394531 -1.273438 6.4375 -1.296875 C 6.0625 -1.109375 5.707031 -0.9375 5.375 -0.78125 C 5.050781 -0.625 4.738281 -0.484375 4.4375 -0.359375 C 4.144531 -0.242188 3.859375 -0.148438 3.578125 -0.078125 C 3.304688 -0.015625 3.039062 0.015625 2.78125 0.015625 L 0.921875 0.015625 L 1.859375 -0.609375 C 1.910156 -0.796875 1.957031 -1.015625 2 -1.265625 C 2.050781 -1.523438 2.09375 -1.800781 2.125 -2.09375 C 2.15625 -2.394531 2.179688 -2.703125 2.203125 -3.015625 C 2.234375 -3.335938 2.257812 -3.648438 2.28125 -3.953125 C 2.320312 -4.660156 2.351562 -5.40625 2.375 -6.1875 C 2.394531 -7.28125 2.410156 -8.335938 2.421875 -9.359375 C 2.429688 -9.796875 2.4375 -10.242188 2.4375 -10.703125 C 2.445312 -11.160156 2.453125 -11.609375 2.453125 -12.046875 C 2.460938 -12.484375 2.46875 -12.898438 2.46875 -13.296875 C 2.476562 -13.691406 2.484375 -14.039062 2.484375 -14.34375 L 0.5625 -14.1875 L 2.65625 -15.4375 C 2.769531 -15.414062 2.898438 -15.40625 3.046875 -15.40625 C 3.191406 -15.40625 3.34375 -15.40625 3.5 -15.40625 C 3.8125 -15.40625 4.113281 -15.414062 4.40625 -15.4375 C 4.707031 -15.46875 5.003906 -15.5 5.296875 -15.53125 C 5.597656 -15.5625 5.890625 -15.585938 6.171875 -15.609375 C 6.453125 -15.640625 6.738281 -15.65625 7.03125 -15.65625 C 7.601562 -15.65625 8.160156 -15.554688 8.703125 -15.359375 C 9.253906 -15.171875 9.738281 -14.894531 10.15625 -14.53125 C 10.570312 -14.175781 10.898438 -13.738281 11.140625 -13.21875 C 11.378906 -12.695312 11.460938 -12.109375 11.390625 -11.453125 Z M 16.1875 -1.5 C 16.175781 -1.5 16.171875 -1.5 16.171875 -1.5 L 16.15625 -1.5 L 16.15625 -1.484375 L 16.15625 -1.5 L 16.171875 -1.5 C 16.179688 -1.5 16.1875 -1.5 16.1875 -1.5 Z M 16.1875 -1.5 "/></g></g></g><g fill="#ef9f3e" fill-opacity="1"><g transform="translate(192.151544, 232.283963)"><g/></g></g><g fill="#ef9f3e" fill-opacity="1"><g transform="translate(199.236787, 232.283963)"><g><path d="M 14.09375 -14.671875 C 13.957031 -14.515625 13.800781 -14.351562 13.625 -14.1875 C 13.46875 -14.0625 13.269531 -13.921875 13.03125 -13.765625 C 12.800781 -13.617188 12.535156 -13.484375 12.234375 -13.359375 C 12.328125 -13.484375 12.332031 -13.617188 12.25 -13.765625 C 12.175781 -13.921875 12 -14.054688 11.71875 -14.171875 C 11.4375 -14.296875 11.054688 -14.394531 10.578125 -14.46875 C 10.109375 -14.550781 9.535156 -14.59375 8.859375 -14.59375 C 8.453125 -14.59375 8.019531 -14.550781 7.5625 -14.46875 C 7.101562 -14.382812 6.648438 -14.242188 6.203125 -14.046875 C 5.753906 -13.847656 5.320312 -13.582031 4.90625 -13.25 C 4.488281 -12.914062 4.117188 -12.5 3.796875 -12 C 3.484375 -11.507812 3.226562 -10.925781 3.03125 -10.25 C 2.84375 -9.570312 2.75 -8.785156 2.75 -7.890625 C 2.75 -7.003906 2.859375 -6.222656 3.078125 -5.546875 C 3.296875 -4.867188 3.582031 -4.285156 3.9375 -3.796875 C 4.300781 -3.304688 4.710938 -2.898438 5.171875 -2.578125 C 5.640625 -2.253906 6.113281 -1.992188 6.59375 -1.796875 C 7.082031 -1.597656 7.554688 -1.457031 8.015625 -1.375 C 8.484375 -1.300781 8.910156 -1.265625 9.296875 -1.265625 C 9.722656 -1.273438 10.175781 -1.3125 10.65625 -1.375 C 11.0625 -1.414062 11.503906 -1.484375 11.984375 -1.578125 C 12.472656 -1.679688 12.953125 -1.828125 13.421875 -2.015625 C 12.734375 -1.453125 12.09375 -1.023438 11.5 -0.734375 C 10.90625 -0.441406 10.382812 -0.222656 9.9375 -0.078125 C 9.425781 0.078125 8.953125 0.164062 8.515625 0.1875 C 7.460938 0.1875 6.46875 0.0351562 5.53125 -0.265625 C 4.601562 -0.578125 3.785156 -1.023438 3.078125 -1.609375 C 2.378906 -2.203125 1.828125 -2.925781 1.421875 -3.78125 C 1.015625 -4.632812 0.8125 -5.609375 0.8125 -6.703125 C 0.8125 -7.378906 0.875 -8.003906 1 -8.578125 C 1.132812 -9.160156 1.304688 -9.691406 1.515625 -10.171875 C 1.722656 -10.660156 1.957031 -11.097656 2.21875 -11.484375 C 2.476562 -11.867188 2.742188 -12.207031 3.015625 -12.5 C 3.296875 -12.800781 3.566406 -13.050781 3.828125 -13.25 C 4.085938 -13.445312 4.3125 -13.601562 4.5 -13.71875 C 4.6875 -13.820312 4.925781 -13.941406 5.21875 -14.078125 C 5.507812 -14.210938 5.828125 -14.347656 6.171875 -14.484375 C 6.515625 -14.628906 6.878906 -14.769531 7.265625 -14.90625 C 7.648438 -15.039062 8.039062 -15.160156 8.4375 -15.265625 C 8.832031 -15.367188 9.21875 -15.453125 9.59375 -15.515625 C 9.976562 -15.578125 10.34375 -15.609375 10.6875 -15.609375 C 11.445312 -15.609375 12.0625 -15.570312 12.53125 -15.5 C 13.007812 -15.4375 13.367188 -15.351562 13.609375 -15.25 C 13.859375 -15.144531 14.007812 -15.035156 14.0625 -14.921875 C 14.125 -14.816406 14.132812 -14.734375 14.09375 -14.671875 Z M 14.09375 -14.671875 "/></g></g></g><g fill="#ef9f3e" fill-opacity="1"><g transform="translate(215.109477, 232.283963)"><g><path d="M 6.171875 -15.90625 C 5.835938 -15.6875 5.535156 -15.503906 5.265625 -15.359375 C 5.003906 -15.210938 4.75 -15.085938 4.5 -14.984375 C 4.488281 -14.367188 4.472656 -13.800781 4.453125 -13.28125 C 4.441406 -12.757812 4.429688 -12.265625 4.421875 -11.796875 C 4.410156 -11.335938 4.398438 -10.898438 4.390625 -10.484375 C 4.390625 -10.078125 4.382812 -9.679688 4.375 -9.296875 C 4.757812 -9.367188 5.148438 -9.40625 5.546875 -9.40625 C 5.941406 -9.40625 6.394531 -9.398438 6.90625 -9.390625 C 7.425781 -9.378906 7.960938 -9.363281 8.515625 -9.34375 C 9.078125 -9.332031 9.640625 -9.320312 10.203125 -9.3125 C 10.765625 -9.300781 11.285156 -9.296875 11.765625 -9.296875 L 12.265625 -9.296875 L 12.265625 -14.609375 C 12.046875 -14.585938 11.773438 -14.5625 11.453125 -14.53125 C 11.140625 -14.5 10.785156 -14.453125 10.390625 -14.390625 C 10.773438 -14.710938 11.117188 -14.953125 11.421875 -15.109375 C 11.734375 -15.265625 12 -15.382812 12.21875 -15.46875 C 12.476562 -15.550781 12.707031 -15.597656 12.90625 -15.609375 C 13.15625 -15.609375 13.429688 -15.613281 13.734375 -15.625 C 14.035156 -15.644531 14.328125 -15.664062 14.609375 -15.6875 C 14.898438 -15.71875 15.160156 -15.75 15.390625 -15.78125 C 15.617188 -15.820312 15.789062 -15.863281 15.90625 -15.90625 C 15.570312 -15.6875 15.269531 -15.503906 15 -15.359375 C 14.726562 -15.210938 14.472656 -15.085938 14.234375 -14.984375 C 14.203125 -13.691406 14.175781 -12.535156 14.15625 -11.515625 C 14.132812 -10.492188 14.113281 -9.585938 14.09375 -8.796875 C 14.070312 -8.015625 14.054688 -7.332031 14.046875 -6.75 C 14.035156 -6.175781 14.03125 -5.6875 14.03125 -5.28125 C 14.007812 -4.332031 14 -3.6875 14 -3.34375 C 14 -3.082031 13.960938 -2.820312 13.890625 -2.5625 C 13.835938 -2.34375 13.753906 -2.101562 13.640625 -1.84375 C 13.523438 -1.59375 13.363281 -1.367188 13.15625 -1.171875 C 13.28125 -1.148438 13.398438 -1.132812 13.515625 -1.125 C 13.640625 -1.125 13.765625 -1.125 13.890625 -1.125 C 14.222656 -1.125 14.519531 -1.140625 14.78125 -1.171875 C 15.050781 -1.210938 15.285156 -1.25 15.484375 -1.28125 C 15.679688 -1.3125 15.835938 -1.34375 15.953125 -1.375 C 16.066406 -1.414062 16.132812 -1.445312 16.15625 -1.46875 C 15.78125 -1.207031 15.46875 -0.984375 15.21875 -0.796875 C 14.96875 -0.609375 14.742188 -0.457031 14.546875 -0.34375 C 14.347656 -0.226562 14.15625 -0.140625 13.96875 -0.078125 C 13.78125 -0.0234375 13.554688 0 13.296875 0 C 12.953125 0 12.660156 -0.0078125 12.421875 -0.03125 C 12.179688 -0.0625 11.941406 -0.078125 11.703125 -0.078125 C 11.585938 -0.078125 11.46875 -0.0703125 11.34375 -0.0625 C 11.21875 -0.0507812 11.078125 -0.03125 10.921875 0 C 11.148438 -0.101562 11.347656 -0.210938 11.515625 -0.328125 C 11.679688 -0.453125 11.820312 -0.617188 11.9375 -0.828125 C 12.050781 -1.035156 12.132812 -1.3125 12.1875 -1.65625 C 12.238281 -2 12.265625 -2.460938 12.265625 -3.046875 L 12.265625 -8.59375 C 12.066406 -8.550781 11.835938 -8.515625 11.578125 -8.484375 C 11.316406 -8.460938 11.019531 -8.453125 10.6875 -8.453125 C 10.226562 -8.453125 9.6875 -8.460938 9.0625 -8.484375 C 8.445312 -8.515625 7.769531 -8.53125 7.03125 -8.53125 C 6.601562 -8.53125 6.164062 -8.519531 5.71875 -8.5 C 5.269531 -8.476562 4.816406 -8.441406 4.359375 -8.390625 C 4.328125 -7.347656 4.304688 -6.5 4.296875 -5.84375 C 4.285156 -5.1875 4.273438 -4.671875 4.265625 -4.296875 C 4.265625 -3.867188 4.265625 -3.550781 4.265625 -3.34375 C 4.253906 -3.082031 4.21875 -2.820312 4.15625 -2.5625 C 4.09375 -2.34375 4.003906 -2.101562 3.890625 -1.84375 C 3.785156 -1.59375 3.625 -1.367188 3.40625 -1.171875 C 3.539062 -1.148438 3.664062 -1.132812 3.78125 -1.125 C 3.90625 -1.125 4.03125 -1.125 4.15625 -1.125 C 4.488281 -1.125 4.785156 -1.140625 5.046875 -1.171875 C 5.316406 -1.210938 5.550781 -1.25 5.75 -1.28125 C 5.945312 -1.3125 6.101562 -1.34375 6.21875 -1.375 C 6.332031 -1.414062 6.40625 -1.445312 6.4375 -1.46875 C 6.050781 -1.207031 5.734375 -0.984375 5.484375 -0.796875 C 5.234375 -0.609375 5.007812 -0.457031 4.8125 -0.34375 C 4.613281 -0.226562 4.421875 -0.140625 4.234375 -0.078125 C 4.046875 -0.0234375 3.820312 0 3.5625 0 C 3.226562 0 2.9375 -0.0078125 2.6875 -0.03125 C 2.445312 -0.0625 2.207031 -0.078125 1.96875 -0.078125 C 1.84375 -0.078125 1.71875 -0.0703125 1.59375 -0.0625 C 1.46875 -0.0507812 1.332031 -0.03125 1.1875 0 C 1.382812 -0.164062 1.5625 -0.347656 1.71875 -0.546875 C 1.882812 -0.753906 2.023438 -1.003906 2.140625 -1.296875 C 2.265625 -1.585938 2.359375 -1.9375 2.421875 -2.34375 C 2.484375 -2.75 2.515625 -3.242188 2.515625 -3.828125 L 2.515625 -8.078125 C 2.359375 -8.035156 2.203125 -7.992188 2.046875 -7.953125 C 1.890625 -7.910156 1.726562 -7.863281 1.5625 -7.8125 C 1.726562 -7.945312 1.890625 -8.078125 2.046875 -8.203125 C 2.203125 -8.328125 2.359375 -8.445312 2.515625 -8.5625 L 2.515625 -14.609375 C 2.296875 -14.585938 2.03125 -14.5625 1.71875 -14.53125 C 1.40625 -14.5 1.050781 -14.453125 0.65625 -14.390625 C 1.039062 -14.710938 1.382812 -14.953125 1.6875 -15.109375 C 2 -15.265625 2.265625 -15.382812 2.484375 -15.46875 C 2.742188 -15.550781 2.972656 -15.597656 3.171875 -15.609375 C 3.421875 -15.609375 3.695312 -15.613281 4 -15.625 C 4.300781 -15.644531 4.59375 -15.664062 4.875 -15.6875 C 5.15625 -15.71875 5.410156 -15.75 5.640625 -15.78125 C 5.878906 -15.820312 6.054688 -15.863281 6.171875 -15.90625 Z M 6.4375 -1.46875 C 6.4375 -1.476562 6.441406 -1.484375 6.453125 -1.484375 Z M 16.15625 -1.46875 L 16.171875 -1.46875 C 16.179688 -1.476562 16.1875 -1.484375 16.1875 -1.484375 Z M 16.15625 -1.46875 "/></g></g></g><g fill="#ef9f3e" fill-opacity="1"><g transform="translate(233.29915, 232.283963)"><g><path d="M 4.265625 -1.109375 C 3.890625 -0.898438 3.523438 -0.722656 3.171875 -0.578125 C 2.828125 -0.429688 2.503906 -0.316406 2.203125 -0.234375 C 1.910156 -0.148438 1.644531 -0.0859375 1.40625 -0.046875 C 1.164062 -0.015625 0.960938 0 0.796875 0 L -0.8125 0 L 0.359375 -0.65625 C 0.472656 -0.8125 0.585938 -0.96875 0.703125 -1.125 C 0.816406 -1.28125 0.914062 -1.425781 1 -1.5625 C 1.082031 -1.707031 1.164062 -1.859375 1.25 -2.015625 C 1.46875 -2.460938 1.796875 -3.1875 2.234375 -4.1875 C 2.410156 -4.613281 2.617188 -5.117188 2.859375 -5.703125 C 3.109375 -6.296875 3.394531 -6.984375 3.71875 -7.765625 C 4.039062 -8.554688 4.394531 -9.445312 4.78125 -10.4375 C 5.175781 -11.4375 5.613281 -12.554688 6.09375 -13.796875 L 7.953125 -15.515625 L 12.140625 -1.3125 C 12.441406 -1.238281 12.726562 -1.1875 13 -1.15625 C 13.28125 -1.132812 13.539062 -1.125 13.78125 -1.125 C 13.90625 -1.125 14.019531 -1.125 14.125 -1.125 C 14.238281 -1.132812 14.332031 -1.144531 14.40625 -1.15625 C 14.488281 -1.164062 14.570312 -1.175781 14.65625 -1.1875 C 14.238281 -0.988281 13.875 -0.816406 13.5625 -0.671875 C 13.257812 -0.523438 12.988281 -0.398438 12.75 -0.296875 C 12.519531 -0.203125 12.300781 -0.128906 12.09375 -0.078125 C 11.894531 -0.0234375 11.691406 0 11.484375 0 L 9.765625 0 L 10.328125 -0.359375 L 8.625 -6.015625 C 8.414062 -5.953125 8.175781 -5.894531 7.90625 -5.84375 C 7.632812 -5.789062 7.3125 -5.742188 6.9375 -5.703125 C 6.5625 -5.660156 6.125 -5.617188 5.625 -5.578125 C 5.132812 -5.546875 4.566406 -5.515625 3.921875 -5.484375 C 3.617188 -4.859375 3.34375 -4.296875 3.09375 -3.796875 C 2.84375 -3.304688 2.617188 -2.878906 2.421875 -2.515625 C 2.222656 -2.148438 2.046875 -1.84375 1.890625 -1.59375 C 1.742188 -1.351562 1.613281 -1.15625 1.5 -1 C 1.625 -0.976562 1.757812 -0.960938 1.90625 -0.953125 C 2.0625 -0.941406 2.210938 -0.9375 2.359375 -0.9375 C 2.585938 -0.9375 2.8125 -0.945312 3.03125 -0.96875 C 3.257812 -0.988281 3.46875 -1.007812 3.65625 -1.03125 C 3.863281 -1.050781 4.066406 -1.078125 4.265625 -1.109375 Z M 5.75 -6.765625 C 6.71875 -6.765625 7.59375 -6.785156 8.375 -6.828125 L 6.734375 -12.25 C 6.296875 -11.113281 5.894531 -10.097656 5.53125 -9.203125 C 5.164062 -8.316406 4.816406 -7.503906 4.484375 -6.765625 Z M 5.75 -6.765625 "/></g></g></g><g fill="#ef9f3e" fill-opacity="1"><g transform="translate(248.915586, 232.283963)"><g><path d="M 13.828125 -15.8125 C 13.398438 -15.519531 13.019531 -15.285156 12.6875 -15.109375 C 12.363281 -14.941406 12.046875 -14.8125 11.734375 -14.71875 C 11.367188 -14.144531 10.96875 -13.597656 10.53125 -13.078125 C 10.101562 -12.566406 9.65625 -12.066406 9.1875 -11.578125 C 8.71875 -11.097656 8.242188 -10.625 7.765625 -10.15625 C 7.285156 -9.695312 6.816406 -9.242188 6.359375 -8.796875 C 6.660156 -8.367188 7.003906 -7.890625 7.390625 -7.359375 C 7.773438 -6.828125 8.1875 -6.296875 8.625 -5.765625 C 9.070312 -5.234375 9.539062 -4.710938 10.03125 -4.203125 C 10.53125 -3.691406 11.039062 -3.238281 11.5625 -2.84375 C 12.082031 -2.457031 12.609375 -2.144531 13.140625 -1.90625 C 13.679688 -1.664062 14.210938 -1.546875 14.734375 -1.546875 C 14.921875 -1.546875 15.117188 -1.566406 15.328125 -1.609375 C 15.535156 -1.648438 15.75 -1.726562 15.96875 -1.84375 C 15.539062 -1.375 15.164062 -1.007812 14.84375 -0.75 C 14.519531 -0.488281 14.25 -0.300781 14.03125 -0.1875 C 13.769531 -0.03125 13.546875 0.0546875 13.359375 0.078125 C 13.128906 0.109375 12.847656 0.0625 12.515625 -0.0625 C 12.191406 -0.195312 11.835938 -0.378906 11.453125 -0.609375 C 11.078125 -0.847656 10.679688 -1.125 10.265625 -1.4375 C 9.847656 -1.75 9.445312 -2.078125 9.0625 -2.421875 C 8.625 -2.828125 8.160156 -3.296875 7.671875 -3.828125 C 7.242188 -4.285156 6.765625 -4.835938 6.234375 -5.484375 C 5.710938 -6.140625 5.171875 -6.882812 4.609375 -7.71875 L 5.53125 -8.875 C 5.75 -9.050781 6.003906 -9.269531 6.296875 -9.53125 C 6.585938 -9.800781 6.890625 -10.09375 7.203125 -10.40625 C 7.523438 -10.726562 7.851562 -11.066406 8.1875 -11.421875 C 8.519531 -11.785156 8.832031 -12.144531 9.125 -12.5 C 9.414062 -12.863281 9.675781 -13.21875 9.90625 -13.5625 C 10.132812 -13.914062 10.3125 -14.242188 10.4375 -14.546875 C 10.226562 -14.523438 9.9375 -14.492188 9.5625 -14.453125 C 9.195312 -14.421875 8.78125 -14.367188 8.3125 -14.296875 C 8.695312 -14.609375 9.039062 -14.847656 9.34375 -15.015625 C 9.65625 -15.179688 9.921875 -15.300781 10.140625 -15.375 C 10.390625 -15.46875 10.617188 -15.519531 10.828125 -15.53125 C 11.078125 -15.519531 11.351562 -15.519531 11.65625 -15.53125 C 11.957031 -15.550781 12.25 -15.570312 12.53125 -15.59375 C 12.8125 -15.625 13.066406 -15.65625 13.296875 -15.6875 C 13.523438 -15.726562 13.703125 -15.769531 13.828125 -15.8125 Z M 6.453125 -1.375 C 6.066406 -1.125 5.75 -0.90625 5.5 -0.71875 C 5.25 -0.53125 5.019531 -0.375 4.8125 -0.25 C 4.613281 -0.132812 4.421875 -0.0507812 4.234375 0 C 4.046875 0.0507812 3.820312 0.078125 3.5625 0.078125 C 3.226562 0.078125 2.9375 0.0625 2.6875 0.03125 C 2.445312 0.0078125 2.207031 0 1.96875 0 C 1.84375 0 1.71875 0.00390625 1.59375 0.015625 C 1.46875 0.0234375 1.332031 0.046875 1.1875 0.078125 C 1.382812 -0.0859375 1.5625 -0.269531 1.71875 -0.46875 C 1.882812 -0.664062 2.023438 -0.910156 2.140625 -1.203125 C 2.265625 -1.492188 2.359375 -1.84375 2.421875 -2.25 C 2.484375 -2.664062 2.515625 -3.160156 2.515625 -3.734375 L 2.515625 -14.53125 C 2.296875 -14.507812 2.03125 -14.476562 1.71875 -14.4375 C 1.40625 -14.40625 1.050781 -14.359375 0.65625 -14.296875 C 1.039062 -14.609375 1.382812 -14.847656 1.6875 -15.015625 C 2 -15.179688 2.265625 -15.300781 2.484375 -15.375 C 2.742188 -15.46875 2.972656 -15.519531 3.171875 -15.53125 C 3.421875 -15.519531 3.695312 -15.519531 4 -15.53125 C 4.300781 -15.550781 4.59375 -15.570312 4.875 -15.59375 C 5.15625 -15.625 5.410156 -15.65625 5.640625 -15.6875 C 5.878906 -15.726562 6.054688 -15.769531 6.171875 -15.8125 C 5.835938 -15.59375 5.535156 -15.40625 5.265625 -15.25 C 5.003906 -15.101562 4.75 -14.976562 4.5 -14.875 C 4.46875 -13.59375 4.4375 -12.441406 4.40625 -11.421875 C 4.382812 -10.398438 4.363281 -9.492188 4.34375 -8.703125 C 4.332031 -7.921875 4.320312 -7.242188 4.3125 -6.671875 C 4.300781 -6.097656 4.289062 -5.609375 4.28125 -5.203125 C 4.257812 -4.253906 4.253906 -3.601562 4.265625 -3.25 C 4.253906 -2.988281 4.21875 -2.734375 4.15625 -2.484375 C 4.09375 -2.253906 4.003906 -2.007812 3.890625 -1.75 C 3.785156 -1.5 3.625 -1.269531 3.40625 -1.0625 C 3.539062 -1.050781 3.671875 -1.046875 3.796875 -1.046875 C 3.929688 -1.046875 4.054688 -1.046875 4.171875 -1.046875 C 4.535156 -1.046875 4.859375 -1.0625 5.140625 -1.09375 C 5.421875 -1.125 5.660156 -1.160156 5.859375 -1.203125 C 6.078125 -1.253906 6.273438 -1.3125 6.453125 -1.375 Z M 6.453125 -1.375 "/></g></g></g><g fill="#ef9f3e" fill-opacity="1"><g transform="translate(265.514335, 232.283963)"><g><path d="M 11.390625 -11.453125 C 11.335938 -10.921875 11.195312 -10.453125 10.96875 -10.046875 C 10.738281 -9.648438 10.460938 -9.296875 10.140625 -8.984375 C 9.828125 -8.679688 9.484375 -8.425781 9.109375 -8.21875 C 8.742188 -8.007812 8.398438 -7.832031 8.078125 -7.6875 C 8.703125 -7.007812 9.265625 -6.40625 9.765625 -5.875 C 10.265625 -5.34375 10.710938 -4.875 11.109375 -4.46875 C 11.503906 -4.0625 11.84375 -3.710938 12.125 -3.421875 C 12.414062 -3.128906 12.664062 -2.882812 12.875 -2.6875 C 13.351562 -2.207031 13.691406 -1.890625 13.890625 -1.734375 C 14.085938 -1.578125 14.300781 -1.46875 14.53125 -1.40625 C 14.769531 -1.34375 15 -1.3125 15.21875 -1.3125 C 15.40625 -1.3125 15.582031 -1.328125 15.75 -1.359375 C 15.925781 -1.398438 16.0625 -1.441406 16.15625 -1.484375 C 15.8125 -1.253906 15.507812 -1.046875 15.25 -0.859375 C 15 -0.679688 14.765625 -0.523438 14.546875 -0.390625 C 14.328125 -0.253906 14.117188 -0.148438 13.921875 -0.078125 C 13.722656 -0.015625 13.519531 0.015625 13.3125 0.015625 C 13.175781 0.015625 13.035156 -0.00390625 12.890625 -0.046875 C 12.753906 -0.0859375 12.609375 -0.15625 12.453125 -0.25 C 12.304688 -0.34375 12.144531 -0.457031 11.96875 -0.59375 C 11.789062 -0.738281 11.597656 -0.910156 11.390625 -1.109375 C 11.253906 -1.242188 11.050781 -1.460938 10.78125 -1.765625 C 10.507812 -2.066406 10.207031 -2.40625 9.875 -2.78125 C 9.539062 -3.15625 9.191406 -3.546875 8.828125 -3.953125 C 8.460938 -4.359375 8.117188 -4.734375 7.796875 -5.078125 C 7.484375 -5.421875 7.203125 -5.71875 6.953125 -5.96875 C 6.710938 -6.21875 6.546875 -6.375 6.453125 -6.4375 C 6.347656 -6.5 6.234375 -6.550781 6.109375 -6.59375 C 6.003906 -6.644531 5.882812 -6.6875 5.75 -6.71875 C 5.625 -6.75 5.503906 -6.753906 5.390625 -6.734375 L 6.9375 -7.8125 C 7.289062 -7.8125 7.628906 -7.890625 7.953125 -8.046875 C 8.273438 -8.210938 8.554688 -8.453125 8.796875 -8.765625 C 9.035156 -9.085938 9.222656 -9.472656 9.359375 -9.921875 C 9.492188 -10.378906 9.546875 -10.898438 9.515625 -11.484375 C 9.503906 -11.828125 9.425781 -12.140625 9.28125 -12.421875 C 9.144531 -12.703125 8.96875 -12.953125 8.75 -13.171875 C 8.53125 -13.390625 8.28125 -13.582031 8 -13.75 C 7.726562 -13.914062 7.445312 -14.050781 7.15625 -14.15625 C 6.863281 -14.269531 6.570312 -14.351562 6.28125 -14.40625 C 6 -14.457031 5.734375 -14.484375 5.484375 -14.484375 C 5.328125 -14.484375 5.148438 -14.476562 4.953125 -14.46875 C 4.765625 -14.46875 4.570312 -14.46875 4.375 -14.46875 C 4.351562 -13.132812 4.328125 -11.941406 4.296875 -10.890625 C 4.273438 -9.847656 4.253906 -8.921875 4.234375 -8.109375 C 4.210938 -7.296875 4.191406 -6.59375 4.171875 -6 C 4.160156 -5.414062 4.144531 -4.914062 4.125 -4.5 C 4.082031 -3.539062 4.039062 -2.890625 4 -2.546875 C 3.976562 -2.398438 3.945312 -2.253906 3.90625 -2.109375 C 3.851562 -1.972656 3.789062 -1.832031 3.71875 -1.6875 C 3.644531 -1.539062 3.550781 -1.394531 3.4375 -1.25 C 3.75 -1.21875 4.023438 -1.195312 4.265625 -1.1875 C 4.515625 -1.1875 4.742188 -1.1875 4.953125 -1.1875 C 5.441406 -1.1875 5.800781 -1.195312 6.03125 -1.21875 C 6.257812 -1.25 6.394531 -1.273438 6.4375 -1.296875 C 6.0625 -1.109375 5.707031 -0.9375 5.375 -0.78125 C 5.050781 -0.625 4.738281 -0.484375 4.4375 -0.359375 C 4.144531 -0.242188 3.859375 -0.148438 3.578125 -0.078125 C 3.304688 -0.015625 3.039062 0.015625 2.78125 0.015625 L 0.921875 0.015625 L 1.859375 -0.609375 C 1.910156 -0.796875 1.957031 -1.015625 2 -1.265625 C 2.050781 -1.523438 2.09375 -1.800781 2.125 -2.09375 C 2.15625 -2.394531 2.179688 -2.703125 2.203125 -3.015625 C 2.234375 -3.335938 2.257812 -3.648438 2.28125 -3.953125 C 2.320312 -4.660156 2.351562 -5.40625 2.375 -6.1875 C 2.394531 -7.28125 2.410156 -8.335938 2.421875 -9.359375 C 2.429688 -9.796875 2.4375 -10.242188 2.4375 -10.703125 C 2.445312 -11.160156 2.453125 -11.609375 2.453125 -12.046875 C 2.460938 -12.484375 2.46875 -12.898438 2.46875 -13.296875 C 2.476562 -13.691406 2.484375 -14.039062 2.484375 -14.34375 L 0.5625 -14.1875 L 2.65625 -15.4375 C 2.769531 -15.414062 2.898438 -15.40625 3.046875 -15.40625 C 3.191406 -15.40625 3.34375 -15.40625 3.5 -15.40625 C 3.8125 -15.40625 4.113281 -15.414062 4.40625 -15.4375 C 4.707031 -15.46875 5.003906 -15.5 5.296875 -15.53125 C 5.597656 -15.5625 5.890625 -15.585938 6.171875 -15.609375 C 6.453125 -15.640625 6.738281 -15.65625 7.03125 -15.65625 C 7.601562 -15.65625 8.160156 -15.554688 8.703125 -15.359375 C 9.253906 -15.171875 9.738281 -14.894531 10.15625 -14.53125 C 10.570312 -14.175781 10.898438 -13.738281 11.140625 -13.21875 C 11.378906 -12.695312 11.460938 -12.109375 11.390625 -11.453125 Z M 16.1875 -1.5 C 16.175781 -1.5 16.171875 -1.5 16.171875 -1.5 L 16.15625 -1.5 L 16.15625 -1.484375 L 16.15625 -1.5 L 16.171875 -1.5 C 16.179688 -1.5 16.1875 -1.5 16.1875 -1.5 Z M 16.1875 -1.5 "/></g></g></g><g fill="#ef9f3e" fill-opacity="1"><g transform="translate(281.888862, 232.283963)"><g><path d="M 4.265625 -1.109375 C 3.890625 -0.898438 3.523438 -0.722656 3.171875 -0.578125 C 2.828125 -0.429688 2.503906 -0.316406 2.203125 -0.234375 C 1.910156 -0.148438 1.644531 -0.0859375 1.40625 -0.046875 C 1.164062 -0.015625 0.960938 0 0.796875 0 L -0.8125 0 L 0.359375 -0.65625 C 0.472656 -0.8125 0.585938 -0.96875 0.703125 -1.125 C 0.816406 -1.28125 0.914062 -1.425781 1 -1.5625 C 1.082031 -1.707031 1.164062 -1.859375 1.25 -2.015625 C 1.46875 -2.460938 1.796875 -3.1875 2.234375 -4.1875 C 2.410156 -4.613281 2.617188 -5.117188 2.859375 -5.703125 C 3.109375 -6.296875 3.394531 -6.984375 3.71875 -7.765625 C 4.039062 -8.554688 4.394531 -9.445312 4.78125 -10.4375 C 5.175781 -11.4375 5.613281 -12.554688 6.09375 -13.796875 L 7.953125 -15.515625 L 12.140625 -1.3125 C 12.441406 -1.238281 12.726562 -1.1875 13 -1.15625 C 13.28125 -1.132812 13.539062 -1.125 13.78125 -1.125 C 13.90625 -1.125 14.019531 -1.125 14.125 -1.125 C 14.238281 -1.132812 14.332031 -1.144531 14.40625 -1.15625 C 14.488281 -1.164062 14.570312 -1.175781 14.65625 -1.1875 C 14.238281 -0.988281 13.875 -0.816406 13.5625 -0.671875 C 13.257812 -0.523438 12.988281 -0.398438 12.75 -0.296875 C 12.519531 -0.203125 12.300781 -0.128906 12.09375 -0.078125 C 11.894531 -0.0234375 11.691406 0 11.484375 0 L 9.765625 0 L 10.328125 -0.359375 L 8.625 -6.015625 C 8.414062 -5.953125 8.175781 -5.894531 7.90625 -5.84375 C 7.632812 -5.789062 7.3125 -5.742188 6.9375 -5.703125 C 6.5625 -5.660156 6.125 -5.617188 5.625 -5.578125 C 5.132812 -5.546875 4.566406 -5.515625 3.921875 -5.484375 C 3.617188 -4.859375 3.34375 -4.296875 3.09375 -3.796875 C 2.84375 -3.304688 2.617188 -2.878906 2.421875 -2.515625 C 2.222656 -2.148438 2.046875 -1.84375 1.890625 -1.59375 C 1.742188 -1.351562 1.613281 -1.15625 1.5 -1 C 1.625 -0.976562 1.757812 -0.960938 1.90625 -0.953125 C 2.0625 -0.941406 2.210938 -0.9375 2.359375 -0.9375 C 2.585938 -0.9375 2.8125 -0.945312 3.03125 -0.96875 C 3.257812 -0.988281 3.46875 -1.007812 3.65625 -1.03125 C 3.863281 -1.050781 4.066406 -1.078125 4.265625 -1.109375 Z M 5.75 -6.765625 C 6.71875 -6.765625 7.59375 -6.785156 8.375 -6.828125 L 6.734375 -12.25 C 6.296875 -11.113281 5.894531 -10.097656 5.53125 -9.203125 C 5.164062 -8.316406 4.816406 -7.503906 4.484375 -6.765625 Z M 5.75 -6.765625 "/></g></g></g></svg>