<svg xmlns="http://www.w3.org/2000/svg" xmlns:xlink="http://www.w3.org/1999/xlink" width="500" zoomAndPan="magnify" viewBox="0 0 375 374.999991" height="500" preserveAspectRatio="xMidYMid meet" version="1.0"><defs><g/></defs><path stroke-linecap="butt" transform="matrix(0.796004, -0.0323475, 0.0323475, 0.796004, 89.756372, 23.125813)" fill="none" stroke-linejoin="miter" d="M 197.5021 124.259861 C 195.705904 126.557107 193.509365 128.803733 190.912481 130.999738 C 188.715379 132.897921 185.999079 134.892781 182.753584 136.988818 C 179.508089 139.084856 175.740643 140.983019 171.446548 142.67821 C 172.844399 140.884953 172.971634 138.961544 171.823156 136.912684 C 170.674478 134.868723 168.154655 132.99478 164.258388 131.300453 C 160.36722 129.601426 155.099531 128.204695 148.465318 127.105761 C 141.826007 126.011526 133.716933 125.461165 124.132998 125.459378 C 118.54361 125.457978 112.528395 126.033059 106.087552 127.179723 C 99.651409 128.331485 93.285101 130.300701 86.998028 133.097568 C 80.706254 135.889336 74.641809 139.608013 68.804693 144.253597 C 62.962876 148.894084 57.800555 154.68596 53.308128 161.62393 C 48.815901 168.557001 45.247256 176.793693 42.602392 186.329109 C 39.952828 195.859426 38.632011 206.866864 38.630342 219.346126 C 38.633771 231.820688 40.155385 242.801323 43.200083 252.288229 C 46.244981 261.770236 50.285879 269.928482 55.327478 276.768064 C 60.369077 283.607646 66.134552 289.298886 72.624103 293.836885 C 79.108556 298.379584 85.747224 302.025602 92.535405 304.76984 C 99.323587 307.514079 105.988242 309.433774 112.52917 310.533826 C 119.065199 311.633678 124.980731 312.183231 130.270867 312.182285 C 136.360055 312.081314 142.698939 311.632254 149.287521 310.835107 C 154.979066 310.134004 161.24306 309.112651 168.079703 307.766149 C 174.916545 306.414748 181.631296 304.44497 188.219257 301.851716 C 178.534929 309.633776 169.553558 315.574711 161.265543 319.669223 C 152.982627 323.759036 145.694162 326.804741 139.405246 328.801639 C 132.117846 331.096566 125.43037 332.395149 119.337919 332.697189 C 104.566932 332.695629 90.639818 330.524973 77.561678 326.18052 C 64.488237 321.841165 53.030084 315.55054 43.196818 307.313943 C 33.368451 299.077545 25.603513 288.971883 19.916901 276.992656 C 14.22539 265.013229 11.378319 251.387664 11.38059 236.116157 C 11.378395 226.630207 12.276074 217.823685 14.074026 209.686793 C 15.871978 201.5499 18.241158 194.088895 21.186663 187.299078 C 24.13197 180.514159 27.452534 174.397165 31.143059 168.957694 C 34.838483 163.518422 38.605811 158.724931 42.449743 154.582321 C 46.293675 150.43971 50.036644 146.970208 53.67845 144.178713 C 57.325355 141.382518 60.494453 139.234302 63.190445 137.739165 C 65.783554 136.239846 69.101109 134.54423 73.148209 132.647617 C 77.19041 130.750804 81.631042 128.830924 86.470303 126.883077 C 91.314464 124.935429 96.432385 123.013629 101.819166 121.117476 C 107.210846 119.221522 112.702346 117.525917 118.293865 116.025763 C 123.880285 114.530308 129.346778 113.329328 134.688045 112.432419 C 140.029313 111.535511 145.092405 111.08368 149.886723 111.087123 C 160.565178 111.084315 169.201457 111.58249 175.790659 112.581449 C 182.379861 113.580408 187.394461 114.804912 190.839557 116.25026 C 194.284454 117.700508 196.428066 119.171484 197.279995 120.668488 C 198.127024 122.165292 198.200926 123.365682 197.5021 124.259861 Z M 197.5021 124.259861 " stroke="#ffffff" stroke-width="23.000025" stroke-opacity="1" stroke-miterlimit="4"/><g fill="#ef9f3e" fill-opacity="1"><g transform="translate(100.431038, 285.807057)"><g><path d="M 150.5625 -170.140625 C 149.195312 -168.253906 147.519531 -166.394531 145.53125 -164.5625 C 143.84375 -162.988281 141.738281 -161.3125 139.21875 -159.53125 C 136.707031 -157.757812 133.769531 -156.128906 130.40625 -154.640625 C 131.46875 -156.117188 131.507812 -157.65625 130.53125 -159.25 C 129.550781 -160.84375 127.476562 -162.25 124.3125 -163.46875 C 121.15625 -164.6875 116.921875 -165.625 111.609375 -166.28125 C 106.296875 -166.945312 99.828125 -167.125 92.203125 -166.8125 C 87.742188 -166.632812 82.96875 -165.984375 77.875 -164.859375 C 72.789062 -163.742188 67.789062 -161.972656 62.875 -159.546875 C 57.96875 -157.117188 53.257812 -153.957031 48.75 -150.0625 C 44.25 -146.175781 40.320312 -141.398438 36.96875 -135.734375 C 33.625 -130.066406 31.050781 -123.394531 29.25 -115.71875 C 27.457031 -108.050781 26.765625 -99.253906 27.171875 -89.328125 C 27.578125 -79.390625 29.144531 -70.695312 31.875 -63.25 C 34.601562 -55.800781 38.082031 -49.4375 42.3125 -44.15625 C 46.539062 -38.875 51.3125 -34.53125 56.625 -31.125 C 61.9375 -27.71875 67.335938 -25.03125 72.828125 -23.0625 C 78.328125 -21.101562 83.695312 -19.789062 88.9375 -19.125 C 94.175781 -18.457031 98.898438 -18.210938 103.109375 -18.390625 C 107.960938 -18.671875 112.992188 -19.234375 118.203125 -20.078125 C 122.710938 -20.828125 127.664062 -21.847656 133.0625 -23.140625 C 138.457031 -24.429688 143.738281 -26.21875 148.90625 -28.5 C 141.457031 -21.988281 134.5 -16.96875 128.03125 -13.4375 C 121.5625 -9.914062 115.863281 -7.257812 110.9375 -5.46875 C 105.207031 -3.394531 99.925781 -2.144531 95.09375 -1.71875 C 83.332031 -1.238281 72.175781 -2.515625 61.625 -5.546875 C 51.070312 -8.585938 41.75 -13.222656 33.65625 -19.453125 C 25.5625 -25.691406 19.054688 -33.488281 14.140625 -42.84375 C 9.222656 -52.195312 6.519531 -62.953125 6.03125 -75.109375 C 5.71875 -82.648438 6.144531 -89.6875 7.3125 -96.21875 C 8.476562 -102.75 10.117188 -108.765625 12.234375 -114.265625 C 14.359375 -119.765625 16.800781 -124.738281 19.5625 -129.1875 C 22.332031 -133.644531 25.179688 -137.582031 28.109375 -141 C 31.035156 -144.414062 33.90625 -147.296875 36.71875 -149.640625 C 39.53125 -151.984375 41.984375 -153.796875 44.078125 -155.078125 C 46.085938 -156.359375 48.675781 -157.816406 51.84375 -159.453125 C 55.007812 -161.085938 58.484375 -162.757812 62.265625 -164.46875 C 66.046875 -166.175781 70.050781 -167.875 74.28125 -169.5625 C 78.519531 -171.25 82.835938 -172.773438 87.234375 -174.140625 C 91.640625 -175.515625 95.953125 -176.644531 100.171875 -177.53125 C 104.390625 -178.414062 108.410156 -178.9375 112.234375 -179.09375 C 120.734375 -179.4375 127.617188 -179.316406 132.890625 -178.734375 C 138.171875 -178.160156 142.203125 -177.351562 144.984375 -176.3125 C 147.773438 -175.269531 149.53125 -174.164062 150.25 -173 C 150.976562 -171.832031 151.082031 -170.878906 150.5625 -170.140625 Z M 150.5625 -170.140625 "/></g></g></g><path stroke-linecap="butt" transform="matrix(-0.749004, -0.0386477, 0.0386477, -0.749004, 292.645502, 347.02864)" fill="none" stroke-linejoin="miter" d="M 168.231665 105.754458 C 166.700242 107.710973 164.827506 109.622515 162.618928 111.494019 C 160.746498 113.108275 158.429967 114.80803 155.669336 116.593283 C 152.903771 118.384006 149.69629 119.999352 146.036759 121.445058 C 147.230219 119.912772 147.333465 118.275068 146.356899 116.531407 C 145.380334 114.787747 143.232811 113.193165 139.914332 111.747664 C 136.601054 110.301894 132.112052 109.11497 126.457192 108.175952 C 120.807803 107.241868 113.894329 106.774583 105.732377 106.773295 C 100.970872 106.773865 95.848617 107.262424 90.36588 108.244172 C 84.882875 109.220719 79.46211 110.898115 74.103852 113.281561 C 68.745326 115.659806 63.578704 118.826083 58.603986 122.780394 C 53.63447 126.734437 49.231692 131.665782 45.406324 137.579094 C 41.580688 143.487205 38.537094 150.502322 36.285944 158.623906 C 34.034526 166.74029 32.906896 176.118148 32.907721 186.746811 C 32.908545 197.375473 34.204672 206.727359 36.796103 214.802467 C 39.387803 222.882777 42.833925 229.834225 47.129269 235.657079 C 51.419411 241.480202 56.331958 246.327247 61.856506 250.198751 C 67.385987 254.064785 73.037796 257.168294 78.822336 259.508741 C 84.601674 261.849457 90.282094 263.486001 95.847993 264.419178 C 101.419093 265.352087 106.455226 265.822365 110.961325 265.824542 C 116.151327 265.739278 121.550229 265.356396 127.163231 264.675627 C 132.00884 264.081391 137.345835 263.206253 143.169551 262.060884 C 148.992999 260.910313 154.71105 259.233223 160.323168 257.019212 C 152.076088 263.65613 144.42028 268.713606 137.366682 272.201506 C 130.307615 275.684472 124.099712 278.278648 118.742706 279.97883 C 112.538469 281.936554 106.837708 283.039072 101.651362 283.296251 C 89.066801 283.293692 77.205732 281.444106 66.068155 277.747492 C 54.930578 274.050879 45.17274 268.692417 36.79491 261.677309 C 28.422281 254.661932 21.808456 246.053807 16.963569 235.847196 C 12.118951 225.645787 9.694853 214.041742 9.691009 201.02986 C 9.69139 192.951399 10.456841 185.448862 11.987092 178.517048 C 13.517612 171.590435 15.541654 165.232897 18.049083 159.450172 C 20.556512 153.667447 23.380615 148.462922 26.531258 143.825657 C 29.676968 139.193862 32.887537 135.111538 36.158032 131.584155 C 39.43346 128.051302 42.618778 125.096778 45.724389 122.720045 C 48.829731 120.338111 51.52553 118.509266 53.822189 117.232973 C 56.035357 115.955772 58.860515 114.511397 62.302864 112.899579 C 65.750147 111.28229 69.530051 109.642624 73.658451 107.984975 C 77.781649 106.327595 82.14052 104.689346 86.730133 103.075698 C 91.319746 101.46205 95.996237 100.016023 100.759606 98.737616 C 105.523243 97.464411 110.17466 96.442114 114.724798 95.680591 C 119.274667 94.913866 123.588722 94.529593 127.672433 94.532703 C 136.767854 94.532764 144.122374 94.956429 149.735992 95.8037 C 155.349879 96.656173 159.622773 97.69779 162.554673 98.928551 C 165.486842 100.164515 167.314164 101.415765 168.037175 102.692704 C 168.760187 103.969644 168.823194 104.988584 168.231665 105.754458 Z M 168.231665 105.754458 " stroke="#ffffff" stroke-width="19.5912" stroke-opacity="1" stroke-miterlimit="4"/><g fill="#ef9f3e" fill-opacity="1"><g transform="translate(303.505514, 136.558651)"><g><path d="M -132.765625 124.765625 C -131.546875 123.359375 -130.078125 121.992188 -128.359375 120.671875 C -126.890625 119.535156 -125.082031 118.351562 -122.9375 117.125 C -120.800781 115.894531 -118.34375 114.8125 -115.5625 113.875 C -116.488281 114.96875 -116.625 116.1875 -115.96875 117.53125 C -115.3125 118.875 -113.765625 120.148438 -111.328125 121.359375 C -108.898438 122.566406 -105.585938 123.628906 -101.390625 124.546875 C -97.191406 125.472656 -92.035156 126.09375 -85.921875 126.40625 C -82.359375 126.59375 -78.503906 126.425781 -74.359375 125.90625 C -70.222656 125.382812 -66.097656 124.332031 -61.984375 122.75 C -57.878906 121.175781 -53.890625 119.003906 -50.015625 116.234375 C -46.140625 113.460938 -42.648438 109.9375 -39.546875 105.65625 C -36.453125 101.382812 -33.90625 96.25 -31.90625 90.25 C -29.90625 84.257812 -28.695312 77.285156 -28.28125 69.328125 C -27.875 61.367188 -28.484375 54.3125 -30.109375 48.15625 C -31.742188 42.007812 -34.054688 36.671875 -37.046875 32.140625 C -40.046875 27.617188 -43.535156 23.800781 -47.515625 20.6875 C -51.503906 17.570312 -55.617188 15.023438 -59.859375 13.046875 C -64.097656 11.078125 -68.285156 9.632812 -72.421875 8.71875 C -76.566406 7.800781 -80.328125 7.257812 -83.703125 7.09375 C -87.585938 6.945312 -91.644531 7.019531 -95.875 7.3125 C -99.53125 7.5625 -103.554688 8.003906 -107.953125 8.640625 C -112.359375 9.285156 -116.707031 10.320312 -121 11.75 C -114.570312 7.101562 -108.644531 3.609375 -103.21875 1.265625 C -97.800781 -1.066406 -93.054688 -2.765625 -88.984375 -3.828125 C -84.253906 -5.054688 -79.9375 -5.660156 -76.03125 -5.640625 C -66.613281 -5.160156 -57.804688 -3.320312 -49.609375 -0.125 C -41.410156 3.070312 -34.304688 7.460938 -28.296875 13.046875 C -22.296875 18.628906 -17.675781 25.332031 -14.4375 33.15625 C -11.207031 40.988281 -9.84375 49.78125 -10.34375 59.53125 C -10.65625 65.570312 -11.519531 71.160156 -12.9375 76.296875 C -14.351562 81.429688 -16.113281 86.113281 -18.21875 90.34375 C -20.320312 94.582031 -22.640625 98.375 -25.171875 101.71875 C -27.703125 105.070312 -30.257812 108.003906 -32.84375 110.515625 C -35.4375 113.023438 -37.941406 115.113281 -40.359375 116.78125 C -42.773438 118.445312 -44.875 119.710938 -46.65625 120.578125 C -48.351562 121.453125 -50.523438 122.425781 -53.171875 123.5 C -55.816406 124.570312 -58.710938 125.648438 -61.859375 126.734375 C -65.003906 127.828125 -68.328125 128.882812 -71.828125 129.90625 C -75.335938 130.9375 -78.898438 131.835938 -82.515625 132.609375 C -86.128906 133.378906 -89.648438 133.960938 -93.078125 134.359375 C -96.515625 134.753906 -99.765625 134.875 -102.828125 134.71875 C -109.640625 134.363281 -115.128906 133.757812 -119.296875 132.90625 C -123.472656 132.0625 -126.632812 131.117188 -128.78125 130.078125 C -130.9375 129.035156 -132.257812 128.023438 -132.75 127.046875 C -133.238281 126.078125 -133.242188 125.316406 -132.765625 124.765625 Z M -132.765625 124.765625 "/></g></g></g></svg>