<?xml version="1.0" standalone="no"?>
<!DOCTYPE svg PUBLIC "-//W3C//DTD SVG 20010904//EN"
 "http://www.w3.org/TR/2001/REC-SVG-20010904/DTD/svg10.dtd">
<svg version="1.0" xmlns="http://www.w3.org/2000/svg"
 width="500.000000pt" height="500.000000pt" viewBox="0 0 500.000000 500.000000"
 preserveAspectRatio="xMidYMid meet">
<metadata>
Created by potrace 1.14, written by Peter Selinger 2001-2017
</metadata>
<g transform="translate(0.000000,500.000000) scale(0.100000,-0.100000)"
fill="#000000" stroke="none">
<path d="M2725 3565 c-184 -30 -525 -157 -737 -274 -328 -182 -546 -559 -565
-977 -23 -489 208 -851 646 -1018 150 -58 272 -80 446 -80 135 0 159 3 237 27
48 15 102 33 120 42 l33 14 -50 -7 c-79 -11 -251 -6 -362 12 -220 34 -320 99
-317 207 l2 46 -63 36 c-219 126 -370 382 -406 688 -45 388 70 743 299 925
187 148 366 205 651 205 168 0 250 -10 335 -41 28 -10 80 -21 116 -25 36 -3
75 -9 86 -11 16 -4 37 9 82 51 34 31 64 65 67 76 12 38 -39 73 -140 96 -92 21
-372 25 -480 8z"/>
<path d="M2865 3231 c-137 -37 -314 -120 -395 -184 l-25 -20 25 7 c158 42 378
61 512 46 167 -20 342 -98 467 -207 138 -121 221 -331 221 -557 -1 -180 -29
-310 -100 -452 -74 -148 -169 -239 -324 -310 -130 -59 -346 -74 -535 -35 -143
30 -204 64 -213 118 l-3 23 -50 -24 c-56 -26 -154 -97 -168 -122 -6 -10 -3
-22 10 -36 72 -82 402 -118 638 -70 146 29 361 100 477 156 223 108 403 341
474 611 34 128 39 347 11 460 -87 349 -424 597 -827 611 -101 3 -138 1 -195
-15z"/>
</g>
</svg>
